<?xml version="1.0" encoding="UTF-8"?>
<svg xmlns="http://www.w3.org/2000/svg" xmlns:xlink="http://www.w3.org/1999/xlink" width="1920" height="1080" viewBox="0 0 1920 1080">
<defs>
<g>
<g id="glyph-0-0">
<path d="M 1.511719 -2.269531 L 2.296875 -2.269531 C 2.59375 -2.269531 2.820312 -2.347656 2.976562 -2.507812 C 3.128906 -2.667969 3.207031 -2.898438 3.207031 -3.203125 C 3.207031 -3.507812 3.128906 -3.738281 2.976562 -3.898438 C 2.820312 -4.054688 2.59375 -4.136719 2.296875 -4.136719 L 1.511719 -4.136719 L 1.511719 -2.269531 M 0.335938 0 L 0.335938 -0.316406 L 0.902344 -0.316406 L 0.902344 -4.136719 L 0.335938 -4.136719 L 0.335938 -4.453125 L 2.445312 -4.453125 C 2.890625 -4.453125 3.242188 -4.34375 3.503906 -4.117188 C 3.761719 -3.890625 3.894531 -3.585938 3.894531 -3.203125 C 3.894531 -2.820312 3.761719 -2.515625 3.503906 -2.289062 C 3.242188 -2.0625 2.890625 -1.949219 2.445312 -1.949219 L 1.511719 -1.949219 L 1.511719 -0.316406 L 2.199219 -0.316406 L 2.199219 0 Z "/>
</g>
<g id="glyph-0-1">
<path d="M 4.308594 -1.179688 C 4.175781 -0.761719 3.957031 -0.449219 3.648438 -0.234375 C 3.339844 -0.0195312 2.945312 0.0859375 2.472656 0.0859375 C 2.183594 0.0859375 1.914062 0.0351562 1.664062 -0.0625 C 1.417969 -0.164062 1.195312 -0.308594 1.003906 -0.5 C 0.78125 -0.722656 0.613281 -0.976562 0.503906 -1.261719 C 0.398438 -1.542969 0.34375 -1.863281 0.34375 -2.222656 C 0.34375 -2.914062 0.542969 -3.472656 0.941406 -3.898438 C 1.34375 -4.324219 1.871094 -4.535156 2.523438 -4.535156 C 2.765625 -4.535156 3.027344 -4.503906 3.300781 -4.441406 C 3.574219 -4.375 3.871094 -4.28125 4.1875 -4.148438 L 4.1875 -3.125 L 3.847656 -3.125 C 3.777344 -3.496094 3.628906 -3.773438 3.40625 -3.949219 C 3.183594 -4.128906 2.875 -4.214844 2.472656 -4.214844 C 2 -4.214844 1.636719 -4.046875 1.394531 -3.710938 C 1.148438 -3.375 1.027344 -2.878906 1.027344 -2.222656 C 1.027344 -1.570312 1.148438 -1.074219 1.394531 -0.738281 C 1.636719 -0.402344 2 -0.234375 2.472656 -0.234375 C 2.804688 -0.234375 3.078125 -0.3125 3.292969 -0.46875 C 3.507812 -0.628906 3.664062 -0.863281 3.757812 -1.179688 Z "/>
</g>
<g id="glyph-0-2">
<path d="M 1.222656 -1.613281 L 2.859375 -1.613281 L 2.039062 -3.734375 L 1.222656 -1.613281 M -0.0351562 0 L -0.0351562 -0.316406 L 0.355469 -0.316406 L 1.941406 -4.453125 L 2.445312 -4.453125 L 4.035156 -0.316406 L 4.472656 -0.316406 L 4.472656 0 L 2.851562 0 L 2.851562 -0.316406 L 3.347656 -0.316406 L 2.976562 -1.296875 L 1.101562 -1.296875 L 0.726562 -0.316406 L 1.21875 -0.316406 L 1.21875 0 Z "/>
</g>
<g id="glyph-0-3">
</g>
<g id="glyph-0-4">
<path d="M 3.207031 -2.851562 L 3.207031 -0.0703125 C 3.207031 0.386719 3.082031 0.738281 2.832031 0.984375 C 2.582031 1.234375 2.222656 1.359375 1.761719 1.359375 C 1.550781 1.359375 1.351562 1.339844 1.160156 1.300781 C 0.96875 1.261719 0.785156 1.207031 0.613281 1.128906 L 0.613281 0.464844 L 0.898438 0.464844 C 0.933594 0.671875 1.019531 0.824219 1.152344 0.917969 C 1.285156 1.015625 1.476562 1.0625 1.722656 1.0625 C 2.046875 1.0625 2.28125 0.972656 2.433594 0.789062 C 2.582031 0.605469 2.660156 0.320312 2.660156 -0.0703125 L 2.660156 -0.496094 C 2.550781 -0.296875 2.414062 -0.148438 2.25 -0.0546875 C 2.082031 0.0390625 1.875 0.0859375 1.632812 0.0859375 C 1.242188 0.0859375 0.921875 -0.0664062 0.675781 -0.378906 C 0.429688 -0.6875 0.304688 -1.089844 0.304688 -1.585938 C 0.304688 -2.085938 0.425781 -2.488281 0.675781 -2.796875 C 0.921875 -3.105469 1.242188 -3.257812 1.632812 -3.257812 C 1.875 -3.257812 2.082031 -3.210938 2.25 -3.117188 C 2.414062 -3.023438 2.550781 -2.875 2.660156 -2.675781 L 2.660156 -3.171875 L 3.734375 -3.171875 L 3.734375 -2.851562 L 3.207031 -2.851562 M 2.660156 -1.742188 C 2.660156 -2.121094 2.585938 -2.414062 2.4375 -2.613281 C 2.292969 -2.816406 2.082031 -2.914062 1.800781 -2.914062 C 1.519531 -2.914062 1.304688 -2.804688 1.164062 -2.582031 C 1.019531 -2.359375 0.945312 -2.027344 0.945312 -1.585938 C 0.945312 -1.148438 1.019531 -0.820312 1.164062 -0.59375 C 1.304688 -0.367188 1.519531 -0.257812 1.800781 -0.257812 C 2.082031 -0.257812 2.292969 -0.355469 2.4375 -0.554688 C 2.585938 -0.757812 2.660156 -1.046875 2.660156 -1.429688 Z "/>
</g>
<g id="glyph-0-5">
<path d="M 0.59375 -4.15625 C 0.59375 -4.246094 0.628906 -4.328125 0.695312 -4.394531 C 0.761719 -4.460938 0.839844 -4.496094 0.933594 -4.496094 C 1.027344 -4.496094 1.105469 -4.460938 1.171875 -4.394531 C 1.238281 -4.328125 1.269531 -4.246094 1.269531 -4.15625 C 1.269531 -4.0625 1.238281 -3.984375 1.171875 -3.917969 C 1.105469 -3.851562 1.027344 -3.820312 0.933594 -3.820312 C 0.839844 -3.820312 0.761719 -3.851562 0.695312 -3.917969 C 0.628906 -3.984375 0.59375 -4.0625 0.59375 -4.15625 M 1.296875 -0.316406 L 1.8125 -0.316406 L 1.8125 0 L 0.222656 0 L 0.222656 -0.316406 L 0.746094 -0.316406 L 0.746094 -2.851562 L 0.222656 -2.851562 L 0.222656 -3.171875 L 1.296875 -3.171875 Z "/>
</g>
<g id="glyph-0-6">
<path d="M 1.730469 -4.085938 L 1.558594 -4.25 C 1.507812 -4.300781 1.464844 -4.332031 1.433594 -4.347656 C 1.402344 -4.359375 1.367188 -4.367188 1.328125 -4.367188 C 1.246094 -4.367188 1.179688 -4.328125 1.128906 -4.25 C 1.082031 -4.171875 1.054688 -4.058594 1.042969 -3.90625 L 0.757812 -3.90625 C 0.761719 -4.175781 0.816406 -4.382812 0.914062 -4.527344 C 1.015625 -4.675781 1.160156 -4.746094 1.339844 -4.746094 C 1.414062 -4.746094 1.484375 -4.734375 1.546875 -4.707031 C 1.613281 -4.675781 1.679688 -4.628906 1.753906 -4.566406 L 1.925781 -4.402344 C 1.96875 -4.355469 2.011719 -4.324219 2.042969 -4.308594 C 2.078125 -4.292969 2.117188 -4.285156 2.15625 -4.285156 C 2.242188 -4.285156 2.308594 -4.324219 2.355469 -4.402344 C 2.40625 -4.484375 2.433594 -4.597656 2.441406 -4.746094 L 2.726562 -4.746094 C 2.722656 -4.480469 2.671875 -4.269531 2.570312 -4.125 C 2.46875 -3.980469 2.328125 -3.90625 2.144531 -3.90625 C 2.070312 -3.90625 2 -3.917969 1.9375 -3.949219 C 1.871094 -3.976562 1.804688 -4.023438 1.730469 -4.085938 M 2.128906 -3.171875 L 3.15625 -3.171875 L 3.15625 -0.316406 L 3.675781 -0.316406 L 3.675781 0 L 2.609375 0 L 2.609375 -0.5625 C 2.507812 -0.351562 2.375 -0.191406 2.214844 -0.078125 C 2.054688 0.03125 1.867188 0.0859375 1.652344 0.0859375 C 1.300781 0.0859375 1.042969 -0.0117188 0.875 -0.214844 C 0.710938 -0.414062 0.625 -0.726562 0.625 -1.15625 L 0.625 -2.851562 L 0.132812 -2.851562 L 0.132812 -3.171875 L 1.179688 -3.171875 L 1.179688 -1.324219 C 1.179688 -0.9375 1.226562 -0.675781 1.320312 -0.53125 C 1.414062 -0.386719 1.582031 -0.316406 1.824219 -0.316406 C 2.082031 -0.316406 2.273438 -0.410156 2.40625 -0.597656 C 2.542969 -0.785156 2.609375 -1.054688 2.609375 -1.410156 L 2.609375 -2.851562 L 2.128906 -2.851562 L 2.128906 -3.171875 M 3.027344 -2.519531 L 3.027344 -2.800781 L 3.035156 -2.796875 C 3.277344 -2.625 3.445312 -2.539062 3.542969 -2.539062 C 3.632812 -2.539062 3.707031 -2.574219 3.761719 -2.640625 C 3.816406 -2.707031 3.847656 -2.792969 3.847656 -2.90625 C 3.847656 -2.960938 3.839844 -3.015625 3.828125 -3.074219 C 3.816406 -3.132812 3.796875 -3.191406 3.769531 -3.25 L 4.148438 -3.246094 C 4.167969 -3.175781 4.183594 -3.105469 4.191406 -3.039062 C 4.199219 -2.972656 4.203125 -2.90625 4.203125 -2.84375 C 4.203125 -2.617188 4.160156 -2.445312 4.070312 -2.320312 C 3.980469 -2.199219 3.855469 -2.136719 3.695312 -2.136719 C 3.597656 -2.136719 3.496094 -2.167969 3.390625 -2.226562 C 3.285156 -2.285156 3.164062 -2.382812 3.027344 -2.519531 Z "/>
</g>
<g id="glyph-0-7">
<path d="M 1.253906 -0.316406 L 1.773438 -0.316406 L 1.773438 0 L 0.175781 0 L 0.175781 -0.316406 L 0.703125 -0.316406 L 0.703125 -4.328125 L 0.175781 -4.328125 L 0.175781 -4.644531 L 1.253906 -4.644531 Z "/>
</g>
<g id="glyph-0-8">
<path d="M 2.433594 -0.996094 L 2.433594 -1.667969 L 1.722656 -1.667969 C 1.453125 -1.667969 1.25 -1.609375 1.117188 -1.492188 C 0.984375 -1.375 0.914062 -1.195312 0.914062 -0.953125 C 0.914062 -0.730469 0.984375 -0.554688 1.117188 -0.425781 C 1.253906 -0.296875 1.4375 -0.234375 1.667969 -0.234375 C 1.898438 -0.234375 2.082031 -0.304688 2.222656 -0.445312 C 2.363281 -0.585938 2.433594 -0.769531 2.433594 -0.996094 M 2.980469 -1.980469 L 2.980469 -0.316406 L 3.46875 -0.316406 L 3.46875 0 L 2.433594 0 L 2.433594 -0.34375 C 2.308594 -0.195312 2.171875 -0.0859375 2.011719 -0.0195312 C 1.851562 0.0507812 1.664062 0.0859375 1.453125 0.0859375 C 1.101562 0.0859375 0.820312 -0.0078125 0.613281 -0.195312 C 0.40625 -0.382812 0.304688 -0.632812 0.304688 -0.953125 C 0.304688 -1.28125 0.421875 -1.535156 0.660156 -1.714844 C 0.894531 -1.898438 1.230469 -1.988281 1.660156 -1.988281 L 2.433594 -1.988281 L 2.433594 -2.203125 C 2.433594 -2.445312 2.359375 -2.632812 2.210938 -2.765625 C 2.066406 -2.898438 1.859375 -2.960938 1.597656 -2.960938 C 1.378906 -2.960938 1.203125 -2.914062 1.074219 -2.8125 C 0.945312 -2.714844 0.863281 -2.566406 0.832031 -2.371094 L 0.550781 -2.371094 L 0.550781 -3.011719 C 0.738281 -3.09375 0.925781 -3.15625 1.105469 -3.195312 C 1.285156 -3.238281 1.460938 -3.257812 1.632812 -3.257812 C 2.070312 -3.257812 2.40625 -3.148438 2.636719 -2.929688 C 2.867188 -2.714844 2.980469 -2.398438 2.980469 -1.980469 M 1.699219 0.472656 C 1.792969 0.472656 1.875 0.503906 1.945312 0.574219 C 2.011719 0.644531 2.046875 0.726562 2.046875 0.820312 C 2.046875 0.921875 2.015625 1.003906 1.949219 1.070312 C 1.882812 1.136719 1.800781 1.167969 1.699219 1.167969 C 1.597656 1.167969 1.511719 1.136719 1.445312 1.070312 C 1.382812 1.003906 1.347656 0.921875 1.347656 0.820312 C 1.347656 0.726562 1.382812 0.644531 1.453125 0.574219 C 1.519531 0.503906 1.601562 0.472656 1.699219 0.472656 Z "/>
</g>
<g id="glyph-0-9">
<path d="M 0.34375 -0.175781 L 0.34375 -0.914062 L 0.660156 -0.914062 C 0.667969 -0.679688 0.742188 -0.503906 0.882812 -0.386719 C 1.023438 -0.265625 1.230469 -0.207031 1.503906 -0.207031 C 1.75 -0.207031 1.9375 -0.253906 2.066406 -0.347656 C 2.195312 -0.441406 2.261719 -0.574219 2.261719 -0.75 C 2.261719 -0.890625 2.214844 -1.003906 2.121094 -1.089844 C 2.027344 -1.175781 1.824219 -1.265625 1.523438 -1.363281 L 1.125 -1.496094 C 0.851562 -1.585938 0.65625 -1.695312 0.53125 -1.824219 C 0.410156 -1.957031 0.347656 -2.125 0.347656 -2.328125 C 0.347656 -2.617188 0.457031 -2.84375 0.667969 -3.011719 C 0.882812 -3.175781 1.175781 -3.257812 1.550781 -3.257812 C 1.71875 -3.257812 1.894531 -3.238281 2.078125 -3.191406 C 2.265625 -3.148438 2.457031 -3.085938 2.652344 -3 L 2.652344 -2.308594 L 2.335938 -2.308594 C 2.328125 -2.515625 2.257812 -2.675781 2.121094 -2.789062 C 1.984375 -2.90625 1.800781 -2.960938 1.570312 -2.960938 C 1.339844 -2.960938 1.164062 -2.921875 1.046875 -2.839844 C 0.925781 -2.757812 0.867188 -2.636719 0.867188 -2.472656 C 0.867188 -2.339844 0.914062 -2.234375 1.003906 -2.152344 C 1.09375 -2.070312 1.269531 -1.988281 1.539062 -1.90625 L 1.976562 -1.773438 C 2.277344 -1.679688 2.492188 -1.5625 2.625 -1.421875 C 2.757812 -1.28125 2.824219 -1.101562 2.824219 -0.878906 C 2.824219 -0.578125 2.707031 -0.34375 2.476562 -0.171875 C 2.25 0 1.929688 0.0859375 1.527344 0.0859375 C 1.324219 0.0859375 1.121094 0.0664062 0.929688 0.0195312 C 0.734375 -0.0234375 0.539062 -0.0898438 0.34375 -0.175781 Z "/>
</g>
<g id="glyph-0-10">
<path d="M 1.925781 0.472656 C 2.023438 0.472656 2.105469 0.503906 2.171875 0.574219 C 2.242188 0.644531 2.277344 0.726562 2.277344 0.820312 C 2.277344 0.921875 2.242188 1.003906 2.179688 1.070312 C 2.113281 1.136719 2.027344 1.167969 1.925781 1.167969 C 1.824219 1.167969 1.742188 1.136719 1.675781 1.070312 C 1.609375 1.003906 1.578125 0.921875 1.578125 0.820312 C 1.578125 0.726562 1.613281 0.644531 1.679688 0.574219 C 1.75 0.503906 1.832031 0.472656 1.925781 0.472656 M 2.128906 -3.171875 L 3.15625 -3.171875 L 3.15625 -0.316406 L 3.675781 -0.316406 L 3.675781 0 L 2.609375 0 L 2.609375 -0.5625 C 2.507812 -0.351562 2.375 -0.191406 2.214844 -0.078125 C 2.054688 0.03125 1.867188 0.0859375 1.652344 0.0859375 C 1.300781 0.0859375 1.042969 -0.0117188 0.875 -0.214844 C 0.710938 -0.414062 0.625 -0.726562 0.625 -1.15625 L 0.625 -2.851562 L 0.132812 -2.851562 L 0.132812 -3.171875 L 1.179688 -3.171875 L 1.179688 -1.324219 C 1.179688 -0.9375 1.226562 -0.675781 1.320312 -0.53125 C 1.414062 -0.386719 1.582031 -0.316406 1.824219 -0.316406 C 2.082031 -0.316406 2.273438 -0.410156 2.40625 -0.597656 C 2.542969 -0.785156 2.609375 -1.054688 2.609375 -1.410156 L 2.609375 -2.851562 L 2.128906 -2.851562 L 2.128906 -3.171875 M 3.027344 -2.519531 L 3.027344 -2.800781 L 3.035156 -2.796875 C 3.277344 -2.625 3.445312 -2.539062 3.542969 -2.539062 C 3.632812 -2.539062 3.707031 -2.574219 3.761719 -2.640625 C 3.816406 -2.707031 3.847656 -2.792969 3.847656 -2.90625 C 3.847656 -2.960938 3.839844 -3.015625 3.828125 -3.074219 C 3.816406 -3.132812 3.796875 -3.191406 3.769531 -3.25 L 4.148438 -3.246094 C 4.167969 -3.175781 4.183594 -3.105469 4.191406 -3.039062 C 4.199219 -2.972656 4.203125 -2.90625 4.203125 -2.84375 C 4.203125 -2.617188 4.160156 -2.445312 4.070312 -2.320312 C 3.980469 -2.199219 3.855469 -2.136719 3.695312 -2.136719 C 3.597656 -2.136719 3.496094 -2.167969 3.390625 -2.226562 C 3.285156 -2.285156 3.164062 -2.382812 3.027344 -2.519531 Z "/>
</g>
<g id="glyph-0-11">
<path d="M 1.253906 -1.742188 L 1.253906 -1.429688 C 1.253906 -1.046875 1.328125 -0.757812 1.472656 -0.554688 C 1.617188 -0.355469 1.832031 -0.257812 2.109375 -0.257812 C 2.390625 -0.257812 2.601562 -0.367188 2.746094 -0.59375 C 2.890625 -0.820312 2.960938 -1.148438 2.960938 -1.585938 C 2.960938 -2.027344 2.890625 -2.359375 2.746094 -2.582031 C 2.601562 -2.804688 2.390625 -2.914062 2.109375 -2.914062 C 1.832031 -2.914062 1.617188 -2.816406 1.472656 -2.613281 C 1.328125 -2.414062 1.253906 -2.121094 1.253906 -1.742188 M 0.703125 -2.851562 L 0.175781 -2.851562 L 0.175781 -3.171875 L 1.253906 -3.171875 L 1.253906 -2.675781 C 1.359375 -2.875 1.496094 -3.023438 1.664062 -3.117188 C 1.828125 -3.210938 2.035156 -3.257812 2.28125 -3.257812 C 2.667969 -3.257812 2.988281 -3.105469 3.234375 -2.796875 C 3.480469 -2.488281 3.605469 -2.085938 3.605469 -1.585938 C 3.605469 -1.089844 3.480469 -0.6875 3.234375 -0.378906 C 2.988281 -0.0664062 2.667969 0.0859375 2.28125 0.0859375 C 2.035156 0.0859375 1.828125 0.0390625 1.664062 -0.0546875 C 1.496094 -0.148438 1.359375 -0.296875 1.253906 -0.496094 L 1.253906 0.953125 L 1.773438 0.953125 L 1.773438 1.269531 L 0.175781 1.269531 L 0.175781 0.953125 L 0.703125 0.953125 Z "/>
</g>
<g id="glyph-0-12">
<path d="M 0.25 0 L 0.25 -0.316406 L 0.746094 -0.316406 L 0.746094 -4.328125 L 0.222656 -4.328125 L 0.222656 -4.644531 L 1.296875 -4.644531 L 1.296875 -2.609375 C 1.394531 -2.824219 1.527344 -2.984375 1.691406 -3.09375 C 1.851562 -3.203125 2.039062 -3.257812 2.253906 -3.257812 C 2.605469 -3.257812 2.863281 -3.15625 3.027344 -2.957031 C 3.195312 -2.757812 3.277344 -2.441406 3.277344 -2.015625 L 3.277344 -0.316406 L 3.765625 -0.316406 L 3.765625 0 L 2.25 0 L 2.25 -0.316406 L 2.722656 -0.316406 L 2.722656 -1.84375 C 2.722656 -2.230469 2.675781 -2.496094 2.582031 -2.640625 C 2.488281 -2.78125 2.320312 -2.851562 2.078125 -2.851562 C 1.820312 -2.851562 1.628906 -2.761719 1.496094 -2.574219 C 1.363281 -2.390625 1.296875 -2.121094 1.296875 -1.765625 L 1.296875 -0.316406 L 1.773438 -0.316406 L 1.773438 0 Z "/>
</g>
<g id="glyph-0-13">
<path d="M 2.433594 -0.996094 L 2.433594 -1.667969 L 1.722656 -1.667969 C 1.453125 -1.667969 1.25 -1.609375 1.117188 -1.492188 C 0.984375 -1.375 0.914062 -1.195312 0.914062 -0.953125 C 0.914062 -0.730469 0.984375 -0.554688 1.117188 -0.425781 C 1.253906 -0.296875 1.4375 -0.234375 1.667969 -0.234375 C 1.898438 -0.234375 2.082031 -0.304688 2.222656 -0.445312 C 2.363281 -0.585938 2.433594 -0.769531 2.433594 -0.996094 M 2.980469 -1.980469 L 2.980469 -0.316406 L 3.46875 -0.316406 L 3.46875 0 L 2.433594 0 L 2.433594 -0.34375 C 2.308594 -0.195312 2.171875 -0.0859375 2.011719 -0.0195312 C 1.851562 0.0507812 1.664062 0.0859375 1.453125 0.0859375 C 1.101562 0.0859375 0.820312 -0.0078125 0.613281 -0.195312 C 0.40625 -0.382812 0.304688 -0.632812 0.304688 -0.953125 C 0.304688 -1.28125 0.421875 -1.535156 0.660156 -1.714844 C 0.894531 -1.898438 1.230469 -1.988281 1.660156 -1.988281 L 2.433594 -1.988281 L 2.433594 -2.203125 C 2.433594 -2.445312 2.359375 -2.632812 2.210938 -2.765625 C 2.066406 -2.898438 1.859375 -2.960938 1.597656 -2.960938 C 1.378906 -2.960938 1.203125 -2.914062 1.074219 -2.8125 C 0.945312 -2.714844 0.863281 -2.566406 0.832031 -2.371094 L 0.550781 -2.371094 L 0.550781 -3.011719 C 0.738281 -3.09375 0.925781 -3.15625 1.105469 -3.195312 C 1.285156 -3.238281 1.460938 -3.257812 1.632812 -3.257812 C 2.070312 -3.257812 2.40625 -3.148438 2.636719 -2.929688 C 2.867188 -2.714844 2.980469 -2.398438 2.980469 -1.980469 M 1.445312 -4.886719 L 1.949219 -4.886719 L 2.648438 -3.765625 L 2.304688 -3.765625 L 1.699219 -4.542969 L 1.09375 -3.765625 L 0.746094 -3.765625 Z "/>
</g>
<g id="glyph-0-14">
<path d="M 0.25 0 L 0.25 -0.316406 L 0.746094 -0.316406 L 0.746094 -2.851562 L 0.222656 -2.851562 L 0.222656 -3.171875 L 1.296875 -3.171875 L 1.296875 -2.609375 C 1.394531 -2.824219 1.527344 -2.984375 1.691406 -3.09375 C 1.851562 -3.203125 2.039062 -3.257812 2.253906 -3.257812 C 2.605469 -3.257812 2.863281 -3.15625 3.027344 -2.957031 C 3.195312 -2.757812 3.277344 -2.441406 3.277344 -2.015625 L 3.277344 -0.316406 L 3.765625 -0.316406 L 3.765625 0 L 2.25 0 L 2.25 -0.316406 L 2.722656 -0.316406 L 2.722656 -1.84375 C 2.722656 -2.230469 2.675781 -2.496094 2.582031 -2.640625 C 2.484375 -2.785156 2.316406 -2.859375 2.078125 -2.859375 C 1.820312 -2.859375 1.628906 -2.765625 1.496094 -2.578125 C 1.363281 -2.394531 1.296875 -2.121094 1.296875 -1.765625 L 1.296875 -0.316406 L 1.773438 -0.316406 L 1.773438 0 Z "/>
</g>
<g id="glyph-0-15">
<path d="M 0.660156 -2.851562 L 0.175781 -2.851562 L 0.175781 -3.171875 L 0.660156 -3.171875 L 0.660156 -4.15625 L 1.210938 -4.15625 L 1.210938 -3.171875 L 2.242188 -3.171875 L 2.242188 -2.851562 L 1.210938 -2.851562 L 1.210938 -0.839844 C 1.210938 -0.570312 1.238281 -0.398438 1.289062 -0.320312 C 1.339844 -0.246094 1.4375 -0.207031 1.574219 -0.207031 C 1.71875 -0.207031 1.824219 -0.25 1.890625 -0.335938 C 1.953125 -0.421875 1.988281 -0.558594 1.992188 -0.746094 L 2.40625 -0.746094 C 2.390625 -0.457031 2.3125 -0.246094 2.171875 -0.113281 C 2.03125 0.0195312 1.816406 0.0859375 1.527344 0.0859375 C 1.210938 0.0859375 0.988281 0.015625 0.855469 -0.125 C 0.726562 -0.265625 0.660156 -0.503906 0.660156 -0.839844 Z "/>
</g>
<g id="glyph-0-16">
<path d="M 2.433594 -0.996094 L 2.433594 -1.667969 L 1.722656 -1.667969 C 1.453125 -1.667969 1.25 -1.609375 1.117188 -1.492188 C 0.984375 -1.375 0.914062 -1.195312 0.914062 -0.953125 C 0.914062 -0.730469 0.984375 -0.554688 1.117188 -0.425781 C 1.253906 -0.296875 1.4375 -0.234375 1.667969 -0.234375 C 1.898438 -0.234375 2.082031 -0.304688 2.222656 -0.445312 C 2.363281 -0.585938 2.433594 -0.769531 2.433594 -0.996094 M 2.980469 -1.980469 L 2.980469 -0.316406 L 3.46875 -0.316406 L 3.46875 0 L 2.433594 0 L 2.433594 -0.34375 C 2.308594 -0.195312 2.171875 -0.0859375 2.011719 -0.0195312 C 1.851562 0.0507812 1.664062 0.0859375 1.453125 0.0859375 C 1.101562 0.0859375 0.820312 -0.0078125 0.613281 -0.195312 C 0.40625 -0.382812 0.304688 -0.632812 0.304688 -0.953125 C 0.304688 -1.28125 0.421875 -1.535156 0.660156 -1.714844 C 0.894531 -1.898438 1.230469 -1.988281 1.660156 -1.988281 L 2.433594 -1.988281 L 2.433594 -2.203125 C 2.433594 -2.445312 2.359375 -2.632812 2.210938 -2.765625 C 2.066406 -2.898438 1.859375 -2.960938 1.597656 -2.960938 C 1.378906 -2.960938 1.203125 -2.914062 1.074219 -2.8125 C 0.945312 -2.714844 0.863281 -2.566406 0.832031 -2.371094 L 0.550781 -2.371094 L 0.550781 -3.011719 C 0.738281 -3.09375 0.925781 -3.15625 1.105469 -3.195312 C 1.285156 -3.238281 1.460938 -3.257812 1.632812 -3.257812 C 2.070312 -3.257812 2.40625 -3.148438 2.636719 -2.929688 C 2.867188 -2.714844 2.980469 -2.398438 2.980469 -1.980469 M 2.113281 -4.886719 L 2.707031 -4.886719 L 1.691406 -3.765625 L 1.34375 -3.765625 Z "/>
</g>
<g id="glyph-0-17">
<path d="M 3.140625 -0.953125 C 3.0625 -0.613281 2.914062 -0.355469 2.695312 -0.179688 C 2.472656 -0.00390625 2.1875 0.0859375 1.839844 0.0859375 C 1.375 0.0859375 1.003906 -0.0664062 0.726562 -0.371094 C 0.445312 -0.675781 0.304688 -1.082031 0.304688 -1.585938 C 0.304688 -2.09375 0.445312 -2.5 0.726562 -2.804688 C 1.003906 -3.105469 1.375 -3.257812 1.839844 -3.257812 C 2.039062 -3.257812 2.238281 -3.234375 2.4375 -3.1875 C 2.636719 -3.140625 2.835938 -3.070312 3.039062 -2.976562 L 3.039062 -2.164062 L 2.71875 -2.164062 C 2.675781 -2.441406 2.585938 -2.644531 2.445312 -2.773438 C 2.304688 -2.898438 2.105469 -2.960938 1.84375 -2.960938 C 1.546875 -2.960938 1.324219 -2.847656 1.171875 -2.617188 C 1.019531 -2.386719 0.945312 -2.042969 0.945312 -1.585938 C 0.945312 -1.128906 1.019531 -0.785156 1.171875 -0.554688 C 1.320312 -0.324219 1.546875 -0.207031 1.84375 -0.207031 C 2.082031 -0.207031 2.269531 -0.269531 2.410156 -0.394531 C 2.550781 -0.515625 2.648438 -0.703125 2.699219 -0.953125 Z "/>
</g>
<g id="glyph-0-18">
<path d="M 2.433594 -0.996094 L 2.433594 -1.667969 L 1.722656 -1.667969 C 1.453125 -1.667969 1.25 -1.609375 1.117188 -1.492188 C 0.984375 -1.375 0.914062 -1.195312 0.914062 -0.953125 C 0.914062 -0.730469 0.984375 -0.554688 1.117188 -0.425781 C 1.253906 -0.296875 1.4375 -0.234375 1.667969 -0.234375 C 1.898438 -0.234375 2.082031 -0.304688 2.222656 -0.445312 C 2.363281 -0.585938 2.433594 -0.769531 2.433594 -0.996094 M 2.980469 -1.980469 L 2.980469 -0.316406 L 3.46875 -0.316406 L 3.46875 0 L 2.433594 0 L 2.433594 -0.34375 C 2.308594 -0.195312 2.171875 -0.0859375 2.011719 -0.0195312 C 1.851562 0.0507812 1.664062 0.0859375 1.453125 0.0859375 C 1.101562 0.0859375 0.820312 -0.0078125 0.613281 -0.195312 C 0.40625 -0.382812 0.304688 -0.632812 0.304688 -0.953125 C 0.304688 -1.28125 0.421875 -1.535156 0.660156 -1.714844 C 0.894531 -1.898438 1.230469 -1.988281 1.660156 -1.988281 L 2.433594 -1.988281 L 2.433594 -2.203125 C 2.433594 -2.445312 2.359375 -2.632812 2.210938 -2.765625 C 2.066406 -2.898438 1.859375 -2.960938 1.597656 -2.960938 C 1.378906 -2.960938 1.203125 -2.914062 1.074219 -2.8125 C 0.945312 -2.714844 0.863281 -2.566406 0.832031 -2.371094 L 0.550781 -2.371094 L 0.550781 -3.011719 C 0.738281 -3.09375 0.925781 -3.15625 1.105469 -3.195312 C 1.285156 -3.238281 1.460938 -3.257812 1.632812 -3.257812 C 2.070312 -3.257812 2.40625 -3.148438 2.636719 -2.929688 C 2.867188 -2.714844 2.980469 -2.398438 2.980469 -1.980469 Z "/>
</g>
<g id="glyph-0-19">
<path d="M 2.164062 -3.171875 L 3.191406 -3.171875 L 3.191406 -0.316406 L 3.707031 -0.316406 L 3.707031 0 L 2.640625 0 L 2.640625 -0.5625 C 2.539062 -0.351562 2.40625 -0.191406 2.246094 -0.078125 C 2.085938 0.03125 1.898438 0.0859375 1.6875 0.0859375 C 1.332031 0.0859375 1.074219 -0.0117188 0.910156 -0.214844 C 0.742188 -0.414062 0.660156 -0.726562 0.660156 -1.15625 L 0.660156 -2.851562 L 0.164062 -2.851562 L 0.164062 -3.171875 L 1.210938 -3.171875 L 1.210938 -1.324219 C 1.210938 -0.9375 1.257812 -0.675781 1.351562 -0.53125 C 1.449219 -0.386719 1.617188 -0.316406 1.859375 -0.316406 C 2.113281 -0.316406 2.308594 -0.410156 2.441406 -0.597656 C 2.574219 -0.785156 2.640625 -1.054688 2.640625 -1.410156 L 2.640625 -2.851562 L 2.164062 -2.851562 L 2.164062 -3.171875 M 1.925781 0.472656 C 2.023438 0.472656 2.105469 0.503906 2.171875 0.574219 C 2.242188 0.644531 2.277344 0.726562 2.277344 0.820312 C 2.277344 0.921875 2.242188 1.003906 2.179688 1.070312 C 2.113281 1.136719 2.027344 1.167969 1.925781 1.167969 C 1.824219 1.167969 1.742188 1.136719 1.675781 1.070312 C 1.609375 1.003906 1.578125 0.921875 1.578125 0.820312 C 1.578125 0.726562 1.613281 0.644531 1.679688 0.574219 C 1.75 0.503906 1.832031 0.472656 1.925781 0.472656 Z "/>
</g>
<g id="glyph-0-20">
<path d="M 3.164062 -2.554688 C 3.269531 -2.785156 3.40625 -2.960938 3.570312 -3.082031 C 3.734375 -3.199219 3.925781 -3.257812 4.144531 -3.257812 C 4.476562 -3.257812 4.722656 -3.15625 4.886719 -2.949219 C 5.050781 -2.742188 5.132812 -2.433594 5.132812 -2.015625 L 5.132812 -0.316406 L 5.628906 -0.316406 L 5.628906 0 L 4.105469 0 L 4.105469 -0.316406 L 4.582031 -0.316406 L 4.582031 -1.953125 C 4.582031 -2.277344 4.535156 -2.507812 4.441406 -2.648438 C 4.34375 -2.785156 4.1875 -2.851562 3.964844 -2.851562 C 3.722656 -2.851562 3.535156 -2.761719 3.40625 -2.574219 C 3.277344 -2.390625 3.214844 -2.121094 3.214844 -1.765625 L 3.214844 -0.316406 L 3.691406 -0.316406 L 3.691406 0 L 2.1875 0 L 2.1875 -0.316406 L 2.664062 -0.316406 L 2.664062 -1.976562 C 2.664062 -2.292969 2.617188 -2.515625 2.519531 -2.652344 C 2.425781 -2.785156 2.269531 -2.851562 2.046875 -2.851562 C 1.800781 -2.851562 1.617188 -2.761719 1.488281 -2.574219 C 1.359375 -2.390625 1.296875 -2.121094 1.296875 -1.765625 L 1.296875 -0.316406 L 1.773438 -0.316406 L 1.773438 0 L 0.25 0 L 0.25 -0.316406 L 0.746094 -0.316406 L 0.746094 -2.859375 L 0.222656 -2.859375 L 0.222656 -3.171875 L 1.296875 -3.171875 L 1.296875 -2.609375 C 1.394531 -2.820312 1.527344 -2.980469 1.683594 -3.089844 C 1.839844 -3.203125 2.019531 -3.257812 2.21875 -3.257812 C 2.464844 -3.257812 2.667969 -3.195312 2.835938 -3.074219 C 3 -2.953125 3.109375 -2.777344 3.164062 -2.554688 Z "/>
</g>
<g id="glyph-0-21">
<path d="M 1.839844 -0.207031 C 2.132812 -0.207031 2.355469 -0.324219 2.503906 -0.558594 C 2.65625 -0.789062 2.730469 -1.132812 2.730469 -1.585938 C 2.730469 -2.039062 2.65625 -2.382812 2.503906 -2.617188 C 2.355469 -2.847656 2.132812 -2.960938 1.839844 -2.960938 C 1.542969 -2.960938 1.320312 -2.847656 1.171875 -2.617188 C 1.019531 -2.382812 0.945312 -2.039062 0.945312 -1.585938 C 0.945312 -1.132812 1.019531 -0.789062 1.171875 -0.558594 C 1.324219 -0.324219 1.546875 -0.207031 1.839844 -0.207031 M 1.839844 0.0859375 C 1.375 0.0859375 1.003906 -0.0664062 0.726562 -0.371094 C 0.445312 -0.675781 0.304688 -1.082031 0.304688 -1.585938 C 0.304688 -2.09375 0.445312 -2.496094 0.722656 -2.800781 C 1.003906 -3.105469 1.375 -3.257812 1.839844 -3.257812 C 2.300781 -3.257812 2.671875 -3.105469 2.953125 -2.800781 C 3.230469 -2.496094 3.371094 -2.09375 3.371094 -1.585938 C 3.371094 -1.082031 3.230469 -0.675781 2.953125 -0.371094 C 2.671875 -0.0664062 2.300781 0.0859375 1.839844 0.0859375 M 3.140625 -5.171875 L 3.730469 -5.171875 L 2.949219 -4.382812 L 2.597656 -4.382812 L 3.140625 -5.171875 M 1.605469 -4.554688 L 2.128906 -4.554688 L 2.820312 -3.765625 L 2.472656 -3.765625 L 1.867188 -4.246094 L 1.261719 -3.765625 L 0.914062 -3.765625 Z "/>
</g>
<g id="glyph-0-22">
<path d="M 2.433594 -0.996094 L 2.433594 -1.667969 L 1.722656 -1.667969 C 1.453125 -1.667969 1.25 -1.609375 1.117188 -1.492188 C 0.984375 -1.375 0.914062 -1.195312 0.914062 -0.953125 C 0.914062 -0.730469 0.984375 -0.554688 1.117188 -0.425781 C 1.253906 -0.296875 1.4375 -0.234375 1.667969 -0.234375 C 1.898438 -0.234375 2.082031 -0.304688 2.222656 -0.445312 C 2.363281 -0.585938 2.433594 -0.769531 2.433594 -0.996094 M 2.980469 -1.980469 L 2.980469 -0.316406 L 3.46875 -0.316406 L 3.46875 0 L 2.433594 0 L 2.433594 -0.34375 C 2.308594 -0.195312 2.171875 -0.0859375 2.011719 -0.0195312 C 1.851562 0.0507812 1.664062 0.0859375 1.453125 0.0859375 C 1.101562 0.0859375 0.820312 -0.0078125 0.613281 -0.195312 C 0.40625 -0.382812 0.304688 -0.632812 0.304688 -0.953125 C 0.304688 -1.28125 0.421875 -1.535156 0.660156 -1.714844 C 0.894531 -1.898438 1.230469 -1.988281 1.660156 -1.988281 L 2.433594 -1.988281 L 2.433594 -2.203125 C 2.433594 -2.445312 2.359375 -2.632812 2.210938 -2.765625 C 2.066406 -2.898438 1.859375 -2.960938 1.597656 -2.960938 C 1.378906 -2.960938 1.203125 -2.914062 1.074219 -2.8125 C 0.945312 -2.714844 0.863281 -2.566406 0.832031 -2.371094 L 0.550781 -2.371094 L 0.550781 -3.011719 C 0.738281 -3.09375 0.925781 -3.15625 1.105469 -3.195312 C 1.285156 -3.238281 1.460938 -3.257812 1.632812 -3.257812 C 2.070312 -3.257812 2.40625 -3.148438 2.636719 -2.929688 C 2.867188 -2.714844 2.980469 -2.398438 2.980469 -1.980469 M 3.050781 -5.171875 L 3.636719 -5.171875 L 2.855469 -4.382812 L 2.507812 -4.382812 L 3.050781 -5.171875 M 1.511719 -4.554688 L 2.039062 -4.554688 L 2.726562 -3.765625 L 2.382812 -3.765625 L 1.773438 -4.246094 L 1.167969 -3.765625 L 0.824219 -3.765625 Z "/>
</g>
</g>
</defs>
<g fill="rgb(96.862745%, 85.098039%, 43.529412%)" fill-opacity="1">
<use xlink:href="#glyph-0-0" x="30" y="25.671875"/>
<use xlink:href="#glyph-0-1" x="34" y="25.671875"/>
<use xlink:href="#glyph-0-2" x="39" y="25.671875"/>
<use xlink:href="#glyph-0-3" x="43" y="25.671875"/>
<use xlink:href="#glyph-0-4" x="45" y="25.671875"/>
<use xlink:href="#glyph-0-5" x="49" y="25.671875"/>
<use xlink:href="#glyph-0-6" x="51" y="25.671875"/>
<use xlink:href="#glyph-0-3" x="55" y="25.671875"/>
<use xlink:href="#glyph-0-7" x="57" y="25.671875"/>
<use xlink:href="#glyph-0-8" x="59" y="25.671875"/>
<use xlink:href="#glyph-0-5" x="63" y="25.671875"/>
<use xlink:href="#glyph-0-3" x="65" y="25.671875"/>
<use xlink:href="#glyph-0-9" x="67" y="25.671875"/>
<use xlink:href="#glyph-0-10" x="70" y="25.671875"/>
<use xlink:href="#glyph-0-3" x="74" y="25.671875"/>
<use xlink:href="#glyph-0-11" x="76" y="25.671875"/>
<use xlink:href="#glyph-0-12" x="80" y="25.671875"/>
<use xlink:href="#glyph-0-13" x="84" y="25.671875"/>
<use xlink:href="#glyph-0-14" x="88" y="25.671875"/>
<use xlink:href="#glyph-0-3" x="92" y="25.671875"/>
<use xlink:href="#glyph-0-15" x="94" y="25.671875"/>
<use xlink:href="#glyph-0-16" x="96" y="25.671875"/>
<use xlink:href="#glyph-0-17" x="100" y="25.671875"/>
<use xlink:href="#glyph-0-12" x="103" y="25.671875"/>
<use xlink:href="#glyph-0-3" x="107" y="25.671875"/>
<use xlink:href="#glyph-0-4" x="109" y="25.671875"/>
<use xlink:href="#glyph-0-5" x="113" y="25.671875"/>
<use xlink:href="#glyph-0-6" x="115" y="25.671875"/>
<use xlink:href="#glyph-0-18" x="119" y="25.671875"/>
<use xlink:href="#glyph-0-3" x="123" y="25.671875"/>
<use xlink:href="#glyph-0-17" x="125" y="25.671875"/>
<use xlink:href="#glyph-0-16" x="128" y="25.671875"/>
<use xlink:href="#glyph-0-17" x="132" y="25.671875"/>
<use xlink:href="#glyph-0-3" x="135" y="25.671875"/>
<use xlink:href="#glyph-0-17" x="137" y="25.671875"/>
<use xlink:href="#glyph-0-19" x="140" y="25.671875"/>
<use xlink:href="#glyph-0-20" x="144" y="25.671875"/>
<use xlink:href="#glyph-0-3" x="150" y="25.671875"/>
<use xlink:href="#glyph-0-15" x="152" y="25.671875"/>
<use xlink:href="#glyph-0-21" x="154" y="25.671875"/>
<use xlink:href="#glyph-0-15" x="158" y="25.671875"/>
<use xlink:href="#glyph-0-3" x="160" y="25.671875"/>
<use xlink:href="#glyph-0-14" x="162" y="25.671875"/>
<use xlink:href="#glyph-0-12" x="166" y="25.671875"/>
<use xlink:href="#glyph-0-22" x="170" y="25.671875"/>
<use xlink:href="#glyph-0-15" x="174" y="25.671875"/>
</g>
</svg>
