<?xml version="1.0" encoding="UTF-8"?>
<svg xmlns="http://www.w3.org/2000/svg" xmlns:xlink="http://www.w3.org/1999/xlink" width="1920" height="1080" viewBox="0 0 1920 1080">
<defs>
<g>
<g id="glyph-0-0">
<path d="M 3.855469 -4.414062 L 3.90625 -3.378906 L 3.78125 -3.378906 C 3.757812 -3.5625 3.726562 -3.691406 3.683594 -3.769531 C 3.617188 -3.894531 3.527344 -3.988281 3.417969 -4.046875 C 3.304688 -4.109375 3.15625 -4.136719 2.976562 -4.136719 L 2.351562 -4.136719 L 2.351562 -0.765625 C 2.351562 -0.492188 2.382812 -0.324219 2.441406 -0.257812 C 2.523438 -0.164062 2.652344 -0.121094 2.820312 -0.121094 L 2.976562 -0.121094 L 2.976562 0 L 1.101562 0 L 1.101562 -0.121094 L 1.257812 -0.121094 C 1.445312 -0.121094 1.578125 -0.175781 1.65625 -0.289062 C 1.703125 -0.359375 1.726562 -0.515625 1.726562 -0.765625 L 1.726562 -4.136719 L 1.199219 -4.136719 C 0.992188 -4.136719 0.84375 -4.121094 0.757812 -4.09375 C 0.644531 -4.050781 0.550781 -3.972656 0.46875 -3.855469 C 0.386719 -3.738281 0.339844 -3.578125 0.324219 -3.378906 L 0.203125 -3.378906 L 0.253906 -4.414062 Z "/>
</g>
<g id="glyph-0-1">
<path d="M 4.503906 0 L 3.328125 0 L 1.832031 -2.0625 C 1.722656 -2.058594 1.632812 -2.058594 1.5625 -2.058594 C 1.535156 -2.058594 1.503906 -2.058594 1.472656 -2.058594 C 1.4375 -2.058594 1.40625 -2.0625 1.371094 -2.0625 L 1.371094 -0.78125 C 1.371094 -0.503906 1.402344 -0.332031 1.460938 -0.265625 C 1.542969 -0.167969 1.667969 -0.121094 1.832031 -0.121094 L 2.003906 -0.121094 L 2.003906 0 L 0.113281 0 L 0.113281 -0.121094 L 0.28125 -0.121094 C 0.464844 -0.121094 0.601562 -0.179688 0.679688 -0.304688 C 0.726562 -0.371094 0.75 -0.53125 0.75 -0.78125 L 0.75 -3.632812 C 0.75 -3.910156 0.71875 -4.082031 0.65625 -4.148438 C 0.574219 -4.246094 0.445312 -4.292969 0.28125 -4.292969 L 0.113281 -4.292969 L 0.113281 -4.414062 L 1.722656 -4.414062 C 2.191406 -4.414062 2.535156 -4.378906 2.757812 -4.3125 C 2.980469 -4.242188 3.171875 -4.117188 3.324219 -3.933594 C 3.480469 -3.75 3.558594 -3.53125 3.558594 -3.277344 C 3.558594 -3.007812 3.46875 -2.769531 3.292969 -2.570312 C 3.117188 -2.371094 2.839844 -2.230469 2.46875 -2.148438 L 3.382812 -0.882812 C 3.589844 -0.589844 3.769531 -0.398438 3.917969 -0.304688 C 4.070312 -0.207031 4.265625 -0.148438 4.503906 -0.121094 L 4.503906 0 M 1.371094 -2.269531 C 1.410156 -2.269531 1.449219 -2.269531 1.476562 -2.265625 C 1.507812 -2.265625 1.53125 -2.265625 1.550781 -2.265625 C 1.972656 -2.265625 2.292969 -2.355469 2.503906 -2.539062 C 2.71875 -2.722656 2.824219 -2.953125 2.824219 -3.234375 C 2.824219 -3.511719 2.738281 -3.734375 2.566406 -3.90625 C 2.394531 -4.082031 2.164062 -4.167969 1.882812 -4.167969 C 1.753906 -4.167969 1.585938 -4.144531 1.371094 -4.105469 Z "/>
</g>
<g id="glyph-0-2">
<path d="M 4.578125 -4.292969 C 4.40625 -4.292969 4.273438 -4.222656 4.175781 -4.074219 C 4.132812 -4.007812 4.109375 -3.851562 4.109375 -3.605469 L 4.109375 -1.816406 C 4.109375 -1.363281 4.066406 -1.019531 3.976562 -0.785156 C 3.882812 -0.539062 3.710938 -0.328125 3.460938 -0.160156 C 3.203125 0.015625 2.851562 0.105469 2.410156 0.105469 C 1.550781 0.105469 1.007812 -0.203125 0.78125 -0.820312 C 0.710938 -1.011719 0.675781 -1.375 0.675781 -1.90625 L 0.675781 -3.632812 C 0.675781 -3.894531 0.640625 -4.070312 0.5625 -4.167969 C 0.496094 -4.25 0.378906 -4.292969 0.203125 -4.292969 L 0.0351562 -4.292969 L 0.0351562 -4.414062 L 1.941406 -4.414062 L 1.941406 -4.292969 L 1.773438 -4.292969 C 1.589844 -4.292969 1.460938 -4.234375 1.382812 -4.121094 C 1.328125 -4.042969 1.300781 -3.878906 1.300781 -3.632812 L 1.300781 -1.707031 C 1.300781 -1.191406 1.375 -0.820312 1.519531 -0.601562 C 1.707031 -0.316406 2.019531 -0.175781 2.449219 -0.175781 C 2.734375 -0.175781 2.992188 -0.238281 3.222656 -0.363281 C 3.449219 -0.488281 3.605469 -0.648438 3.691406 -0.847656 C 3.773438 -1.042969 3.816406 -1.375 3.816406 -1.84375 L 3.816406 -3.632812 C 3.816406 -3.910156 3.785156 -4.082031 3.722656 -4.148438 C 3.640625 -4.246094 3.511719 -4.292969 3.347656 -4.292969 L 3.179688 -4.292969 L 3.179688 -4.414062 L 4.679688 -4.414062 C 4.757812 -4.414062 4.835938 -4.433594 4.921875 -4.472656 C 4.988281 -4.503906 5.007812 -4.539062 4.984375 -4.578125 C 4.941406 -4.601562 4.882812 -4.652344 4.808594 -4.734375 C 4.765625 -4.808594 4.753906 -4.878906 4.773438 -4.949219 C 4.789062 -5.015625 4.835938 -5.074219 4.914062 -5.117188 C 4.960938 -5.144531 5.007812 -5.160156 5.058594 -5.160156 C 5.1875 -5.160156 5.285156 -5.101562 5.351562 -4.984375 C 5.382812 -4.925781 5.398438 -4.863281 5.398438 -4.796875 C 5.398438 -4.746094 5.390625 -4.695312 5.375 -4.640625 C 5.332031 -4.515625 5.242188 -4.421875 5.101562 -4.367188 C 4.980469 -4.316406 4.839844 -4.292969 4.679688 -4.292969 L 4.578125 -4.292969 M 2.335938 0.390625 C 2.4375 0.390625 2.523438 0.425781 2.589844 0.496094 C 2.660156 0.566406 2.695312 0.652344 2.695312 0.75 C 2.695312 0.851562 2.660156 0.9375 2.589844 1.007812 C 2.519531 1.078125 2.433594 1.113281 2.335938 1.113281 C 2.234375 1.113281 2.148438 1.078125 2.078125 1.007812 C 2.007812 0.9375 1.972656 0.851562 1.972656 0.75 C 1.972656 0.648438 2.007812 0.5625 2.078125 0.496094 C 2.148438 0.425781 2.234375 0.390625 2.335938 0.390625 Z "/>
</g>
<g id="glyph-0-3">
<path d="M 4.015625 -4.515625 L 4.113281 -3.015625 L 4.015625 -3.015625 C 3.878906 -3.464844 3.6875 -3.785156 3.4375 -3.984375 C 3.1875 -4.183594 2.886719 -4.28125 2.539062 -4.28125 C 2.246094 -4.28125 1.980469 -4.207031 1.746094 -4.058594 C 1.507812 -3.910156 1.320312 -3.671875 1.1875 -3.347656 C 1.050781 -3.019531 0.984375 -2.617188 0.984375 -2.132812 C 0.984375 -1.734375 1.046875 -1.386719 1.175781 -1.09375 C 1.304688 -0.800781 1.496094 -0.574219 1.753906 -0.417969 C 2.011719 -0.265625 2.304688 -0.183594 2.632812 -0.183594 C 2.917969 -0.183594 3.171875 -0.246094 3.390625 -0.371094 C 3.609375 -0.492188 3.851562 -0.734375 4.113281 -1.101562 L 4.214844 -1.035156 C 3.992188 -0.640625 3.734375 -0.355469 3.441406 -0.171875 C 3.144531 0.0078125 2.796875 0.101562 2.390625 0.101562 C 1.65625 0.101562 1.089844 -0.171875 0.691406 -0.710938 C 0.390625 -1.117188 0.242188 -1.589844 0.242188 -2.140625 C 0.242188 -2.578125 0.339844 -2.984375 0.539062 -3.351562 C 0.734375 -3.722656 1.007812 -4.007812 1.351562 -4.210938 C 1.699219 -4.414062 2.078125 -4.515625 2.488281 -4.515625 C 2.804688 -4.515625 3.121094 -4.4375 3.429688 -4.28125 C 3.523438 -4.234375 3.585938 -4.210938 3.625 -4.210938 C 3.683594 -4.210938 3.734375 -4.230469 3.777344 -4.269531 C 3.835938 -4.328125 3.875 -4.410156 3.898438 -4.515625 Z "/>
</g>
<g id="glyph-0-4">
</g>
<g id="glyph-0-5">
<path d="M 2.9375 0.046875 C 3.15625 0.429688 3.398438 0.710938 3.652344 0.890625 C 3.910156 1.070312 4.203125 1.175781 4.53125 1.203125 L 4.53125 1.304688 C 4.230469 1.292969 3.910156 1.234375 3.570312 1.125 C 3.230469 1.015625 2.90625 0.863281 2.601562 0.667969 C 2.296875 0.476562 2.035156 0.269531 1.8125 0.046875 C 1.5 -0.078125 1.253906 -0.210938 1.070312 -0.351562 C 0.804688 -0.5625 0.601562 -0.820312 0.453125 -1.128906 C 0.308594 -1.433594 0.234375 -1.796875 0.234375 -2.21875 C 0.234375 -2.875 0.449219 -3.425781 0.875 -3.859375 C 1.304688 -4.296875 1.820312 -4.515625 2.429688 -4.515625 C 3.003906 -4.515625 3.503906 -4.296875 3.925781 -3.859375 C 4.347656 -3.421875 4.5625 -2.871094 4.5625 -2.203125 C 4.5625 -1.664062 4.410156 -1.1875 4.109375 -0.78125 C 3.808594 -0.375 3.417969 -0.0976562 2.9375 0.046875 M 2.390625 -4.265625 C 1.996094 -4.265625 1.675781 -4.125 1.433594 -3.839844 C 1.132812 -3.488281 0.980469 -2.945312 0.980469 -2.21875 C 0.980469 -1.503906 1.132812 -0.953125 1.441406 -0.566406 C 1.679688 -0.269531 1.996094 -0.121094 2.390625 -0.121094 C 2.796875 -0.121094 3.125 -0.269531 3.375 -0.566406 C 3.667969 -0.917969 3.816406 -1.4375 3.816406 -2.121094 C 3.816406 -2.648438 3.734375 -3.09375 3.574219 -3.453125 C 3.449219 -3.730469 3.285156 -3.9375 3.082031 -4.066406 C 2.875 -4.199219 2.644531 -4.265625 2.390625 -4.265625 Z "/>
</g>
<g id="glyph-0-6">
<path d="M 3.179688 -4.292969 L 3.179688 -4.414062 L 4.742188 -4.414062 L 4.742188 -4.292969 L 4.578125 -4.292969 C 4.402344 -4.292969 4.269531 -4.222656 4.175781 -4.074219 C 4.132812 -4.007812 4.109375 -3.851562 4.109375 -3.605469 L 4.109375 -1.816406 C 4.109375 -1.375 4.0625 -1.03125 3.976562 -0.785156 C 3.886719 -0.542969 3.714844 -0.332031 3.457031 -0.15625 C 3.203125 0.015625 2.851562 0.105469 2.410156 0.105469 C 1.925781 0.105469 1.5625 0.0195312 1.3125 -0.148438 C 1.0625 -0.3125 0.886719 -0.539062 0.78125 -0.820312 C 0.710938 -1.011719 0.675781 -1.375 0.675781 -1.90625 L 0.675781 -3.632812 C 0.675781 -3.902344 0.640625 -4.082031 0.566406 -4.167969 C 0.488281 -4.25 0.367188 -4.292969 0.203125 -4.292969 L 0.0351562 -4.292969 L 0.0351562 -4.414062 L 1.941406 -4.414062 L 1.941406 -4.292969 L 1.773438 -4.292969 C 1.589844 -4.292969 1.460938 -4.234375 1.382812 -4.121094 C 1.328125 -4.042969 1.300781 -3.878906 1.300781 -3.632812 L 1.300781 -1.707031 C 1.300781 -1.539062 1.316406 -1.339844 1.347656 -1.121094 C 1.378906 -0.898438 1.4375 -0.726562 1.519531 -0.601562 C 1.601562 -0.476562 1.722656 -0.375 1.875 -0.296875 C 2.03125 -0.214844 2.222656 -0.175781 2.449219 -0.175781 C 2.738281 -0.175781 2.996094 -0.238281 3.222656 -0.363281 C 3.449219 -0.492188 3.605469 -0.652344 3.691406 -0.847656 C 3.773438 -1.042969 3.816406 -1.375 3.816406 -1.84375 L 3.816406 -3.632812 C 3.816406 -3.910156 3.785156 -4.082031 3.722656 -4.148438 C 3.640625 -4.246094 3.511719 -4.292969 3.347656 -4.292969 Z "/>
</g>
<g id="glyph-0-7">
<path d="M 3.050781 -1.476562 L 1.339844 -1.476562 L 1.042969 -0.78125 C 0.96875 -0.609375 0.929688 -0.480469 0.929688 -0.398438 C 0.929688 -0.328125 0.964844 -0.269531 1.027344 -0.21875 C 1.089844 -0.167969 1.230469 -0.136719 1.441406 -0.121094 L 1.441406 0 L 0.0507812 0 L 0.0507812 -0.121094 C 0.238281 -0.152344 0.355469 -0.195312 0.410156 -0.246094 C 0.519531 -0.351562 0.644531 -0.5625 0.777344 -0.882812 L 2.332031 -4.515625 L 2.445312 -4.515625 L 3.980469 -0.84375 C 4.105469 -0.546875 4.21875 -0.355469 4.316406 -0.269531 C 4.417969 -0.179688 4.558594 -0.132812 4.738281 -0.121094 L 4.738281 0 L 2.996094 0 L 2.996094 -0.121094 C 3.171875 -0.128906 3.292969 -0.160156 3.355469 -0.207031 C 3.417969 -0.257812 3.445312 -0.320312 3.445312 -0.390625 C 3.445312 -0.484375 3.402344 -0.636719 3.316406 -0.84375 L 3.050781 -1.476562 M 2.957031 -1.71875 L 2.210938 -3.503906 L 1.441406 -1.71875 Z "/>
</g>
<g id="glyph-0-8">
<path d="M -0.0859375 -4.414062 L 1.109375 -4.414062 L 3.808594 -1.101562 L 3.808594 -3.648438 C 3.808594 -3.921875 3.777344 -4.089844 3.71875 -4.15625 C 3.636719 -4.25 3.511719 -4.292969 3.335938 -4.292969 L 3.183594 -4.292969 L 3.183594 -4.414062 L 4.71875 -4.414062 L 4.71875 -4.292969 L 4.5625 -4.292969 C 4.378906 -4.292969 4.246094 -4.238281 4.167969 -4.125 C 4.117188 -4.054688 4.09375 -3.894531 4.09375 -3.648438 L 4.09375 0.0703125 L 3.976562 0.0703125 L 1.066406 -3.484375 L 1.066406 -0.765625 C 1.066406 -0.492188 1.097656 -0.324219 1.15625 -0.257812 C 1.238281 -0.164062 1.363281 -0.121094 1.535156 -0.121094 L 1.691406 -0.121094 L 1.691406 0 L 0.15625 0 L 0.15625 -0.121094 L 0.308594 -0.121094 C 0.496094 -0.121094 0.632812 -0.175781 0.710938 -0.289062 C 0.757812 -0.359375 0.78125 -0.515625 0.78125 -0.765625 L 0.78125 -3.835938 C 0.652344 -3.984375 0.554688 -4.082031 0.488281 -4.132812 C 0.421875 -4.179688 0.328125 -4.222656 0.199219 -4.265625 C 0.136719 -4.285156 0.0390625 -4.292969 -0.0859375 -4.292969 Z "/>
</g>
<g id="glyph-0-9">
<path d="M 1.371094 -2.367188 L 3.421875 -2.367188 L 3.421875 -3.628906 C 3.421875 -3.855469 3.40625 -4.003906 3.378906 -4.074219 C 3.355469 -4.128906 3.3125 -4.175781 3.242188 -4.214844 C 3.148438 -4.265625 3.050781 -4.292969 2.945312 -4.292969 L 2.789062 -4.292969 L 2.789062 -4.414062 L 4.679688 -4.414062 L 4.679688 -4.292969 L 4.523438 -4.292969 C 4.417969 -4.292969 4.320312 -4.269531 4.226562 -4.21875 C 4.15625 -4.183594 4.109375 -4.132812 4.082031 -4.0625 C 4.058594 -3.992188 4.046875 -3.847656 4.046875 -3.628906 L 4.046875 -0.78125 C 4.046875 -0.558594 4.058594 -0.410156 4.089844 -0.339844 C 4.109375 -0.285156 4.15625 -0.238281 4.222656 -0.199219 C 4.316406 -0.148438 4.417969 -0.121094 4.523438 -0.121094 L 4.679688 -0.121094 L 4.679688 0 L 2.789062 0 L 2.789062 -0.121094 L 2.945312 -0.121094 C 3.125 -0.121094 3.257812 -0.171875 3.339844 -0.28125 C 3.394531 -0.347656 3.421875 -0.515625 3.421875 -0.78125 L 3.421875 -2.125 L 1.371094 -2.125 L 1.371094 -0.78125 C 1.371094 -0.558594 1.382812 -0.410156 1.414062 -0.339844 C 1.433594 -0.285156 1.480469 -0.238281 1.550781 -0.199219 C 1.644531 -0.148438 1.742188 -0.121094 1.84375 -0.121094 L 2.003906 -0.121094 L 2.003906 0 L 0.113281 0 L 0.113281 -0.121094 L 0.269531 -0.121094 C 0.453125 -0.121094 0.585938 -0.171875 0.667969 -0.28125 C 0.71875 -0.347656 0.746094 -0.515625 0.746094 -0.78125 L 0.746094 -3.628906 C 0.746094 -3.855469 0.730469 -4.003906 0.703125 -4.074219 C 0.679688 -4.128906 0.636719 -4.175781 0.570312 -4.214844 C 0.472656 -4.265625 0.375 -4.292969 0.269531 -4.292969 L 0.113281 -4.292969 L 0.113281 -4.414062 L 2.003906 -4.414062 L 2.003906 -4.292969 L 1.84375 -4.292969 C 1.742188 -4.292969 1.644531 -4.269531 1.550781 -4.21875 C 1.480469 -4.183594 1.433594 -4.132812 1.410156 -4.0625 C 1.382812 -3.992188 1.371094 -3.847656 1.371094 -3.628906 Z "/>
</g>
<g id="glyph-0-10">
<path d="M 2.4375 -4.515625 C 3.011719 -4.515625 3.507812 -4.296875 3.925781 -3.863281 C 4.347656 -3.425781 4.558594 -2.882812 4.558594 -2.234375 C 4.558594 -1.5625 4.34375 -1.003906 3.921875 -0.5625 C 3.5 -0.121094 2.988281 0.101562 2.386719 0.101562 C 1.777344 0.101562 1.269531 -0.113281 0.855469 -0.546875 C 0.441406 -0.980469 0.234375 -1.539062 0.234375 -2.222656 C 0.234375 -2.925781 0.472656 -3.496094 0.949219 -3.9375 C 1.363281 -4.324219 1.859375 -4.515625 2.4375 -4.515625 M 2.375 -4.277344 C 1.980469 -4.277344 1.664062 -4.132812 1.425781 -3.835938 C 1.128906 -3.472656 0.980469 -2.9375 0.980469 -2.234375 C 0.980469 -1.515625 1.132812 -0.960938 1.441406 -0.574219 C 1.679688 -0.277344 1.992188 -0.128906 2.378906 -0.128906 C 2.792969 -0.128906 3.136719 -0.292969 3.40625 -0.617188 C 3.675781 -0.9375 3.8125 -1.449219 3.8125 -2.144531 C 3.8125 -2.898438 3.664062 -3.464844 3.367188 -3.835938 C 3.128906 -4.128906 2.796875 -4.277344 2.375 -4.277344 M 3.113281 -5.847656 L 2.15625 -4.726562 L 2.042969 -4.726562 L 2.386719 -5.847656 Z "/>
</g>
<g id="glyph-0-11">
<path d="M 3.054688 -4.515625 L 3.054688 -2.988281 L 2.9375 -2.988281 C 2.898438 -3.28125 2.828125 -3.515625 2.726562 -3.6875 C 2.625 -3.863281 2.480469 -4 2.296875 -4.101562 C 2.109375 -4.203125 1.914062 -4.253906 1.714844 -4.253906 C 1.488281 -4.253906 1.304688 -4.1875 1.15625 -4.046875 C 1.007812 -3.910156 0.933594 -3.753906 0.933594 -3.578125 C 0.933594 -3.441406 0.980469 -3.320312 1.074219 -3.210938 C 1.207031 -3.046875 1.527344 -2.828125 2.035156 -2.558594 C 2.445312 -2.335938 2.726562 -2.167969 2.878906 -2.050781 C 3.03125 -1.929688 3.144531 -1.792969 3.226562 -1.628906 C 3.308594 -1.46875 3.347656 -1.300781 3.347656 -1.125 C 3.347656 -0.792969 3.21875 -0.503906 2.960938 -0.261719 C 2.703125 -0.0195312 2.367188 0.101562 1.960938 0.101562 C 1.832031 0.101562 1.710938 0.0898438 1.597656 0.0703125 C 1.53125 0.0625 1.390625 0.0195312 1.179688 -0.046875 C 0.96875 -0.117188 0.835938 -0.148438 0.777344 -0.148438 C 0.722656 -0.148438 0.679688 -0.132812 0.648438 -0.101562 C 0.617188 -0.0703125 0.59375 0 0.578125 0.101562 L 0.457031 0.101562 L 0.457031 -1.414062 L 0.578125 -1.414062 C 0.636719 -1.097656 0.710938 -0.859375 0.808594 -0.703125 C 0.902344 -0.542969 1.046875 -0.414062 1.246094 -0.308594 C 1.441406 -0.203125 1.65625 -0.152344 1.890625 -0.152344 C 2.164062 -0.152344 2.375 -0.222656 2.535156 -0.367188 C 2.691406 -0.511719 2.769531 -0.679688 2.769531 -0.875 C 2.769531 -0.984375 2.742188 -1.09375 2.679688 -1.203125 C 2.621094 -1.316406 2.527344 -1.417969 2.402344 -1.511719 C 2.316406 -1.578125 2.085938 -1.71875 1.707031 -1.929688 C 1.332031 -2.140625 1.0625 -2.308594 0.902344 -2.433594 C 0.742188 -2.5625 0.621094 -2.699219 0.539062 -2.851562 C 0.457031 -3.003906 0.417969 -3.171875 0.417969 -3.351562 C 0.417969 -3.667969 0.539062 -3.941406 0.78125 -4.171875 C 1.023438 -4.402344 1.332031 -4.515625 1.707031 -4.515625 C 1.941406 -4.515625 2.191406 -4.457031 2.453125 -4.34375 C 2.574219 -4.289062 2.660156 -4.261719 2.710938 -4.261719 C 2.769531 -4.261719 2.8125 -4.277344 2.851562 -4.3125 C 2.886719 -4.34375 2.914062 -4.414062 2.9375 -4.515625 Z "/>
</g>
<g id="glyph-0-12">
<path d="M 4.734375 -4.414062 L 4.734375 -4.292969 C 4.578125 -4.265625 4.457031 -4.214844 4.378906 -4.144531 C 4.261719 -4.039062 4.160156 -3.875 4.070312 -3.65625 L 2.53125 0.101562 L 2.414062 0.101562 L 0.757812 -3.703125 C 0.671875 -3.898438 0.613281 -4.019531 0.578125 -4.0625 C 0.523438 -4.128906 0.457031 -4.183594 0.378906 -4.21875 C 0.300781 -4.257812 0.191406 -4.28125 0.0585938 -4.292969 L 0.0585938 -4.414062 L 1.863281 -4.414062 L 1.863281 -4.292969 C 1.65625 -4.273438 1.527344 -4.238281 1.464844 -4.1875 C 1.402344 -4.140625 1.375 -4.074219 1.375 -3.996094 C 1.375 -3.890625 1.421875 -3.71875 1.523438 -3.488281 L 2.644531 -0.902344 L 3.6875 -3.457031 C 3.789062 -3.707031 3.839844 -3.882812 3.839844 -3.980469 C 3.839844 -4.042969 3.808594 -4.105469 3.746094 -4.160156 C 3.683594 -4.21875 3.578125 -4.261719 3.425781 -4.285156 C 3.417969 -4.285156 3.398438 -4.289062 3.371094 -4.292969 L 3.371094 -4.414062 Z "/>
</g>
<g id="glyph-0-13">
<path d="M 0.113281 0 L 0.113281 -0.121094 L 0.28125 -0.121094 C 0.464844 -0.121094 0.597656 -0.179688 0.675781 -0.300781 C 0.726562 -0.371094 0.75 -0.53125 0.75 -0.78125 L 0.75 -3.632812 C 0.75 -3.910156 0.71875 -4.082031 0.65625 -4.148438 C 0.574219 -4.246094 0.445312 -4.292969 0.28125 -4.292969 L 0.113281 -4.292969 L 0.113281 -4.414062 L 1.910156 -4.414062 C 2.570312 -4.414062 3.074219 -4.339844 3.417969 -4.1875 C 3.761719 -4.039062 4.035156 -3.789062 4.246094 -3.441406 C 4.457031 -3.089844 4.5625 -2.6875 4.5625 -2.230469 C 4.5625 -1.617188 4.375 -1.101562 4 -0.691406 C 3.582031 -0.230469 2.945312 0 2.085938 0 L 0.113281 0 M 1.375 -0.320312 C 1.648438 -0.257812 1.878906 -0.226562 2.066406 -0.226562 C 2.570312 -0.226562 2.988281 -0.40625 3.320312 -0.757812 C 3.652344 -1.113281 3.816406 -1.589844 3.816406 -2.195312 C 3.816406 -2.808594 3.652344 -3.289062 3.320312 -3.640625 C 2.988281 -3.992188 2.5625 -4.167969 2.039062 -4.167969 C 1.84375 -4.167969 1.625 -4.136719 1.375 -4.070312 Z "/>
</g>
<g id="glyph-0-14">
<path d="M 2.070312 1.304688 L 2.070312 1.425781 C 1.742188 1.261719 1.46875 1.066406 1.25 0.847656 C 0.9375 0.53125 0.695312 0.160156 0.527344 -0.265625 C 0.359375 -0.695312 0.273438 -1.136719 0.273438 -1.597656 C 0.273438 -2.269531 0.4375 -2.882812 0.769531 -3.4375 C 1.101562 -3.992188 1.535156 -4.390625 2.070312 -4.628906 L 2.070312 -4.492188 C 1.804688 -4.34375 1.585938 -4.144531 1.414062 -3.886719 C 1.242188 -3.628906 1.113281 -3.304688 1.027344 -2.914062 C 0.945312 -2.519531 0.902344 -2.109375 0.902344 -1.683594 C 0.902344 -1.21875 0.9375 -0.796875 1.007812 -0.417969 C 1.066406 -0.117188 1.132812 0.125 1.214844 0.304688 C 1.292969 0.484375 1.402344 0.660156 1.539062 0.828125 C 1.671875 0.992188 1.851562 1.152344 2.070312 1.304688 Z "/>
</g>
<g id="glyph-0-15">
<path d="M 0.121094 -2.875 L 3.632812 -2.875 L 3.632812 -2.605469 L 0.121094 -2.605469 L 0.121094 -2.875 M 0.121094 -1.8125 L 3.632812 -1.8125 L 3.632812 -1.546875 L 0.121094 -1.546875 Z "/>
</g>
<g id="glyph-0-16">
<path d="M 0.105469 -4.414062 L 3.414062 -4.414062 L 3.503906 -3.304688 L 3.378906 -3.304688 C 3.363281 -3.523438 3.328125 -3.691406 3.269531 -3.808594 C 3.210938 -3.921875 3.128906 -4.007812 3.027344 -4.058594 C 2.925781 -4.109375 2.761719 -4.136719 2.542969 -4.136719 L 1.035156 -4.136719 L 2.378906 -2.414062 L 0.847656 -0.605469 L 2.527344 -0.605469 C 2.828125 -0.605469 3.0625 -0.652344 3.222656 -0.75 C 3.382812 -0.847656 3.503906 -1.054688 3.582031 -1.363281 L 3.707031 -1.335938 L 3.519531 0 L 0.105469 0 L 0.105469 -0.117188 L 1.804688 -2.121094 L 0.105469 -4.296875 Z "/>
</g>
<g id="glyph-0-17">
<path d="M 2.316406 -3.875 L 2.246094 -3.875 C 2.230469 -3.988281 2.210938 -4.066406 2.1875 -4.109375 C 2.109375 -4.257812 1.96875 -4.332031 1.761719 -4.332031 L 1.386719 -4.332031 L 1.386719 -2.308594 C 1.386719 -2.144531 1.402344 -2.042969 1.4375 -2.003906 C 1.488281 -1.949219 1.566406 -1.921875 1.667969 -1.921875 L 1.761719 -1.921875 L 1.761719 -1.847656 L 0.636719 -1.847656 L 0.636719 -1.921875 L 0.730469 -1.921875 C 0.84375 -1.921875 0.921875 -1.957031 0.96875 -2.023438 C 1 -2.066406 1.011719 -2.160156 1.011719 -2.308594 L 1.011719 -4.332031 L 0.691406 -4.332031 C 0.570312 -4.332031 0.484375 -4.324219 0.429688 -4.304688 C 0.273438 -4.246094 0.1875 -4.105469 0.167969 -3.875 L 0.0976562 -3.875 L 0.125 -4.5 L 2.289062 -4.5 Z "/>
</g>
<g id="glyph-0-18">
<path d="M 0.148438 -4.492188 L 0.148438 -4.628906 C 0.480469 -4.464844 0.753906 -4.273438 0.972656 -4.054688 C 1.285156 -3.734375 1.523438 -3.363281 1.691406 -2.9375 C 1.863281 -2.511719 1.945312 -2.066406 1.945312 -1.605469 C 1.945312 -0.933594 1.78125 -0.320312 1.449219 0.234375 C 1.121094 0.789062 0.6875 1.1875 0.148438 1.425781 L 0.148438 1.304688 C 0.417969 1.15625 0.636719 0.953125 0.808594 0.699219 C 0.980469 0.441406 1.109375 0.117188 1.191406 -0.273438 C 1.277344 -0.667969 1.316406 -1.078125 1.316406 -1.507812 C 1.316406 -1.96875 1.28125 -2.390625 1.210938 -2.773438 C 1.15625 -3.074219 1.089844 -3.3125 1.007812 -3.492188 C 0.925781 -3.671875 0.816406 -3.847656 0.683594 -4.015625 C 0.550781 -4.179688 0.371094 -4.339844 0.148438 -4.492188 Z "/>
</g>
</g>
</defs>
<g fill="rgb(100%, 100%, 100%)" fill-opacity="1">
<use xlink:href="#glyph-0-0" x="30" y="25.94043"/>
<use xlink:href="#glyph-0-1" x="34" y="25.94043"/>
<use xlink:href="#glyph-0-2" x="38" y="25.94043"/>
<use xlink:href="#glyph-0-3" x="43" y="25.94043"/>
<use xlink:href="#glyph-0-4" x="47" y="25.94043"/>
<use xlink:href="#glyph-0-5" x="49" y="25.94043"/>
<use xlink:href="#glyph-0-6" x="54" y="25.94043"/>
<use xlink:href="#glyph-0-7" x="59" y="25.94043"/>
<use xlink:href="#glyph-0-8" x="64" y="25.94043"/>
<use xlink:href="#glyph-0-4" x="69" y="25.94043"/>
<use xlink:href="#glyph-0-9" x="71" y="25.94043"/>
<use xlink:href="#glyph-0-10" x="76" y="25.94043"/>
<use xlink:href="#glyph-0-7" x="81" y="25.94043"/>
<use xlink:href="#glyph-0-4" x="85" y="25.94043"/>
<use xlink:href="#glyph-0-11" x="87" y="25.94043"/>
<use xlink:href="#glyph-0-12" x="91" y="25.94043"/>
<use xlink:href="#glyph-0-13" x="96" y="25.94043"/>
<use xlink:href="#glyph-0-4" x="101" y="25.94043"/>
<use xlink:href="#glyph-0-14" x="103" y="25.94043"/>
<use xlink:href="#glyph-0-7" x="105" y="25.94043"/>
<use xlink:href="#glyph-0-4" x="109" y="25.94043"/>
<use xlink:href="#glyph-0-15" x="111" y="25.94043"/>
<use xlink:href="#glyph-0-4" x="115" y="25.94043"/>
<use xlink:href="#glyph-0-6" x="117" y="25.94043"/>
<use xlink:href="#glyph-0-4" x="122" y="25.94043"/>
</g>
<g fill="rgb(100%, 100%, 100%)" fill-opacity="1">
<use xlink:href="#glyph-0-16" x="124" y="25.94043"/>
<use xlink:href="#glyph-0-4" x="128" y="25.94043"/>
</g>
<g fill="rgb(100%, 100%, 100%)" fill-opacity="1">
<use xlink:href="#glyph-0-12" x="130" y="25.94043"/>
<use xlink:href="#glyph-0-17" x="135" y="25.94043"/>
<use xlink:href="#glyph-0-18" x="137" y="25.94043"/>
</g>
</svg>
