<?xml version="1.0" encoding="UTF-8"?>
<svg xmlns="http://www.w3.org/2000/svg" xmlns:xlink="http://www.w3.org/1999/xlink" width="1920" height="1080" viewBox="0 0 1920 1080">
<defs>
<g>
<g id="glyph-0-0">
<path d="M 8.027344 -9.03125 L 8.230469 -6.027344 L 8.027344 -6.027344 C 7.757812 -6.925781 7.375 -7.574219 6.875 -7.96875 C 6.375 -8.363281 5.777344 -8.5625 5.078125 -8.5625 C 4.492188 -8.5625 3.960938 -8.414062 3.488281 -8.117188 C 3.015625 -7.816406 2.644531 -7.34375 2.375 -6.691406 C 2.101562 -6.042969 1.964844 -5.230469 1.964844 -4.265625 C 1.964844 -3.464844 2.09375 -2.773438 2.351562 -2.1875 C 2.605469 -1.601562 2.992188 -1.152344 3.503906 -0.839844 C 4.019531 -0.527344 4.605469 -0.371094 5.265625 -0.371094 C 5.839844 -0.371094 6.34375 -0.492188 6.785156 -0.738281 C 7.222656 -0.984375 7.703125 -1.472656 8.230469 -2.199219 L 8.429688 -2.070312 C 7.988281 -1.285156 7.472656 -0.710938 6.882812 -0.34375 C 6.292969 0.0195312 5.589844 0.203125 4.777344 0.203125 C 3.316406 0.203125 2.183594 -0.339844 1.378906 -1.425781 C 0.78125 -2.234375 0.480469 -3.183594 0.480469 -4.277344 C 0.480469 -5.160156 0.679688 -5.96875 1.074219 -6.707031 C 1.46875 -7.445312 2.011719 -8.015625 2.703125 -8.421875 C 3.398438 -8.828125 4.152344 -9.03125 4.972656 -9.03125 C 5.613281 -9.03125 6.242188 -8.875 6.863281 -8.5625 C 7.042969 -8.464844 7.175781 -8.417969 7.253906 -8.417969 C 7.371094 -8.417969 7.472656 -8.460938 7.558594 -8.542969 C 7.671875 -8.660156 7.75 -8.820312 7.800781 -9.03125 Z "/>
</g>
<g id="glyph-0-1">
<path d="M 2.167969 -9.257812 L 2.167969 -4.894531 C 2.648438 -5.425781 3.03125 -5.765625 3.3125 -5.914062 C 3.597656 -6.0625 3.878906 -6.140625 4.160156 -6.140625 C 4.5 -6.140625 4.789062 -6.046875 5.03125 -5.859375 C 5.277344 -5.671875 5.457031 -5.378906 5.574219 -4.980469 C 5.65625 -4.703125 5.695312 -4.195312 5.695312 -3.457031 L 5.695312 -1.347656 C 5.695312 -0.96875 5.726562 -0.710938 5.789062 -0.574219 C 5.832031 -0.46875 5.90625 -0.386719 6.007812 -0.324219 C 6.113281 -0.265625 6.304688 -0.234375 6.582031 -0.234375 L 6.582031 0 L 3.652344 0 L 3.652344 -0.234375 L 3.789062 -0.234375 C 4.066406 -0.234375 4.261719 -0.277344 4.367188 -0.359375 C 4.476562 -0.445312 4.554688 -0.570312 4.597656 -0.734375 C 4.609375 -0.804688 4.617188 -1.007812 4.617188 -1.347656 L 4.617188 -3.457031 C 4.617188 -4.109375 4.582031 -4.535156 4.515625 -4.738281 C 4.449219 -4.945312 4.339844 -5.097656 4.191406 -5.199219 C 4.046875 -5.300781 3.867188 -5.351562 3.660156 -5.351562 C 3.445312 -5.351562 3.226562 -5.296875 2.996094 -5.183594 C 2.765625 -5.070312 2.488281 -4.839844 2.167969 -4.5 L 2.167969 -1.347656 C 2.167969 -0.941406 2.191406 -0.6875 2.234375 -0.585938 C 2.28125 -0.484375 2.367188 -0.402344 2.492188 -0.335938 C 2.613281 -0.269531 2.828125 -0.234375 3.132812 -0.234375 L 3.132812 0 L 0.175781 0 L 0.175781 -0.234375 C 0.441406 -0.234375 0.648438 -0.277344 0.800781 -0.359375 C 0.886719 -0.402344 0.957031 -0.484375 1.007812 -0.605469 C 1.0625 -0.726562 1.085938 -0.972656 1.085938 -1.347656 L 1.085938 -6.746094 C 1.085938 -7.425781 1.070312 -7.84375 1.039062 -8 C 1.007812 -8.15625 0.957031 -8.265625 0.886719 -8.320312 C 0.820312 -8.375 0.730469 -8.40625 0.617188 -8.40625 C 0.527344 -8.40625 0.378906 -8.371094 0.175781 -8.300781 L 0.0859375 -8.527344 L 1.867188 -9.257812 Z "/>
</g>
<g id="glyph-0-2">
<path d="M 1.933594 -9.257812 C 2.117188 -9.257812 2.269531 -9.195312 2.398438 -9.066406 C 2.527344 -8.9375 2.589844 -8.78125 2.589844 -8.601562 C 2.589844 -8.417969 2.527344 -8.261719 2.398438 -8.132812 C 2.269531 -8 2.117188 -7.9375 1.933594 -7.9375 C 1.75 -7.9375 1.59375 -8 1.464844 -8.132812 C 1.335938 -8.261719 1.269531 -8.417969 1.269531 -8.601562 C 1.269531 -8.78125 1.332031 -8.9375 1.460938 -9.066406 C 1.589844 -9.195312 1.746094 -9.257812 1.933594 -9.257812 M 2.472656 -6.140625 L 2.472656 -1.347656 C 2.472656 -0.972656 2.5 -0.726562 2.554688 -0.601562 C 2.609375 -0.476562 2.691406 -0.386719 2.796875 -0.324219 C 2.902344 -0.265625 3.097656 -0.234375 3.378906 -0.234375 L 3.378906 0 L 0.480469 0 L 0.480469 -0.234375 C 0.773438 -0.234375 0.96875 -0.261719 1.066406 -0.320312 C 1.167969 -0.375 1.246094 -0.46875 1.304688 -0.597656 C 1.363281 -0.730469 1.394531 -0.980469 1.394531 -1.347656 L 1.394531 -3.644531 C 1.394531 -4.292969 1.375 -4.710938 1.335938 -4.902344 C 1.304688 -5.042969 1.257812 -5.136719 1.191406 -5.191406 C 1.125 -5.246094 1.039062 -5.273438 0.925781 -5.273438 C 0.804688 -5.273438 0.65625 -5.242188 0.480469 -5.175781 L 0.390625 -5.410156 L 2.1875 -6.140625 Z "/>
</g>
<g id="glyph-0-3">
<path d="M 1.417969 -3.71875 C 1.414062 -2.832031 1.628906 -2.136719 2.0625 -1.632812 C 2.496094 -1.128906 3.007812 -0.878906 3.59375 -0.878906 C 3.984375 -0.878906 4.324219 -0.984375 4.613281 -1.203125 C 4.902344 -1.414062 5.144531 -1.785156 5.339844 -2.304688 L 5.539062 -2.175781 C 5.449219 -1.578125 5.183594 -1.039062 4.746094 -0.550781 C 4.308594 -0.0625 3.757812 0.183594 3.097656 0.183594 C 2.382812 0.183594 1.769531 -0.0976562 1.257812 -0.652344 C 0.75 -1.210938 0.496094 -1.960938 0.496094 -2.902344 C 0.496094 -3.921875 0.757812 -4.71875 1.277344 -5.289062 C 1.800781 -5.859375 2.457031 -6.144531 3.25 -6.144531 C 3.917969 -6.144531 4.464844 -5.925781 4.894531 -5.484375 C 5.324219 -5.042969 5.539062 -4.457031 5.539062 -3.71875 L 1.417969 -3.71875 M 1.417969 -4.09375 L 4.179688 -4.09375 C 4.15625 -4.476562 4.113281 -4.746094 4.042969 -4.902344 C 3.933594 -5.144531 3.773438 -5.335938 3.558594 -5.476562 C 3.34375 -5.613281 3.117188 -5.683594 2.882812 -5.683594 C 2.523438 -5.683594 2.203125 -5.542969 1.917969 -5.261719 C 1.632812 -4.984375 1.46875 -4.59375 1.417969 -4.09375 M 2.625 -9.015625 L 3.820312 -9.015625 L 5.058594 -6.863281 L 4.855469 -6.863281 L 3.078125 -8.25 L 1.589844 -6.863281 L 1.394531 -6.863281 L 2.625 -9.015625 M 1.679688 -11.882812 L 3.132812 -11.882812 L 3.820312 -9.707031 L 3.59375 -9.707031 Z "/>
</g>
<g id="glyph-0-4">
<path d="M 5.644531 -5.964844 L 5.644531 -2.351562 C 5.644531 -1.660156 5.660156 -1.238281 5.691406 -1.085938 C 5.726562 -0.929688 5.777344 -0.824219 5.847656 -0.761719 C 5.921875 -0.699219 6.003906 -0.671875 6.101562 -0.671875 C 6.234375 -0.671875 6.386719 -0.707031 6.554688 -0.78125 L 6.648438 -0.554688 L 4.863281 0.183594 L 4.570312 0.183594 L 4.570312 -1.082031 C 4.058594 -0.523438 3.667969 -0.175781 3.398438 -0.03125 C 3.128906 0.109375 2.84375 0.183594 2.546875 0.183594 C 2.210938 0.183594 1.921875 0.0859375 1.675781 -0.105469 C 1.429688 -0.300781 1.261719 -0.550781 1.164062 -0.851562 C 1.070312 -1.15625 1.023438 -1.585938 1.023438 -2.140625 L 1.023438 -4.804688 C 1.023438 -5.085938 0.992188 -5.28125 0.929688 -5.390625 C 0.871094 -5.5 0.78125 -5.582031 0.660156 -5.640625 C 0.542969 -5.699219 0.324219 -5.726562 0.0117188 -5.722656 L 0.0117188 -5.964844 L 2.101562 -5.964844 L 2.101562 -1.972656 C 2.101562 -1.417969 2.199219 -1.050781 2.390625 -0.878906 C 2.585938 -0.707031 2.820312 -0.617188 3.09375 -0.617188 C 3.277344 -0.617188 3.492188 -0.675781 3.726562 -0.792969 C 3.964844 -0.910156 4.246094 -1.136719 4.570312 -1.464844 L 4.570312 -4.84375 C 4.570312 -5.183594 4.507812 -5.410156 4.382812 -5.53125 C 4.261719 -5.648438 4.003906 -5.714844 3.613281 -5.722656 L 3.613281 -5.964844 Z "/>
</g>
<g id="glyph-0-5">
</g>
<g id="glyph-0-6">
<path d="M 5.480469 -2.265625 C 5.320312 -1.480469 5.007812 -0.875 4.539062 -0.453125 C 4.070312 -0.03125 3.550781 0.183594 2.980469 0.183594 C 2.304688 0.183594 1.714844 -0.101562 1.210938 -0.671875 C 0.707031 -1.238281 0.457031 -2.007812 0.457031 -2.976562 C 0.457031 -3.914062 0.734375 -4.675781 1.292969 -5.261719 C 1.851562 -5.847656 2.519531 -6.140625 3.300781 -6.140625 C 3.886719 -6.140625 4.367188 -5.984375 4.746094 -5.671875 C 5.125 -5.363281 5.3125 -5.042969 5.3125 -4.707031 C 5.3125 -4.542969 5.257812 -4.410156 5.152344 -4.304688 C 5.046875 -4.203125 4.898438 -4.152344 4.707031 -4.152344 C 4.449219 -4.152344 4.257812 -4.234375 4.128906 -4.402344 C 4.054688 -4.492188 4.003906 -4.664062 3.980469 -4.921875 C 3.957031 -5.179688 3.871094 -5.375 3.71875 -5.507812 C 3.566406 -5.636719 3.355469 -5.703125 3.085938 -5.703125 C 2.652344 -5.703125 2.300781 -5.542969 2.039062 -5.222656 C 1.6875 -4.796875 1.511719 -4.234375 1.511719 -3.535156 C 1.511719 -2.824219 1.683594 -2.195312 2.035156 -1.648438 C 2.382812 -1.105469 2.855469 -0.832031 3.449219 -0.832031 C 3.875 -0.832031 4.257812 -0.980469 4.597656 -1.269531 C 4.835938 -1.46875 5.066406 -1.832031 5.292969 -2.355469 Z "/>
</g>
<g id="glyph-0-7">
<path d="M 3.796875 -0.859375 C 3.183594 -0.386719 2.800781 -0.113281 2.644531 -0.0390625 C 2.410156 0.0703125 2.160156 0.125 1.894531 0.125 C 1.480469 0.125 1.140625 -0.015625 0.875 -0.300781 C 0.609375 -0.582031 0.476562 -0.953125 0.476562 -1.414062 C 0.476562 -1.703125 0.539062 -1.957031 0.671875 -2.167969 C 0.847656 -2.464844 1.15625 -2.742188 1.597656 -3 C 2.039062 -3.261719 2.769531 -3.578125 3.796875 -3.953125 L 3.796875 -4.1875 C 3.796875 -4.78125 3.699219 -5.1875 3.511719 -5.410156 C 3.324219 -5.632812 3.050781 -5.742188 2.6875 -5.742188 C 2.414062 -5.742188 2.199219 -5.667969 2.039062 -5.519531 C 1.871094 -5.375 1.789062 -5.203125 1.789062 -5.011719 L 1.804688 -4.636719 C 1.804688 -4.4375 1.753906 -4.28125 1.648438 -4.171875 C 1.546875 -4.066406 1.414062 -4.011719 1.25 -4.011719 C 1.089844 -4.011719 0.957031 -4.066406 0.855469 -4.179688 C 0.753906 -4.292969 0.703125 -4.445312 0.703125 -4.640625 C 0.703125 -5.015625 0.894531 -5.359375 1.277344 -5.671875 C 1.65625 -5.984375 2.195312 -6.140625 2.882812 -6.140625 C 3.414062 -6.140625 3.847656 -6.050781 4.1875 -5.871094 C 4.441406 -5.738281 4.632812 -5.527344 4.753906 -5.242188 C 4.832031 -5.054688 4.871094 -4.671875 4.871094 -4.09375 L 4.871094 -2.070312 C 4.871094 -1.5 4.878906 -1.152344 4.902344 -1.023438 C 4.925781 -0.898438 4.960938 -0.8125 5.007812 -0.769531 C 5.058594 -0.726562 5.117188 -0.703125 5.183594 -0.703125 C 5.25 -0.703125 5.3125 -0.71875 5.363281 -0.75 C 5.457031 -0.804688 5.632812 -0.964844 5.890625 -1.222656 L 5.890625 -0.859375 C 5.40625 -0.207031 4.941406 0.117188 4.5 0.117188 C 4.285156 0.117188 4.117188 0.0429688 3.992188 -0.105469 C 3.863281 -0.25 3.800781 -0.503906 3.796875 -0.859375 M 3.796875 -1.28125 L 3.796875 -3.554688 C 3.140625 -3.292969 2.71875 -3.109375 2.527344 -3 C 2.183594 -2.808594 1.9375 -2.609375 1.789062 -2.402344 C 1.644531 -2.195312 1.570312 -1.964844 1.570312 -1.71875 C 1.570312 -1.40625 1.664062 -1.148438 1.847656 -0.941406 C 2.035156 -0.734375 2.25 -0.632812 2.492188 -0.632812 C 2.824219 -0.632812 3.257812 -0.847656 3.796875 -1.28125 Z "/>
</g>
<g id="glyph-0-8">
<path d="M 3.332031 -6.140625 C 4.234375 -6.140625 4.960938 -5.796875 5.507812 -5.109375 C 5.972656 -4.523438 6.203125 -3.851562 6.203125 -3.09375 C 6.203125 -2.558594 6.078125 -2.019531 5.820312 -1.472656 C 5.5625 -0.925781 5.210938 -0.511719 4.761719 -0.234375 C 4.3125 0.0429688 3.8125 0.183594 3.261719 0.183594 C 2.363281 0.183594 1.648438 -0.175781 1.121094 -0.890625 C 0.671875 -1.496094 0.449219 -2.171875 0.449219 -2.921875 C 0.449219 -3.46875 0.585938 -4.015625 0.855469 -4.554688 C 1.128906 -5.09375 1.484375 -5.492188 1.925781 -5.75 C 2.371094 -6.011719 2.839844 -6.140625 3.332031 -6.140625 M 3.132812 -5.714844 C 2.902344 -5.714844 2.671875 -5.648438 2.4375 -5.511719 C 2.207031 -5.375 2.019531 -5.132812 1.875 -4.792969 C 1.730469 -4.449219 1.660156 -4.007812 1.660156 -3.46875 C 1.660156 -2.601562 1.832031 -1.851562 2.179688 -1.222656 C 2.523438 -0.59375 2.976562 -0.28125 3.542969 -0.28125 C 3.960938 -0.28125 4.308594 -0.453125 4.582031 -0.800781 C 4.855469 -1.148438 4.992188 -1.746094 4.992188 -2.589844 C 4.992188 -3.648438 4.765625 -4.484375 4.308594 -5.089844 C 4 -5.507812 3.609375 -5.714844 3.132812 -5.714844 Z "/>
</g>
<g id="glyph-0-9">
<path d="M 4.140625 2.609375 L 4.140625 2.851562 C 3.484375 2.523438 2.9375 2.136719 2.5 1.691406 C 1.875 1.0625 1.394531 0.320312 1.054688 -0.535156 C 0.714844 -1.390625 0.546875 -2.277344 0.546875 -3.195312 C 0.546875 -4.542969 0.878906 -5.769531 1.542969 -6.878906 C 2.207031 -7.988281 3.074219 -8.78125 4.140625 -9.257812 L 4.140625 -8.984375 C 3.605469 -8.6875 3.167969 -8.285156 2.824219 -7.773438 C 2.484375 -7.261719 2.226562 -6.613281 2.058594 -5.828125 C 1.886719 -5.042969 1.804688 -4.222656 1.804688 -3.367188 C 1.804688 -2.4375 1.875 -1.59375 2.019531 -0.832031 C 2.132812 -0.234375 2.269531 0.246094 2.429688 0.609375 C 2.589844 0.972656 2.804688 1.320312 3.074219 1.652344 C 3.347656 1.988281 3.703125 2.308594 4.140625 2.609375 Z "/>
</g>
<g id="glyph-0-10">
<path d="M 2.1875 -4.871094 C 2.621094 -5.304688 2.878906 -5.554688 2.957031 -5.617188 C 3.152344 -5.785156 3.363281 -5.910156 3.585938 -6.003906 C 3.8125 -6.09375 4.035156 -6.140625 4.257812 -6.140625 C 4.632812 -6.140625 4.953125 -6.03125 5.222656 -5.8125 C 5.492188 -5.597656 5.671875 -5.28125 5.761719 -4.871094 C 6.207031 -5.390625 6.585938 -5.730469 6.894531 -5.894531 C 7.203125 -6.058594 7.519531 -6.140625 7.84375 -6.140625 C 8.160156 -6.140625 8.441406 -6.058594 8.6875 -5.894531 C 8.933594 -5.730469 9.128906 -5.464844 9.269531 -5.097656 C 9.367188 -4.847656 9.414062 -4.449219 9.414062 -3.914062 L 9.414062 -1.347656 C 9.414062 -0.972656 9.441406 -0.71875 9.5 -0.578125 C 9.542969 -0.484375 9.621094 -0.402344 9.738281 -0.335938 C 9.855469 -0.269531 10.046875 -0.234375 10.3125 -0.234375 L 10.3125 0 L 7.371094 0 L 7.371094 -0.234375 L 7.492188 -0.234375 C 7.75 -0.234375 7.949219 -0.285156 8.09375 -0.382812 C 8.191406 -0.453125 8.265625 -0.5625 8.308594 -0.714844 C 8.324219 -0.789062 8.332031 -1 8.332031 -1.347656 L 8.332031 -3.914062 C 8.332031 -4.398438 8.273438 -4.742188 8.15625 -4.941406 C 7.988281 -5.21875 7.71875 -5.359375 7.34375 -5.359375 C 7.113281 -5.359375 6.882812 -5.300781 6.648438 -5.183594 C 6.417969 -5.070312 6.136719 -4.855469 5.808594 -4.542969 L 5.792969 -4.472656 L 5.808594 -4.191406 L 5.808594 -1.347656 C 5.808594 -0.941406 5.828125 -0.6875 5.875 -0.585938 C 5.921875 -0.484375 6.007812 -0.402344 6.132812 -0.335938 C 6.257812 -0.269531 6.472656 -0.234375 6.777344 -0.234375 L 6.777344 0 L 3.761719 0 L 3.761719 -0.234375 C 4.09375 -0.234375 4.320312 -0.273438 4.445312 -0.351562 C 4.566406 -0.429688 4.652344 -0.546875 4.699219 -0.703125 C 4.722656 -0.777344 4.734375 -0.992188 4.734375 -1.347656 L 4.734375 -3.914062 C 4.734375 -4.398438 4.660156 -4.75 4.519531 -4.960938 C 4.328125 -5.238281 4.058594 -5.378906 3.71875 -5.378906 C 3.484375 -5.378906 3.25 -5.316406 3.019531 -5.1875 C 2.660156 -4.996094 2.382812 -4.78125 2.1875 -4.542969 L 2.1875 -1.347656 C 2.1875 -0.957031 2.214844 -0.703125 2.269531 -0.585938 C 2.324219 -0.46875 2.402344 -0.378906 2.507812 -0.320312 C 2.617188 -0.265625 2.832031 -0.234375 3.15625 -0.234375 L 3.15625 0 L 0.207031 0 L 0.207031 -0.234375 C 0.480469 -0.234375 0.671875 -0.265625 0.78125 -0.320312 C 0.890625 -0.378906 0.972656 -0.472656 1.027344 -0.601562 C 1.085938 -0.730469 1.113281 -0.980469 1.113281 -1.347656 L 1.113281 -3.625 C 1.113281 -4.28125 1.09375 -4.703125 1.054688 -4.894531 C 1.023438 -5.039062 0.976562 -5.136719 0.910156 -5.191406 C 0.847656 -5.246094 0.757812 -5.273438 0.644531 -5.273438 C 0.523438 -5.273438 0.378906 -5.242188 0.207031 -5.175781 L 0.109375 -5.410156 L 1.90625 -6.140625 L 2.1875 -6.140625 Z "/>
</g>
<g id="glyph-0-11">
<path d="M 0.300781 -8.984375 L 0.300781 -9.257812 C 0.960938 -8.933594 1.507812 -8.546875 1.945312 -8.105469 C 2.566406 -7.472656 3.046875 -6.726562 3.386719 -5.875 C 3.722656 -5.023438 3.894531 -4.132812 3.894531 -3.210938 C 3.894531 -1.863281 3.5625 -0.636719 2.898438 0.472656 C 2.238281 1.582031 1.371094 2.375 0.300781 2.851562 L 0.300781 2.609375 C 0.832031 2.3125 1.273438 1.90625 1.617188 1.394531 C 1.960938 0.886719 2.21875 0.238281 2.386719 -0.550781 C 2.554688 -1.335938 2.636719 -2.160156 2.636719 -3.015625 C 2.636719 -3.9375 2.566406 -4.78125 2.421875 -5.546875 C 2.3125 -6.144531 2.179688 -6.625 2.015625 -6.984375 C 1.851562 -7.347656 1.636719 -7.691406 1.367188 -8.027344 C 1.097656 -8.363281 0.742188 -8.679688 0.300781 -8.984375 Z "/>
</g>
</g>
</defs>
<g fill="rgb(100%, 100%, 100%)" fill-opacity="1">
<use xlink:href="#glyph-0-0" x="30" y="31.880859"/>
<use xlink:href="#glyph-0-1" x="39" y="31.880859"/>
<use xlink:href="#glyph-0-2" x="46" y="31.880859"/>
<use xlink:href="#glyph-0-3" x="50" y="31.880859"/>
<use xlink:href="#glyph-0-4" x="56" y="31.880859"/>
<use xlink:href="#glyph-0-5" x="63" y="31.880859"/>
<use xlink:href="#glyph-0-6" x="66" y="31.880859"/>
<use xlink:href="#glyph-0-7" x="72" y="31.880859"/>
<use xlink:href="#glyph-0-8" x="78" y="31.880859"/>
<use xlink:href="#glyph-0-5" x="85" y="31.880859"/>
<use xlink:href="#glyph-0-9" x="88" y="31.880859"/>
<use xlink:href="#glyph-0-6" x="92" y="31.880859"/>
<use xlink:href="#glyph-0-10" x="98" y="31.880859"/>
<use xlink:href="#glyph-0-11" x="108" y="31.880859"/>
</g>
</svg>
