<?xml version="1.0" encoding="UTF-8"?>
<svg xmlns="http://www.w3.org/2000/svg" xmlns:xlink="http://www.w3.org/1999/xlink" width="1920" height="1080" viewBox="0 0 1920 1080">
<defs>
<g>
<g id="glyph-0-0">
<path d="M 3.207031 -0.316406 L 3.734375 -0.316406 L 3.734375 0 L 2.660156 0 L 2.660156 -0.496094 C 2.550781 -0.296875 2.414062 -0.148438 2.25 -0.0546875 C 2.082031 0.0390625 1.875 0.0859375 1.632812 0.0859375 C 1.242188 0.0859375 0.921875 -0.0664062 0.675781 -0.378906 C 0.429688 -0.6875 0.304688 -1.089844 0.304688 -1.585938 C 0.304688 -2.085938 0.425781 -2.488281 0.675781 -2.796875 C 0.921875 -3.105469 1.242188 -3.257812 1.632812 -3.257812 C 1.875 -3.257812 2.082031 -3.210938 2.25 -3.117188 C 2.414062 -3.023438 2.550781 -2.875 2.660156 -2.675781 L 2.660156 -3.660156 L 1.6875 -3.660156 L 1.6875 -3.976562 L 2.660156 -3.976562 L 2.660156 -4.328125 L 2.140625 -4.328125 L 2.140625 -4.644531 L 3.207031 -4.644531 L 3.207031 -3.976562 L 3.734375 -3.976562 L 3.734375 -3.660156 L 3.207031 -3.660156 L 3.207031 -0.316406 M 2.660156 -1.429688 L 2.660156 -1.742188 C 2.660156 -2.121094 2.585938 -2.414062 2.4375 -2.613281 C 2.292969 -2.816406 2.082031 -2.914062 1.800781 -2.914062 C 1.519531 -2.914062 1.304688 -2.804688 1.164062 -2.582031 C 1.019531 -2.359375 0.945312 -2.027344 0.945312 -1.585938 C 0.945312 -1.148438 1.019531 -0.820312 1.164062 -0.59375 C 1.304688 -0.367188 1.519531 -0.257812 1.800781 -0.257812 C 2.082031 -0.257812 2.292969 -0.355469 2.4375 -0.554688 C 2.585938 -0.757812 2.660156 -1.046875 2.660156 -1.429688 Z "/>
</g>
<g id="glyph-0-1">
<path d="M 1.683594 -4.554688 L 2.207031 -4.554688 L 2.898438 -3.769531 L 2.550781 -3.769531 L 1.945312 -4.25 L 1.339844 -3.769531 L 0.992188 -3.769531 L 1.683594 -4.554688 M 2.917969 -5.527344 C 3.285156 -5.527344 3.511719 -5.414062 3.59375 -5.195312 C 3.617188 -5.140625 3.628906 -5.082031 3.628906 -5.019531 C 3.628906 -4.921875 3.597656 -4.816406 3.53125 -4.707031 C 3.433594 -4.53125 3.316406 -4.402344 3.179688 -4.324219 L 3.179688 -4.085938 L 2.738281 -4.085938 L 2.738281 -4.421875 C 2.953125 -4.53125 3.089844 -4.613281 3.144531 -4.671875 C 3.195312 -4.726562 3.222656 -4.792969 3.222656 -4.871094 C 3.222656 -4.992188 3.167969 -5.078125 3.0625 -5.125 C 3.003906 -5.152344 2.9375 -5.164062 2.855469 -5.164062 C 2.710938 -5.164062 2.554688 -5.132812 2.394531 -5.0625 L 2.394531 -5.453125 C 2.480469 -5.488281 2.621094 -5.511719 2.8125 -5.523438 C 2.851562 -5.523438 2.886719 -5.527344 2.917969 -5.527344 M 3.3125 -1.527344 L 0.945312 -1.527344 L 0.945312 -1.503906 C 0.945312 -1.074219 1.027344 -0.753906 1.1875 -0.535156 C 1.347656 -0.316406 1.585938 -0.207031 1.902344 -0.207031 C 2.140625 -0.207031 2.339844 -0.273438 2.492188 -0.398438 C 2.648438 -0.523438 2.753906 -0.710938 2.816406 -0.960938 L 3.257812 -0.960938 C 3.171875 -0.613281 3.007812 -0.351562 2.773438 -0.175781 C 2.539062 0 2.226562 0.0859375 1.84375 0.0859375 C 1.378906 0.0859375 1.007812 -0.0664062 0.726562 -0.371094 C 0.445312 -0.675781 0.304688 -1.082031 0.304688 -1.585938 C 0.304688 -2.089844 0.441406 -2.492188 0.71875 -2.796875 C 0.996094 -3.105469 1.359375 -3.257812 1.808594 -3.257812 C 2.289062 -3.257812 2.65625 -3.109375 2.914062 -2.816406 C 3.167969 -2.519531 3.300781 -2.089844 3.3125 -1.527344 M 2.664062 -1.84375 C 2.652344 -2.214844 2.574219 -2.492188 2.429688 -2.679688 C 2.285156 -2.867188 2.078125 -2.960938 1.808594 -2.960938 C 1.554688 -2.960938 1.355469 -2.867188 1.210938 -2.679688 C 1.066406 -2.492188 0.976562 -2.210938 0.945312 -1.84375 Z "/>
</g>
<g id="glyph-0-2">
</g>
<g id="glyph-0-3">
<path d="M 1.777344 -1.9375 L 2.445312 -2.851562 L 2.015625 -2.851562 L 2.015625 -3.171875 L 3.238281 -3.171875 L 3.238281 -2.851562 L 2.816406 -2.851562 L 1.964844 -1.679688 L 2.957031 -0.316406 L 3.371094 -0.316406 L 3.371094 0 L 1.90625 0 L 1.90625 -0.316406 L 2.308594 -0.316406 L 1.621094 -1.265625 L 0.929688 -0.316406 L 1.339844 -0.316406 L 1.339844 0 L 0.132812 0 L 0.132812 -0.316406 L 0.554688 -0.316406 L 1.429688 -1.523438 L 0.464844 -2.851562 L 0.0742188 -2.851562 L 0.0742188 -3.171875 L 1.492188 -3.171875 L 1.492188 -2.851562 L 1.113281 -2.851562 Z "/>
</g>
<g id="glyph-0-4">
<path d="M 2.433594 -0.996094 L 2.433594 -1.667969 L 1.722656 -1.667969 C 1.453125 -1.667969 1.25 -1.609375 1.117188 -1.492188 C 0.984375 -1.375 0.914062 -1.195312 0.914062 -0.953125 C 0.914062 -0.730469 0.984375 -0.554688 1.117188 -0.425781 C 1.253906 -0.296875 1.4375 -0.234375 1.667969 -0.234375 C 1.898438 -0.234375 2.082031 -0.304688 2.222656 -0.445312 C 2.363281 -0.585938 2.433594 -0.769531 2.433594 -0.996094 M 2.980469 -1.980469 L 2.980469 -0.316406 L 3.46875 -0.316406 L 3.46875 0 L 2.433594 0 L 2.433594 -0.34375 C 2.308594 -0.195312 2.171875 -0.0859375 2.011719 -0.0195312 C 1.851562 0.0507812 1.664062 0.0859375 1.453125 0.0859375 C 1.101562 0.0859375 0.820312 -0.0078125 0.613281 -0.195312 C 0.40625 -0.382812 0.304688 -0.632812 0.304688 -0.953125 C 0.304688 -1.28125 0.421875 -1.535156 0.660156 -1.714844 C 0.894531 -1.898438 1.230469 -1.988281 1.660156 -1.988281 L 2.433594 -1.988281 L 2.433594 -2.203125 C 2.433594 -2.445312 2.359375 -2.632812 2.210938 -2.765625 C 2.066406 -2.898438 1.859375 -2.960938 1.597656 -2.960938 C 1.378906 -2.960938 1.203125 -2.914062 1.074219 -2.8125 C 0.945312 -2.714844 0.863281 -2.566406 0.832031 -2.371094 L 0.550781 -2.371094 L 0.550781 -3.011719 C 0.738281 -3.09375 0.925781 -3.15625 1.105469 -3.195312 C 1.285156 -3.238281 1.460938 -3.257812 1.632812 -3.257812 C 2.070312 -3.257812 2.40625 -3.148438 2.636719 -2.929688 C 2.867188 -2.714844 2.980469 -2.398438 2.980469 -1.980469 M 1.445312 -4.886719 L 1.949219 -4.886719 L 2.648438 -3.765625 L 2.304688 -3.765625 L 1.699219 -4.542969 L 1.09375 -3.765625 L 0.746094 -3.765625 Z "/>
</g>
<g id="glyph-0-5">
<path d="M 1.320312 0.582031 L 1.527344 0.0546875 L 0.34375 -2.851562 L -0.0195312 -2.851562 L -0.0195312 -3.171875 L 1.441406 -3.171875 L 1.441406 -2.851562 L 0.933594 -2.851562 L 1.824219 -0.671875 L 2.71875 -2.851562 L 2.242188 -2.851562 L 2.242188 -3.171875 L 3.433594 -3.171875 L 3.433594 -2.851562 L 3.078125 -2.851562 L 1.625 0.714844 C 1.527344 0.960938 1.417969 1.132812 1.296875 1.222656 C 1.171875 1.3125 1.003906 1.359375 0.78125 1.359375 C 0.6875 1.359375 0.59375 1.351562 0.492188 1.332031 C 0.394531 1.316406 0.296875 1.296875 0.195312 1.265625 L 0.195312 0.660156 L 0.476562 0.660156 C 0.488281 0.792969 0.523438 0.890625 0.582031 0.949219 C 0.636719 1.007812 0.726562 1.039062 0.84375 1.039062 C 0.953125 1.039062 1.042969 1.007812 1.109375 0.949219 C 1.175781 0.886719 1.246094 0.765625 1.320312 0.582031 Z "/>
</g>
<g id="glyph-0-6">
<path d="M 3.207031 -0.316406 L 3.734375 -0.316406 L 3.734375 0 L 2.660156 0 L 2.660156 -0.496094 C 2.550781 -0.296875 2.414062 -0.148438 2.25 -0.0546875 C 2.082031 0.0390625 1.875 0.0859375 1.632812 0.0859375 C 1.242188 0.0859375 0.921875 -0.0664062 0.675781 -0.378906 C 0.429688 -0.6875 0.304688 -1.089844 0.304688 -1.585938 C 0.304688 -2.085938 0.425781 -2.488281 0.675781 -2.796875 C 0.921875 -3.105469 1.242188 -3.257812 1.632812 -3.257812 C 1.875 -3.257812 2.082031 -3.210938 2.25 -3.117188 C 2.414062 -3.023438 2.550781 -2.875 2.660156 -2.675781 L 2.660156 -4.328125 L 2.140625 -4.328125 L 2.140625 -4.644531 L 3.207031 -4.644531 L 3.207031 -0.316406 M 2.660156 -1.429688 L 2.660156 -1.742188 C 2.660156 -2.121094 2.585938 -2.414062 2.4375 -2.613281 C 2.292969 -2.816406 2.082031 -2.914062 1.800781 -2.914062 C 1.519531 -2.914062 1.304688 -2.804688 1.164062 -2.582031 C 1.019531 -2.359375 0.945312 -2.027344 0.945312 -1.585938 C 0.945312 -1.148438 1.019531 -0.820312 1.164062 -0.59375 C 1.304688 -0.367188 1.519531 -0.257812 1.800781 -0.257812 C 2.082031 -0.257812 2.292969 -0.355469 2.4375 -0.554688 C 2.585938 -0.757812 2.660156 -1.046875 2.660156 -1.429688 Z "/>
</g>
<g id="glyph-0-7">
<path d="M 1.925781 0.472656 C 2.023438 0.472656 2.105469 0.503906 2.171875 0.574219 C 2.242188 0.644531 2.277344 0.726562 2.277344 0.820312 C 2.277344 0.921875 2.242188 1.003906 2.179688 1.070312 C 2.113281 1.136719 2.027344 1.167969 1.925781 1.167969 C 1.824219 1.167969 1.742188 1.136719 1.675781 1.070312 C 1.609375 1.003906 1.578125 0.921875 1.578125 0.820312 C 1.578125 0.726562 1.613281 0.644531 1.679688 0.574219 C 1.75 0.503906 1.832031 0.472656 1.925781 0.472656 M 2.128906 -3.171875 L 3.15625 -3.171875 L 3.15625 -0.316406 L 3.675781 -0.316406 L 3.675781 0 L 2.609375 0 L 2.609375 -0.5625 C 2.507812 -0.351562 2.375 -0.191406 2.214844 -0.078125 C 2.054688 0.03125 1.867188 0.0859375 1.652344 0.0859375 C 1.300781 0.0859375 1.042969 -0.0117188 0.875 -0.214844 C 0.710938 -0.414062 0.625 -0.726562 0.625 -1.15625 L 0.625 -2.851562 L 0.132812 -2.851562 L 0.132812 -3.171875 L 1.179688 -3.171875 L 1.179688 -1.324219 C 1.179688 -0.9375 1.226562 -0.675781 1.320312 -0.53125 C 1.414062 -0.386719 1.582031 -0.316406 1.824219 -0.316406 C 2.082031 -0.316406 2.273438 -0.410156 2.40625 -0.597656 C 2.542969 -0.785156 2.609375 -1.054688 2.609375 -1.410156 L 2.609375 -2.851562 L 2.128906 -2.851562 L 2.128906 -3.171875 M 3.027344 -2.519531 L 3.027344 -2.800781 L 3.035156 -2.796875 C 3.277344 -2.625 3.445312 -2.539062 3.542969 -2.539062 C 3.632812 -2.539062 3.707031 -2.574219 3.761719 -2.640625 C 3.816406 -2.707031 3.847656 -2.792969 3.847656 -2.90625 C 3.847656 -2.960938 3.839844 -3.015625 3.828125 -3.074219 C 3.816406 -3.132812 3.796875 -3.191406 3.769531 -3.25 L 4.148438 -3.246094 C 4.167969 -3.175781 4.183594 -3.105469 4.191406 -3.039062 C 4.199219 -2.972656 4.203125 -2.90625 4.203125 -2.84375 C 4.203125 -2.617188 4.160156 -2.445312 4.070312 -2.320312 C 3.980469 -2.199219 3.855469 -2.136719 3.695312 -2.136719 C 3.597656 -2.136719 3.496094 -2.167969 3.390625 -2.226562 C 3.285156 -2.285156 3.164062 -2.382812 3.027344 -2.519531 Z "/>
</g>
<g id="glyph-0-8">
<path d="M 0.25 0 L 0.25 -0.316406 L 0.746094 -0.316406 L 0.746094 -2.851562 L 0.222656 -2.851562 L 0.222656 -3.171875 L 1.296875 -3.171875 L 1.296875 -2.609375 C 1.394531 -2.824219 1.527344 -2.984375 1.691406 -3.09375 C 1.851562 -3.203125 2.039062 -3.257812 2.253906 -3.257812 C 2.605469 -3.257812 2.863281 -3.15625 3.027344 -2.957031 C 3.195312 -2.757812 3.277344 -2.441406 3.277344 -2.015625 L 3.277344 -0.316406 L 3.765625 -0.316406 L 3.765625 0 L 2.25 0 L 2.25 -0.316406 L 2.722656 -0.316406 L 2.722656 -1.84375 C 2.722656 -2.230469 2.675781 -2.496094 2.582031 -2.640625 C 2.484375 -2.785156 2.316406 -2.859375 2.078125 -2.859375 C 1.820312 -2.859375 1.628906 -2.765625 1.496094 -2.578125 C 1.363281 -2.394531 1.296875 -2.121094 1.296875 -1.765625 L 1.296875 -0.316406 L 1.773438 -0.316406 L 1.773438 0 Z "/>
</g>
<g id="glyph-0-9">
<path d="M 3.207031 -2.851562 L 3.207031 -0.0703125 C 3.207031 0.386719 3.082031 0.738281 2.832031 0.984375 C 2.582031 1.234375 2.222656 1.359375 1.761719 1.359375 C 1.550781 1.359375 1.351562 1.339844 1.160156 1.300781 C 0.96875 1.261719 0.785156 1.207031 0.613281 1.128906 L 0.613281 0.464844 L 0.898438 0.464844 C 0.933594 0.671875 1.019531 0.824219 1.152344 0.917969 C 1.285156 1.015625 1.476562 1.0625 1.722656 1.0625 C 2.046875 1.0625 2.28125 0.972656 2.433594 0.789062 C 2.582031 0.605469 2.660156 0.320312 2.660156 -0.0703125 L 2.660156 -0.496094 C 2.550781 -0.296875 2.414062 -0.148438 2.25 -0.0546875 C 2.082031 0.0390625 1.875 0.0859375 1.632812 0.0859375 C 1.242188 0.0859375 0.921875 -0.0664062 0.675781 -0.378906 C 0.429688 -0.6875 0.304688 -1.089844 0.304688 -1.585938 C 0.304688 -2.085938 0.425781 -2.488281 0.675781 -2.796875 C 0.921875 -3.105469 1.242188 -3.257812 1.632812 -3.257812 C 1.875 -3.257812 2.082031 -3.210938 2.25 -3.117188 C 2.414062 -3.023438 2.550781 -2.875 2.660156 -2.675781 L 2.660156 -3.171875 L 3.734375 -3.171875 L 3.734375 -2.851562 L 3.207031 -2.851562 M 2.660156 -1.742188 C 2.660156 -2.121094 2.585938 -2.414062 2.4375 -2.613281 C 2.292969 -2.816406 2.082031 -2.914062 1.800781 -2.914062 C 1.519531 -2.914062 1.304688 -2.804688 1.164062 -2.582031 C 1.019531 -2.359375 0.945312 -2.027344 0.945312 -1.585938 C 0.945312 -1.148438 1.019531 -0.820312 1.164062 -0.59375 C 1.304688 -0.367188 1.519531 -0.257812 1.800781 -0.257812 C 2.082031 -0.257812 2.292969 -0.355469 2.4375 -0.554688 C 2.585938 -0.757812 2.660156 -1.046875 2.660156 -1.429688 Z "/>
</g>
</g>
</defs>
<g fill="rgb(96.862745%, 85.098039%, 43.529412%)" fill-opacity="1">
<use xlink:href="#glyph-0-0" x="30" y="25.671875"/>
<use xlink:href="#glyph-0-1" x="34" y="25.671875"/>
<use xlink:href="#glyph-0-2" x="38" y="25.671875"/>
<use xlink:href="#glyph-0-3" x="40" y="25.671875"/>
<use xlink:href="#glyph-0-4" x="43" y="25.671875"/>
<use xlink:href="#glyph-0-5" x="47" y="25.671875"/>
<use xlink:href="#glyph-0-2" x="50" y="25.671875"/>
<use xlink:href="#glyph-0-6" x="52" y="25.671875"/>
<use xlink:href="#glyph-0-7" x="56" y="25.671875"/>
<use xlink:href="#glyph-0-8" x="60" y="25.671875"/>
<use xlink:href="#glyph-0-9" x="64" y="25.671875"/>
</g>
</svg>
