<?xml version="1.0" encoding="UTF-8"?>
<svg xmlns="http://www.w3.org/2000/svg" xmlns:xlink="http://www.w3.org/1999/xlink" width="854" height="480" viewBox="0 0 854 480">
<defs>
<g>
<g id="glyph-0-0">
<path d="M 1.027344 0 L 1.027344 -4.34375 L -0.0195312 -4.34375 L -0.0195312 -5.203125 L 1.027344 -5.203125 L 1.027344 -9.542969 L 4.324219 -9.542969 C 5.0625 -9.542969 5.625 -9.5 6.015625 -9.40625 C 6.5625 -9.28125 7.027344 -9.054688 7.414062 -8.722656 C 7.917969 -8.296875 8.296875 -7.753906 8.546875 -7.09375 C 8.792969 -6.429688 8.917969 -5.675781 8.917969 -4.824219 C 8.917969 -3.851562 8.765625 -3.015625 8.457031 -2.3125 C 8.148438 -1.613281 7.78125 -1.105469 7.351562 -0.789062 C 6.921875 -0.472656 6.425781 -0.246094 5.867188 -0.109375 C 5.558594 -0.0351562 5.09375 0 4.472656 0 L 1.027344 0 M 2.292969 -1.125 L 4.328125 -1.125 C 4.964844 -1.125 5.457031 -1.183594 5.8125 -1.300781 C 6.167969 -1.417969 6.453125 -1.582031 6.660156 -1.789062 C 6.960938 -2.089844 7.195312 -2.492188 7.363281 -2.996094 C 7.53125 -3.5 7.617188 -4.113281 7.617188 -4.835938 C 7.617188 -5.582031 7.535156 -6.179688 7.367188 -6.628906 C 7.199219 -7.074219 6.980469 -7.433594 6.710938 -7.703125 C 6.441406 -7.972656 6.144531 -8.15625 5.8125 -8.261719 C 5.484375 -8.367188 4.976562 -8.417969 4.296875 -8.417969 L 2.292969 -8.417969 L 2.292969 -5.203125 L 4.921875 -5.203125 L 4.921875 -4.34375 L 2.292969 -4.34375 Z "/>
</g>
<g id="glyph-0-1">
<path d="M 0.441406 -3.457031 C 0.441406 -4.738281 0.796875 -5.6875 1.511719 -6.300781 C 2.105469 -6.8125 2.828125 -7.070312 3.683594 -7.070312 C 4.636719 -7.070312 5.414062 -6.757812 6.015625 -6.136719 C 6.617188 -5.511719 6.921875 -4.652344 6.921875 -3.554688 C 6.921875 -2.664062 6.785156 -1.964844 6.519531 -1.453125 C 6.253906 -0.945312 5.863281 -0.550781 5.355469 -0.265625 C 4.84375 0.015625 4.289062 0.15625 3.683594 0.15625 C 2.71875 0.15625 1.933594 -0.152344 1.335938 -0.773438 C 0.742188 -1.394531 0.441406 -2.289062 0.441406 -3.457031 M 1.648438 -3.457031 C 1.648438 -2.570312 1.839844 -1.910156 2.226562 -1.46875 C 2.613281 -1.027344 3.097656 -0.808594 3.683594 -0.808594 C 4.265625 -0.808594 4.75 -1.027344 5.136719 -1.472656 C 5.523438 -1.914062 5.714844 -2.589844 5.714844 -3.496094 C 5.714844 -4.351562 5.523438 -5 5.132812 -5.4375 C 4.746094 -5.878906 4.261719 -6.101562 3.683594 -6.101562 C 3.097656 -6.101562 2.613281 -5.882812 2.226562 -5.441406 C 1.839844 -5.003906 1.648438 -4.34375 1.648438 -3.457031 M 3.699219 -8.878906 L 2.960938 -7.773438 L 1.621094 -7.773438 L 3.027344 -9.597656 L 4.277344 -9.597656 L 5.742188 -7.773438 L 4.414062 -7.773438 L 3.699219 -8.878906 M 3.308594 -10.574219 C 3.554688 -10.597656 3.714844 -10.621094 3.78125 -10.644531 C 4.011719 -10.699219 4.128906 -10.789062 4.132812 -10.910156 C 4.136719 -11.011719 4.078125 -11.097656 3.953125 -11.164062 C 3.769531 -11.265625 3.480469 -11.316406 3.085938 -11.316406 C 2.953125 -11.316406 2.746094 -11.304688 2.472656 -11.289062 L 2.402344 -11.902344 C 2.570312 -11.9375 2.882812 -11.949219 3.339844 -11.945312 C 3.875 -11.941406 4.308594 -11.855469 4.648438 -11.6875 C 5.023438 -11.503906 5.210938 -11.265625 5.222656 -10.976562 C 5.238281 -10.539062 4.84375 -10.269531 4.035156 -10.167969 L 4.035156 -9.84375 L 3.308594 -9.84375 Z "/>
</g>
<g id="glyph-0-2">
<path d="M 0.886719 -8.195312 L 0.886719 -9.542969 L 2.058594 -9.542969 L 2.058594 -8.195312 L 0.886719 -8.195312 M 0.886719 0 L 0.886719 -6.914062 L 2.058594 -6.914062 L 2.058594 0 Z "/>
</g>
<g id="glyph-0-3">
</g>
<g id="glyph-0-4">
<path d="M 5.390625 -2.53125 L 6.542969 -2.382812 C 6.417969 -1.589844 6.09375 -0.964844 5.574219 -0.515625 C 5.058594 -0.0703125 4.421875 0.15625 3.664062 0.15625 C 2.71875 0.15625 1.957031 -0.152344 1.382812 -0.769531 C 0.808594 -1.390625 0.519531 -2.277344 0.519531 -3.429688 C 0.519531 -4.175781 0.644531 -4.832031 0.890625 -5.390625 C 1.140625 -5.949219 1.515625 -6.371094 2.023438 -6.648438 C 2.527344 -6.929688 3.078125 -7.070312 3.671875 -7.070312 C 4.421875 -7.070312 5.035156 -6.878906 5.515625 -6.5 C 5.992188 -6.121094 6.296875 -5.582031 6.433594 -4.882812 L 5.292969 -4.707031 C 5.183594 -5.171875 4.992188 -5.519531 4.71875 -5.753906 C 4.441406 -5.988281 4.109375 -6.105469 3.71875 -6.105469 C 3.128906 -6.105469 2.648438 -5.894531 2.277344 -5.472656 C 1.910156 -5.046875 1.726562 -4.378906 1.726562 -3.464844 C 1.726562 -2.535156 1.902344 -1.859375 2.257812 -1.4375 C 2.613281 -1.019531 3.078125 -0.808594 3.652344 -0.808594 C 4.113281 -0.808594 4.496094 -0.949219 4.804688 -1.230469 C 5.113281 -1.511719 5.308594 -1.945312 5.390625 -2.53125 Z "/>
</g>
<g id="glyph-0-5">
<path d="M 1.648438 -3.457031 C 1.648438 -2.601562 1.839844 -1.941406 2.226562 -1.472656 C 2.589844 -1.027344 3.078125 -0.808594 3.683594 -0.808594 C 4.292969 -0.808594 4.777344 -1.027344 5.136719 -1.472656 C 5.523438 -1.945312 5.714844 -2.621094 5.714844 -3.496094 C 5.714844 -4.324219 5.519531 -4.972656 5.128906 -5.4375 C 4.765625 -5.878906 4.285156 -6.101562 3.683594 -6.101562 C 3.074219 -6.101562 2.585938 -5.882812 2.226562 -5.441406 C 1.839844 -4.972656 1.648438 -4.3125 1.648438 -3.457031 M 7.078125 -5.722656 L 7.078125 -7.082031 L 8.332031 -7.082031 L 8.332031 -6.007812 C 8.332031 -5.472656 8.25 -5.058594 8.085938 -4.773438 C 7.875 -4.398438 7.484375 -4.054688 6.921875 -3.742188 C 6.921875 -3.683594 6.921875 -3.621094 6.921875 -3.554688 C 6.921875 -1.941406 6.398438 -0.84375 5.359375 -0.265625 C 4.847656 0.015625 4.289062 0.15625 3.683594 0.15625 C 2.695312 0.15625 1.910156 -0.152344 1.335938 -0.773438 C 0.738281 -1.417969 0.441406 -2.3125 0.441406 -3.457031 C 0.441406 -4.738281 0.796875 -5.6875 1.511719 -6.300781 C 2.105469 -6.8125 2.828125 -7.070312 3.683594 -7.070312 C 4.636719 -7.070312 5.414062 -6.761719 6.015625 -6.140625 C 6.472656 -5.667969 6.753906 -5.054688 6.867188 -4.308594 C 7.164062 -4.492188 7.375 -4.679688 7.503906 -4.875 C 7.632812 -5.070312 7.691406 -5.355469 7.6875 -5.722656 Z "/>
</g>
<g id="glyph-0-6">
<path d="M 0.410156 -2.0625 L 1.570312 -2.246094 C 1.632812 -1.78125 1.816406 -1.425781 2.113281 -1.179688 C 2.410156 -0.929688 2.824219 -0.808594 3.359375 -0.808594 C 3.898438 -0.808594 4.296875 -0.917969 4.558594 -1.136719 C 4.816406 -1.355469 4.949219 -1.613281 4.949219 -1.90625 C 4.949219 -2.171875 4.832031 -2.378906 4.601562 -2.53125 C 4.441406 -2.636719 4.042969 -2.769531 3.40625 -2.929688 C 2.546875 -3.148438 1.949219 -3.335938 1.617188 -3.492188 C 1.285156 -3.652344 1.035156 -3.871094 0.863281 -4.148438 C 0.691406 -4.429688 0.605469 -4.738281 0.605469 -5.078125 C 0.605469 -5.386719 0.675781 -5.671875 0.816406 -5.933594 C 0.957031 -6.195312 1.148438 -6.414062 1.394531 -6.589844 C 1.574219 -6.722656 1.824219 -6.835938 2.140625 -6.929688 C 2.453125 -7.023438 2.789062 -7.070312 3.152344 -7.070312 C 3.695312 -7.070312 4.171875 -6.992188 4.578125 -6.835938 C 4.988281 -6.679688 5.292969 -6.46875 5.488281 -6.199219 C 5.683594 -5.933594 5.816406 -5.578125 5.890625 -5.128906 L 4.746094 -4.972656 C 4.695312 -5.328125 4.542969 -5.609375 4.292969 -5.808594 C 4.042969 -6.007812 3.691406 -6.105469 3.234375 -6.105469 C 2.699219 -6.105469 2.3125 -6.019531 2.082031 -5.839844 C 1.851562 -5.660156 1.738281 -5.453125 1.738281 -5.214844 C 1.738281 -5.0625 1.785156 -4.925781 1.882812 -4.804688 C 1.976562 -4.679688 2.125 -4.574219 2.332031 -4.492188 C 2.449219 -4.449219 2.792969 -4.347656 3.367188 -4.191406 C 4.195312 -3.972656 4.773438 -3.789062 5.101562 -3.648438 C 5.429688 -3.507812 5.6875 -3.304688 5.871094 -3.035156 C 6.058594 -2.765625 6.152344 -2.429688 6.152344 -2.03125 C 6.152344 -1.640625 6.039062 -1.273438 5.808594 -0.925781 C 5.582031 -0.582031 5.253906 -0.316406 4.824219 -0.125 C 4.394531 0.0625 3.910156 0.15625 3.367188 0.15625 C 2.46875 0.15625 1.78125 -0.03125 1.3125 -0.402344 C 0.839844 -0.777344 0.539062 -1.332031 0.410156 -2.0625 Z "/>
</g>
<g id="glyph-0-7">
<path d="M 1.648438 -3.457031 C 1.648438 -2.601562 1.839844 -1.941406 2.226562 -1.472656 C 2.589844 -1.027344 3.078125 -0.808594 3.683594 -0.808594 C 4.292969 -0.808594 4.777344 -1.027344 5.136719 -1.472656 C 5.523438 -1.945312 5.714844 -2.621094 5.714844 -3.496094 C 5.714844 -4.324219 5.519531 -4.972656 5.128906 -5.4375 C 4.765625 -5.878906 4.285156 -6.101562 3.683594 -6.101562 C 3.074219 -6.101562 2.585938 -5.882812 2.226562 -5.441406 C 1.839844 -4.972656 1.648438 -4.3125 1.648438 -3.457031 M 7.078125 -5.722656 L 7.078125 -7.082031 L 8.332031 -7.082031 L 8.332031 -6.007812 C 8.332031 -5.472656 8.25 -5.058594 8.085938 -4.773438 C 7.875 -4.398438 7.484375 -4.054688 6.921875 -3.742188 C 6.921875 -3.683594 6.921875 -3.621094 6.921875 -3.554688 C 6.921875 -1.941406 6.398438 -0.84375 5.359375 -0.265625 C 4.847656 0.015625 4.289062 0.15625 3.683594 0.15625 C 2.695312 0.15625 1.910156 -0.152344 1.335938 -0.773438 C 0.738281 -1.417969 0.441406 -2.3125 0.441406 -3.457031 C 0.441406 -4.738281 0.796875 -5.6875 1.511719 -6.300781 C 2.105469 -6.8125 2.828125 -7.070312 3.683594 -7.070312 C 4.636719 -7.070312 5.414062 -6.761719 6.015625 -6.140625 C 6.472656 -5.667969 6.753906 -5.054688 6.867188 -4.308594 C 7.164062 -4.492188 7.375 -4.679688 7.503906 -4.875 C 7.632812 -5.070312 7.691406 -5.355469 7.6875 -5.722656 L 7.078125 -5.722656 M 3.386719 -8.554688 C 3.632812 -8.582031 3.792969 -8.605469 3.859375 -8.625 C 4.089844 -8.703125 4.207031 -8.824219 4.210938 -8.992188 C 4.214844 -9.089844 4.15625 -9.175781 4.03125 -9.246094 C 3.847656 -9.34375 3.558594 -9.394531 3.164062 -9.394531 C 3.03125 -9.394531 2.824219 -9.386719 2.550781 -9.367188 L 2.480469 -10.03125 C 2.648438 -10.066406 2.960938 -10.082031 3.417969 -10.078125 C 3.953125 -10.074219 4.386719 -9.988281 4.726562 -9.816406 C 5.101562 -9.636719 5.289062 -9.382812 5.300781 -9.054688 C 5.316406 -8.519531 4.921875 -8.199219 4.113281 -8.097656 L 4.113281 -7.773438 L 3.386719 -7.773438 Z "/>
</g>
</g>
</defs>
<g fill="rgb(100%, 100%, 100%)" fill-opacity="1">
<use xlink:href="#glyph-0-0" x="30" y="32.070312"/>
<use xlink:href="#glyph-0-1" x="40" y="32.070312"/>
<use xlink:href="#glyph-0-2" x="47" y="32.070312"/>
<use xlink:href="#glyph-0-3" x="50" y="32.070312"/>
<use xlink:href="#glyph-0-4" x="54" y="32.070312"/>
<use xlink:href="#glyph-0-5" x="61" y="32.070312"/>
<use xlink:href="#glyph-0-3" x="70" y="32.070312"/>
<use xlink:href="#glyph-0-6" x="74" y="32.070312"/>
<use xlink:href="#glyph-0-7" x="81" y="32.070312"/>
</g>
</svg>
