<?xml version="1.0" encoding="UTF-8"?>
<svg xmlns="http://www.w3.org/2000/svg" xmlns:xlink="http://www.w3.org/1999/xlink" width="854" height="480" viewBox="0 0 854 480">
<defs>
<g>
<g id="glyph-0-0">
<path d="M 1.082031 0 L 1.082031 -2.628906 L 0.0976562 -2.628906 L 0.0976562 -2.984375 L 2.460938 -2.984375 L 2.460938 -2.628906 L 1.476562 -2.628906 L 1.476562 0 Z "/>
</g>
<g id="glyph-0-1">
<path d="M 0.386719 0 L 0.386719 -2.984375 L 0.785156 -2.984375 L 0.785156 0 L 0.386719 0 M 0.285156 -3.164062 L 0.558594 -3.734375 L 1.039062 -3.734375 L 0.589844 -3.164062 Z "/>
</g>
<g id="glyph-0-2">
<path d="M 0.316406 0 L 0.316406 -2.984375 L 0.722656 -2.984375 L 2.289062 -0.640625 L 2.289062 -2.984375 L 2.667969 -2.984375 L 2.667969 0 L 2.261719 0 L 0.695312 -2.34375 L 0.695312 0 Z "/>
</g>
<g id="glyph-0-3">
<path d="M 0.332031 0 L 0.332031 -2.984375 L 0.726562 -2.984375 L 0.726562 -1.757812 L 2.277344 -1.757812 L 2.277344 -2.984375 L 2.671875 -2.984375 L 2.671875 0 L 2.277344 0 L 2.277344 -1.40625 L 0.726562 -1.40625 L 0.726562 0 Z "/>
</g>
<g id="glyph-0-4">
</g>
<g id="glyph-0-5">
<path d="M 0.203125 -1.453125 C 0.203125 -1.949219 0.335938 -2.335938 0.601562 -2.617188 C 0.867188 -2.894531 1.210938 -3.035156 1.628906 -3.035156 C 1.90625 -3.035156 2.152344 -2.96875 2.375 -2.839844 C 2.59375 -2.707031 2.765625 -2.523438 2.878906 -2.289062 C 2.996094 -2.050781 3.054688 -1.785156 3.054688 -1.488281 C 3.054688 -1.183594 2.992188 -0.914062 2.871094 -0.675781 C 2.75 -0.4375 2.574219 -0.257812 2.351562 -0.132812 C 2.128906 -0.0117188 1.886719 0.0507812 1.628906 0.0507812 C 1.347656 0.0507812 1.097656 -0.015625 0.875 -0.152344 C 0.652344 -0.289062 0.484375 -0.472656 0.371094 -0.707031 C 0.257812 -0.941406 0.203125 -1.191406 0.203125 -1.453125 M 0.609375 -1.445312 C 0.609375 -1.085938 0.703125 -0.804688 0.898438 -0.597656 C 1.089844 -0.390625 1.332031 -0.285156 1.625 -0.285156 C 1.921875 -0.285156 2.167969 -0.390625 2.359375 -0.601562 C 2.550781 -0.808594 2.648438 -1.105469 2.648438 -1.488281 C 2.648438 -1.730469 2.605469 -1.945312 2.523438 -2.125 C 2.441406 -2.304688 2.320312 -2.445312 2.164062 -2.546875 C 2.003906 -2.644531 1.828125 -2.695312 1.632812 -2.695312 C 1.351562 -2.695312 1.113281 -2.601562 0.910156 -2.40625 C 0.710938 -2.214844 0.609375 -1.894531 0.609375 -1.445312 Z "/>
</g>
<g id="glyph-0-6">
<path d="M -0.0078125 0 L 1.140625 -2.984375 L 1.566406 -2.984375 L 2.785156 0 L 2.335938 0 L 1.988281 -0.902344 L 0.742188 -0.902344 L 0.414062 0 L -0.0078125 0 M 0.855469 -1.226562 L 1.867188 -1.226562 L 1.554688 -2.050781 C 1.460938 -2.300781 1.390625 -2.507812 1.34375 -2.667969 C 1.304688 -2.476562 1.25 -2.289062 1.183594 -2.097656 L 0.855469 -1.226562 M 1.101562 -3.164062 L 1.371094 -3.734375 L 1.851562 -3.734375 L 1.402344 -3.164062 Z "/>
</g>
<g id="glyph-0-7">
<path d="M 0.1875 -0.957031 L 0.558594 -0.992188 C 0.578125 -0.839844 0.617188 -0.71875 0.683594 -0.625 C 0.746094 -0.527344 0.847656 -0.449219 0.984375 -0.390625 C 1.117188 -0.332031 1.269531 -0.304688 1.441406 -0.304688 C 1.589844 -0.304688 1.722656 -0.324219 1.839844 -0.371094 C 1.953125 -0.414062 2.039062 -0.476562 2.097656 -0.554688 C 2.152344 -0.632812 2.179688 -0.71875 2.179688 -0.808594 C 2.179688 -0.902344 2.152344 -0.984375 2.097656 -1.054688 C 2.046875 -1.125 1.957031 -1.183594 1.832031 -1.230469 C 1.75 -1.261719 1.574219 -1.3125 1.300781 -1.375 C 1.027344 -1.441406 0.835938 -1.503906 0.722656 -1.5625 C 0.582031 -1.636719 0.476562 -1.730469 0.40625 -1.839844 C 0.335938 -1.949219 0.300781 -2.074219 0.300781 -2.210938 C 0.300781 -2.363281 0.34375 -2.503906 0.429688 -2.632812 C 0.515625 -2.765625 0.640625 -2.863281 0.804688 -2.933594 C 0.96875 -3 1.148438 -3.035156 1.351562 -3.035156 C 1.570312 -3.035156 1.765625 -2.996094 1.9375 -2.925781 C 2.105469 -2.855469 2.234375 -2.75 2.324219 -2.613281 C 2.417969 -2.472656 2.464844 -2.316406 2.472656 -2.140625 L 2.09375 -2.113281 C 2.074219 -2.300781 2.003906 -2.445312 1.886719 -2.542969 C 1.769531 -2.636719 1.597656 -2.683594 1.367188 -2.683594 C 1.128906 -2.683594 0.953125 -2.640625 0.84375 -2.554688 C 0.734375 -2.46875 0.679688 -2.363281 0.679688 -2.238281 C 0.679688 -2.128906 0.71875 -2.042969 0.796875 -1.972656 C 0.875 -1.902344 1.070312 -1.832031 1.394531 -1.761719 C 1.714844 -1.6875 1.933594 -1.625 2.054688 -1.570312 C 2.226562 -1.492188 2.355469 -1.390625 2.4375 -1.265625 C 2.519531 -1.144531 2.5625 -1.003906 2.5625 -0.84375 C 2.5625 -0.683594 2.515625 -0.535156 2.425781 -0.394531 C 2.335938 -0.253906 2.203125 -0.144531 2.035156 -0.0664062 C 1.863281 0.0117188 1.671875 0.0507812 1.457031 0.0507812 C 1.1875 0.0507812 0.960938 0.0117188 0.78125 -0.0664062 C 0.597656 -0.144531 0.453125 -0.265625 0.351562 -0.421875 C 0.246094 -0.582031 0.191406 -0.757812 0.1875 -0.957031 Z "/>
</g>
<g id="glyph-0-8">
<path d="M 1.175781 0 L 0.0195312 -2.984375 L 0.445312 -2.984375 L 1.21875 -0.816406 C 1.28125 -0.640625 1.335938 -0.480469 1.378906 -0.328125 C 1.421875 -0.492188 1.476562 -0.652344 1.539062 -0.816406 L 2.34375 -2.984375 L 2.746094 -2.984375 L 1.578125 0 Z "/>
</g>
<g id="glyph-0-9">
<path d="M 0.320312 0 L 0.320312 -2.984375 L 1.347656 -2.984375 C 1.582031 -2.984375 1.757812 -2.96875 1.878906 -2.941406 C 2.050781 -2.902344 2.195312 -2.828125 2.316406 -2.726562 C 2.476562 -2.59375 2.59375 -2.421875 2.671875 -2.214844 C 2.75 -2.007812 2.789062 -1.773438 2.789062 -1.507812 C 2.789062 -1.28125 2.761719 -1.082031 2.707031 -0.90625 C 2.65625 -0.730469 2.585938 -0.585938 2.503906 -0.472656 C 2.421875 -0.355469 2.332031 -0.265625 2.234375 -0.199219 C 2.132812 -0.132812 2.015625 -0.0859375 1.875 -0.0507812 C 1.738281 -0.015625 1.578125 0 1.398438 0 L 0.320312 0 M 0.714844 -0.351562 L 1.351562 -0.351562 C 1.550781 -0.351562 1.703125 -0.371094 1.816406 -0.40625 C 1.925781 -0.445312 2.015625 -0.496094 2.082031 -0.5625 C 2.175781 -0.65625 2.25 -0.78125 2.300781 -0.9375 C 2.355469 -1.097656 2.378906 -1.289062 2.378906 -1.511719 C 2.378906 -1.824219 2.328125 -2.066406 2.226562 -2.234375 C 2.125 -2.398438 2 -2.511719 1.851562 -2.570312 C 1.746094 -2.609375 1.578125 -2.628906 1.34375 -2.628906 L 0.714844 -2.628906 Z "/>
</g>
</g>
</defs>
<g fill="rgb(100%, 100%, 100%)" fill-opacity="1">
<use xlink:href="#glyph-0-0" x="30" y="23.771484"/>
<use xlink:href="#glyph-0-1" x="33" y="23.771484"/>
<use xlink:href="#glyph-0-2" x="34" y="23.771484"/>
<use xlink:href="#glyph-0-3" x="37" y="23.771484"/>
<use xlink:href="#glyph-0-4" x="40" y="23.771484"/>
<use xlink:href="#glyph-0-0" x="41" y="23.771484"/>
<use xlink:href="#glyph-0-5" x="43" y="23.771484"/>
<use xlink:href="#glyph-0-6" x="46" y="23.771484"/>
<use xlink:href="#glyph-0-2" x="49" y="23.771484"/>
<use xlink:href="#glyph-0-4" x="52" y="23.771484"/>
<use xlink:href="#glyph-0-7" x="53" y="23.771484"/>
<use xlink:href="#glyph-0-8" x="56" y="23.771484"/>
<use xlink:href="#glyph-0-9" x="59" y="23.771484"/>
</g>
</svg>
