<?xml version="1.0" encoding="UTF-8"?>
<svg xmlns="http://www.w3.org/2000/svg" xmlns:xlink="http://www.w3.org/1999/xlink" width="1920" height="1080" viewBox="0 0 1920 1080">
<defs>
<g>
<g id="glyph-0-0">
<path d="M 0.851562 -3.699219 L 0.488281 -3.699219 L 0.488281 -4.566406 C 0.71875 -4.691406 0.953125 -4.785156 1.191406 -4.851562 C 1.425781 -4.914062 1.65625 -4.949219 1.882812 -4.949219 C 2.386719 -4.949219 2.785156 -4.824219 3.078125 -4.578125 C 3.371094 -4.335938 3.519531 -4 3.519531 -3.582031 C 3.519531 -3.105469 3.1875 -2.535156 2.523438 -1.875 C 2.46875 -1.824219 2.429688 -1.785156 2.40625 -1.761719 L 1.179688 -0.535156 L 3.207031 -0.535156 L 3.207031 -1.132812 L 3.585938 -1.132812 L 3.585938 0 L 0.453125 0 L 0.453125 -0.355469 L 1.925781 -1.824219 C 2.253906 -2.152344 2.484375 -2.449219 2.625 -2.722656 C 2.761719 -2.996094 2.832031 -3.28125 2.832031 -3.582031 C 2.832031 -3.910156 2.746094 -4.164062 2.578125 -4.347656 C 2.40625 -4.535156 2.171875 -4.625 1.871094 -4.625 C 1.5625 -4.625 1.320312 -4.546875 1.152344 -4.394531 C 0.984375 -4.242188 0.882812 -4.007812 0.851562 -3.699219 Z "/>
</g>
<g id="glyph-0-1">
<path d="M 0.628906 -0.339844 C 0.628906 -0.460938 0.667969 -0.5625 0.75 -0.648438 C 0.835938 -0.730469 0.9375 -0.773438 1.0625 -0.773438 C 1.179688 -0.773438 1.28125 -0.730469 1.367188 -0.648438 C 1.453125 -0.5625 1.492188 -0.460938 1.492188 -0.339844 C 1.492188 -0.21875 1.453125 -0.117188 1.367188 -0.03125 C 1.28125 0.0507812 1.179688 0.09375 1.0625 0.09375 C 0.9375 0.09375 0.835938 0.0507812 0.75 -0.03125 C 0.667969 -0.113281 0.628906 -0.21875 0.628906 -0.339844 Z "/>
</g>
<g id="glyph-0-2">
</g>
<g id="glyph-0-3">
<path d="M 1.335938 -1.761719 L 3.117188 -1.761719 L 2.226562 -4.070312 L 1.335938 -1.761719 M -0.0390625 0 L -0.0390625 -0.34375 L 0.386719 -0.34375 L 2.117188 -4.859375 L 2.664062 -4.859375 L 4.402344 -0.34375 L 4.878906 -0.34375 L 4.878906 0 L 3.113281 0 L 3.113281 -0.34375 L 3.652344 -0.34375 L 3.246094 -1.414062 L 1.203125 -1.414062 L 0.792969 -0.34375 L 1.328125 -0.34375 L 1.328125 0 L -0.0390625 0 M 2.609375 -6.179688 L 3.25 -6.179688 L 2.398438 -5.320312 L 2.019531 -5.320312 Z "/>
</g>
<g id="glyph-0-4">
<path d="M 1.367188 -1.902344 L 1.367188 -1.558594 C 1.367188 -1.140625 1.445312 -0.824219 1.605469 -0.605469 C 1.765625 -0.390625 1.996094 -0.28125 2.300781 -0.28125 C 2.605469 -0.28125 2.839844 -0.402344 2.996094 -0.648438 C 3.152344 -0.894531 3.230469 -1.253906 3.230469 -1.730469 C 3.230469 -2.210938 3.152344 -2.574219 2.996094 -2.816406 C 2.839844 -3.058594 2.605469 -3.179688 2.300781 -3.179688 C 1.996094 -3.179688 1.765625 -3.070312 1.605469 -2.851562 C 1.445312 -2.632812 1.367188 -2.316406 1.367188 -1.902344 M 0.769531 -3.113281 L 0.191406 -3.113281 L 0.191406 -3.460938 L 1.367188 -3.460938 L 1.367188 -2.917969 C 1.484375 -3.136719 1.632812 -3.296875 1.816406 -3.398438 C 1.996094 -3.503906 2.21875 -3.554688 2.488281 -3.554688 C 2.914062 -3.554688 3.257812 -3.386719 3.527344 -3.050781 C 3.796875 -2.714844 3.933594 -2.273438 3.933594 -1.730469 C 3.933594 -1.1875 3.796875 -0.75 3.527344 -0.410156 C 3.257812 -0.0742188 2.914062 0.09375 2.488281 0.09375 C 2.21875 0.09375 1.996094 0.0429688 1.816406 -0.0585938 C 1.632812 -0.164062 1.484375 -0.324219 1.367188 -0.539062 L 1.367188 1.039062 L 1.933594 1.039062 L 1.933594 1.386719 L 0.191406 1.386719 L 0.191406 1.039062 L 0.769531 1.039062 Z "/>
</g>
<g id="glyph-0-5">
<path d="M 3.5 -0.34375 L 4.070312 -0.34375 L 4.070312 0 L 2.898438 0 L 2.898438 -0.539062 C 2.78125 -0.324219 2.632812 -0.164062 2.453125 -0.0585938 C 2.273438 0.0429688 2.046875 0.09375 1.78125 0.09375 C 1.355469 0.09375 1.007812 -0.0742188 0.738281 -0.410156 C 0.46875 -0.75 0.332031 -1.1875 0.332031 -1.730469 C 0.332031 -2.273438 0.464844 -2.714844 0.734375 -3.050781 C 1.003906 -3.386719 1.351562 -3.554688 1.78125 -3.554688 C 2.046875 -3.554688 2.273438 -3.503906 2.453125 -3.398438 C 2.632812 -3.296875 2.78125 -3.136719 2.898438 -2.917969 L 2.898438 -4.71875 L 2.335938 -4.71875 L 2.335938 -5.066406 L 3.5 -5.066406 L 3.5 -0.34375 M 2.898438 -1.558594 L 2.898438 -1.902344 C 2.898438 -2.316406 2.820312 -2.632812 2.660156 -2.851562 C 2.5 -3.070312 2.269531 -3.179688 1.964844 -3.179688 C 1.65625 -3.179688 1.425781 -3.058594 1.269531 -2.816406 C 1.109375 -2.574219 1.03125 -2.210938 1.03125 -1.730469 C 1.03125 -1.253906 1.109375 -0.894531 1.269531 -0.648438 C 1.425781 -0.402344 1.65625 -0.28125 1.964844 -0.28125 C 2.269531 -0.28125 2.5 -0.390625 2.660156 -0.605469 C 2.820312 -0.824219 2.898438 -1.140625 2.898438 -1.558594 Z "/>
</g>
<g id="glyph-0-6">
<path d="M 2.359375 -3.460938 L 3.480469 -3.460938 L 3.480469 -0.34375 L 4.046875 -0.34375 L 4.046875 0 L 2.878906 0 L 2.878906 -0.613281 C 2.769531 -0.382812 2.625 -0.207031 2.453125 -0.0859375 C 2.273438 0.0351562 2.070312 0.09375 1.839844 0.09375 C 1.453125 0.09375 1.171875 -0.015625 0.992188 -0.234375 C 0.808594 -0.449219 0.71875 -0.792969 0.71875 -1.257812 L 0.71875 -3.113281 L 0.179688 -3.113281 L 0.179688 -3.460938 L 1.320312 -3.460938 L 1.320312 -1.445312 C 1.320312 -1.023438 1.375 -0.734375 1.476562 -0.578125 C 1.578125 -0.421875 1.761719 -0.34375 2.027344 -0.34375 C 2.304688 -0.34375 2.515625 -0.445312 2.664062 -0.652344 C 2.808594 -0.855469 2.878906 -1.152344 2.878906 -1.539062 L 2.878906 -3.113281 L 2.359375 -3.113281 L 2.359375 -3.460938 M 2.101562 0.515625 C 2.207031 0.515625 2.296875 0.550781 2.371094 0.625 C 2.445312 0.703125 2.484375 0.789062 2.484375 0.894531 C 2.484375 1.007812 2.449219 1.097656 2.375 1.167969 C 2.304688 1.242188 2.214844 1.277344 2.101562 1.277344 C 1.992188 1.277344 1.902344 1.242188 1.828125 1.167969 C 1.757812 1.097656 1.722656 1.007812 1.722656 0.894531 C 1.722656 0.789062 1.757812 0.703125 1.835938 0.625 C 1.910156 0.550781 2 0.515625 2.101562 0.515625 Z "/>
</g>
<g id="glyph-0-7">
<path d="M 0.273438 0 L 0.273438 -0.34375 L 0.8125 -0.34375 L 0.8125 -3.113281 L 0.242188 -3.113281 L 0.242188 -3.460938 L 1.414062 -3.460938 L 1.414062 -2.84375 C 1.523438 -3.078125 1.667969 -3.257812 1.84375 -3.375 C 2.019531 -3.496094 2.226562 -3.554688 2.460938 -3.554688 C 2.84375 -3.554688 3.125 -3.445312 3.304688 -3.226562 C 3.484375 -3.007812 3.574219 -2.664062 3.574219 -2.199219 L 3.574219 -0.34375 L 4.109375 -0.34375 L 4.109375 0 L 2.453125 0 L 2.453125 -0.34375 L 2.972656 -0.34375 L 2.972656 -2.011719 C 2.972656 -2.433594 2.917969 -2.726562 2.816406 -2.882812 C 2.710938 -3.039062 2.527344 -3.117188 2.265625 -3.117188 C 1.988281 -3.117188 1.777344 -3.015625 1.628906 -2.8125 C 1.484375 -2.609375 1.414062 -2.316406 1.414062 -1.925781 L 1.414062 -0.34375 L 1.933594 -0.34375 L 1.933594 0 Z "/>
</g>
<g id="glyph-0-8">
<path d="M 3.5 -3.113281 L 3.5 -0.0742188 C 3.5 0.421875 3.363281 0.804688 3.089844 1.074219 C 2.816406 1.347656 2.425781 1.480469 1.921875 1.480469 C 1.691406 1.480469 1.472656 1.460938 1.265625 1.417969 C 1.058594 1.378906 0.859375 1.316406 0.667969 1.234375 L 0.667969 0.507812 L 0.980469 0.507812 C 1.019531 0.734375 1.109375 0.898438 1.257812 1.003906 C 1.402344 1.105469 1.609375 1.160156 1.882812 1.160156 C 2.234375 1.160156 2.492188 1.058594 2.65625 0.859375 C 2.820312 0.664062 2.898438 0.351562 2.898438 -0.0742188 L 2.898438 -0.539062 C 2.78125 -0.324219 2.632812 -0.164062 2.453125 -0.0585938 C 2.273438 0.0429688 2.046875 0.09375 1.78125 0.09375 C 1.355469 0.09375 1.007812 -0.0742188 0.738281 -0.410156 C 0.46875 -0.75 0.332031 -1.1875 0.332031 -1.730469 C 0.332031 -2.273438 0.464844 -2.714844 0.734375 -3.050781 C 1.003906 -3.386719 1.351562 -3.554688 1.78125 -3.554688 C 2.046875 -3.554688 2.273438 -3.503906 2.453125 -3.398438 C 2.632812 -3.296875 2.78125 -3.136719 2.898438 -2.917969 L 2.898438 -3.460938 L 4.070312 -3.460938 L 4.070312 -3.113281 L 3.5 -3.113281 M 2.898438 -1.902344 C 2.898438 -2.316406 2.820312 -2.632812 2.660156 -2.851562 C 2.5 -3.070312 2.269531 -3.179688 1.964844 -3.179688 C 1.65625 -3.179688 1.425781 -3.058594 1.269531 -2.816406 C 1.109375 -2.574219 1.03125 -2.210938 1.03125 -1.730469 C 1.03125 -1.253906 1.109375 -0.894531 1.269531 -0.648438 C 1.425781 -0.402344 1.65625 -0.28125 1.964844 -0.28125 C 2.269531 -0.28125 2.5 -0.390625 2.660156 -0.605469 C 2.820312 -0.824219 2.898438 -1.140625 2.898438 -1.558594 Z "/>
</g>
</g>
</defs>
<g fill="rgb(96.862745%, 85.098039%, 43.529412%)" fill-opacity="1">
<use xlink:href="#glyph-0-0" x="30" y="26.1875"/>
<use xlink:href="#glyph-0-1" x="34" y="26.1875"/>
<use xlink:href="#glyph-0-2" x="36" y="26.1875"/>
<use xlink:href="#glyph-0-3" x="38" y="26.1875"/>
<use xlink:href="#glyph-0-4" x="43" y="26.1875"/>
<use xlink:href="#glyph-0-2" x="47" y="26.1875"/>
<use xlink:href="#glyph-0-5" x="49" y="26.1875"/>
<use xlink:href="#glyph-0-6" x="53" y="26.1875"/>
<use xlink:href="#glyph-0-7" x="57" y="26.1875"/>
<use xlink:href="#glyph-0-8" x="61" y="26.1875"/>
</g>
</svg>
