<?xml version="1.0" encoding="UTF-8"?>
<svg xmlns="http://www.w3.org/2000/svg" xmlns:xlink="http://www.w3.org/1999/xlink" width="1920" height="1080" viewBox="0 0 1920 1080">
<defs>
<g>
<g id="glyph-0-0">
<path d="M 2.558594 -4.445312 C 1.859375 -5.019531 1.410156 -5.480469 1.207031 -5.828125 C 1.007812 -6.175781 0.90625 -6.535156 0.90625 -6.90625 C 0.90625 -7.480469 1.125 -7.972656 1.570312 -8.390625 C 2.011719 -8.804688 2.601562 -9.011719 3.332031 -9.011719 C 4.046875 -9.011719 4.617188 -8.816406 5.050781 -8.429688 C 5.484375 -8.042969 5.703125 -7.605469 5.703125 -7.109375 C 5.703125 -6.78125 5.585938 -6.441406 5.351562 -6.101562 C 5.117188 -5.757812 4.628906 -5.355469 3.886719 -4.890625 C 4.652344 -4.300781 5.15625 -3.835938 5.402344 -3.496094 C 5.734375 -3.054688 5.898438 -2.585938 5.898438 -2.097656 C 5.898438 -1.476562 5.660156 -0.945312 5.1875 -0.503906 C 4.714844 -0.0625 4.09375 0.15625 3.328125 0.15625 C 2.488281 0.15625 1.835938 -0.105469 1.367188 -0.632812 C 0.992188 -1.050781 0.808594 -1.511719 0.808594 -2.011719 C 0.808594 -2.402344 0.9375 -2.789062 1.203125 -3.171875 C 1.464844 -3.558594 1.917969 -3.980469 2.558594 -4.445312 M 3.582031 -5.144531 C 4.101562 -5.613281 4.429688 -5.980469 4.570312 -6.253906 C 4.710938 -6.523438 4.777344 -6.832031 4.777344 -7.175781 C 4.777344 -7.628906 4.652344 -7.988281 4.394531 -8.246094 C 4.136719 -8.503906 3.789062 -8.632812 3.347656 -8.632812 C 2.902344 -8.632812 2.542969 -8.503906 2.265625 -8.25 C 1.988281 -7.992188 1.847656 -7.691406 1.847656 -7.351562 C 1.847656 -7.125 1.90625 -6.898438 2.023438 -6.671875 C 2.136719 -6.449219 2.300781 -6.234375 2.511719 -6.027344 L 3.582031 -5.144531 M 2.863281 -4.199219 C 2.503906 -3.894531 2.238281 -3.5625 2.0625 -3.207031 C 1.890625 -2.847656 1.804688 -2.460938 1.804688 -2.042969 C 1.804688 -1.484375 1.957031 -1.035156 2.261719 -0.699219 C 2.566406 -0.363281 2.957031 -0.195312 3.429688 -0.195312 C 3.898438 -0.195312 4.273438 -0.328125 4.558594 -0.59375 C 4.839844 -0.855469 4.980469 -1.179688 4.980469 -1.554688 C 4.980469 -1.867188 4.898438 -2.148438 4.734375 -2.394531 C 4.425781 -2.855469 3.800781 -3.457031 2.863281 -4.199219 Z "/>
</g>
<g id="glyph-0-1">
<path d="M 1.667969 -1.261719 C 1.871094 -1.261719 2.042969 -1.191406 2.179688 -1.050781 C 2.320312 -0.910156 2.390625 -0.738281 2.390625 -0.539062 C 2.390625 -0.339844 2.320312 -0.171875 2.179688 -0.0273438 C 2.035156 0.113281 1.867188 0.183594 1.667969 0.183594 C 1.46875 0.183594 1.296875 0.113281 1.15625 -0.0273438 C 1.015625 -0.171875 0.945312 -0.339844 0.945312 -0.539062 C 0.945312 -0.746094 1.015625 -0.914062 1.15625 -1.054688 C 1.296875 -1.195312 1.46875 -1.261719 1.667969 -1.261719 Z "/>
</g>
<g id="glyph-0-2">
</g>
<g id="glyph-0-3">
<path d="M 6.101562 -2.957031 L 2.683594 -2.957031 L 2.082031 -1.5625 C 1.9375 -1.21875 1.863281 -0.964844 1.863281 -0.792969 C 1.863281 -0.660156 1.925781 -0.542969 2.054688 -0.4375 C 2.183594 -0.335938 2.457031 -0.269531 2.882812 -0.242188 L 2.882812 0 L 0.105469 0 L 0.105469 -0.242188 C 0.472656 -0.304688 0.710938 -0.390625 0.820312 -0.496094 C 1.042969 -0.703125 1.285156 -1.125 1.554688 -1.765625 L 4.660156 -9.03125 L 4.890625 -9.03125 L 7.960938 -1.6875 C 8.210938 -1.097656 8.433594 -0.710938 8.636719 -0.539062 C 8.835938 -0.359375 9.117188 -0.261719 9.480469 -0.242188 L 9.480469 0 L 5.996094 0 L 5.996094 -0.242188 C 6.347656 -0.257812 6.585938 -0.316406 6.707031 -0.417969 C 6.832031 -0.515625 6.894531 -0.636719 6.894531 -0.78125 C 6.894531 -0.972656 6.808594 -1.273438 6.632812 -1.6875 L 6.101562 -2.957031 M 5.917969 -3.4375 L 4.421875 -7.003906 L 2.882812 -3.4375 Z "/>
</g>
<g id="glyph-0-4">
<path d="M 3.242188 -9.011719 L 6.007812 -4.34375 L 5.410156 -4.34375 L 3.132812 -8.15625 L 0.851562 -4.34375 L 0.242188 -4.34375 L 3.046875 -9.011719 Z "/>
</g>
<g id="glyph-0-5">
<path d="M 7.714844 -8.828125 L 7.8125 -6.757812 L 7.566406 -6.757812 C 7.515625 -7.121094 7.453125 -7.382812 7.371094 -7.539062 C 7.234375 -7.789062 7.054688 -7.976562 6.832031 -8.09375 C 6.609375 -8.214844 6.316406 -8.273438 5.949219 -8.273438 L 4.707031 -8.273438 L 4.707031 -1.53125 C 4.707031 -0.988281 4.765625 -0.648438 4.882812 -0.515625 C 5.046875 -0.332031 5.300781 -0.242188 5.644531 -0.242188 L 5.949219 -0.242188 L 5.949219 0 L 2.207031 0 L 2.207031 -0.242188 L 2.519531 -0.242188 C 2.894531 -0.242188 3.15625 -0.355469 3.3125 -0.578125 C 3.410156 -0.71875 3.457031 -1.035156 3.457031 -1.53125 L 3.457031 -8.273438 L 2.394531 -8.273438 C 1.984375 -8.273438 1.691406 -8.246094 1.515625 -8.183594 C 1.292969 -8.101562 1.097656 -7.941406 0.9375 -7.707031 C 0.777344 -7.472656 0.679688 -7.15625 0.652344 -6.757812 L 0.402344 -6.757812 L 0.507812 -8.828125 Z "/>
</g>
<g id="glyph-0-6">
<path d="M 2.46875 -9.257812 L 2.46875 -1.347656 C 2.46875 -0.972656 2.496094 -0.726562 2.546875 -0.605469 C 2.601562 -0.484375 2.6875 -0.390625 2.800781 -0.328125 C 2.914062 -0.265625 3.121094 -0.234375 3.429688 -0.234375 L 3.429688 0 L 0.507812 0 L 0.507812 -0.234375 C 0.78125 -0.234375 0.96875 -0.261719 1.066406 -0.320312 C 1.167969 -0.375 1.246094 -0.46875 1.300781 -0.597656 C 1.359375 -0.730469 1.386719 -0.980469 1.386719 -1.347656 L 1.386719 -6.765625 C 1.386719 -7.4375 1.371094 -7.851562 1.339844 -8.003906 C 1.3125 -8.160156 1.261719 -8.265625 1.195312 -8.320312 C 1.128906 -8.375 1.042969 -8.40625 0.9375 -8.40625 C 0.824219 -8.40625 0.679688 -8.371094 0.507812 -8.300781 L 0.398438 -8.527344 L 2.175781 -9.257812 Z "/>
</g>
<g id="glyph-0-7">
<path d="M 5.644531 -5.964844 L 5.644531 -2.351562 C 5.644531 -1.660156 5.660156 -1.238281 5.691406 -1.085938 C 5.726562 -0.929688 5.777344 -0.824219 5.847656 -0.761719 C 5.921875 -0.699219 6.003906 -0.671875 6.101562 -0.671875 C 6.234375 -0.671875 6.386719 -0.707031 6.554688 -0.78125 L 6.648438 -0.554688 L 4.863281 0.183594 L 4.570312 0.183594 L 4.570312 -1.082031 C 4.058594 -0.523438 3.667969 -0.175781 3.398438 -0.03125 C 3.128906 0.109375 2.84375 0.183594 2.546875 0.183594 C 2.210938 0.183594 1.921875 0.0859375 1.675781 -0.105469 C 1.429688 -0.300781 1.261719 -0.550781 1.164062 -0.851562 C 1.070312 -1.15625 1.023438 -1.585938 1.023438 -2.140625 L 1.023438 -4.804688 C 1.023438 -5.085938 0.992188 -5.28125 0.929688 -5.390625 C 0.871094 -5.5 0.78125 -5.582031 0.660156 -5.640625 C 0.542969 -5.699219 0.324219 -5.726562 0.0117188 -5.722656 L 0.0117188 -5.964844 L 2.101562 -5.964844 L 2.101562 -1.972656 C 2.101562 -1.417969 2.199219 -1.050781 2.390625 -0.878906 C 2.585938 -0.707031 2.820312 -0.617188 3.09375 -0.617188 C 3.277344 -0.617188 3.492188 -0.675781 3.726562 -0.792969 C 3.964844 -0.910156 4.246094 -1.136719 4.570312 -1.464844 L 4.570312 -4.84375 C 4.570312 -5.183594 4.507812 -5.410156 4.382812 -5.53125 C 4.261719 -5.648438 4.003906 -5.714844 3.613281 -5.722656 L 3.613281 -5.964844 Z "/>
</g>
<g id="glyph-0-8">
<path d="M 3.332031 -6.140625 C 4.234375 -6.140625 4.960938 -5.796875 5.507812 -5.109375 C 5.972656 -4.523438 6.203125 -3.851562 6.203125 -3.09375 C 6.203125 -2.558594 6.078125 -2.019531 5.820312 -1.472656 C 5.5625 -0.925781 5.210938 -0.511719 4.761719 -0.234375 C 4.3125 0.0429688 3.8125 0.183594 3.261719 0.183594 C 2.363281 0.183594 1.648438 -0.175781 1.121094 -0.890625 C 0.671875 -1.496094 0.449219 -2.171875 0.449219 -2.921875 C 0.449219 -3.46875 0.585938 -4.015625 0.855469 -4.554688 C 1.128906 -5.09375 1.484375 -5.492188 1.925781 -5.75 C 2.371094 -6.011719 2.839844 -6.140625 3.332031 -6.140625 M 3.132812 -5.714844 C 2.902344 -5.714844 2.671875 -5.648438 2.4375 -5.511719 C 2.207031 -5.375 2.019531 -5.132812 1.875 -4.792969 C 1.730469 -4.449219 1.660156 -4.007812 1.660156 -3.46875 C 1.660156 -2.601562 1.832031 -1.851562 2.179688 -1.222656 C 2.523438 -0.59375 2.976562 -0.28125 3.542969 -0.28125 C 3.960938 -0.28125 4.308594 -0.453125 4.582031 -0.800781 C 4.855469 -1.148438 4.992188 -1.746094 4.992188 -2.589844 C 4.992188 -3.648438 4.765625 -4.484375 4.308594 -5.089844 C 4 -5.507812 3.609375 -5.714844 3.132812 -5.714844 M 2.804688 -9.015625 L 4.003906 -9.015625 L 5.242188 -6.863281 L 5.039062 -6.863281 L 3.261719 -8.25 L 1.769531 -6.863281 L 1.574219 -6.863281 Z "/>
</g>
<g id="glyph-0-9">
<path d="M 2.15625 -4.875 C 2.855469 -5.71875 3.519531 -6.140625 4.152344 -6.140625 C 4.480469 -6.140625 4.757812 -6.058594 4.992188 -5.894531 C 5.226562 -5.730469 5.414062 -5.464844 5.554688 -5.089844 C 5.648438 -4.832031 5.695312 -4.429688 5.695312 -3.894531 L 5.695312 -1.347656 C 5.695312 -0.96875 5.726562 -0.714844 5.789062 -0.578125 C 5.835938 -0.472656 5.914062 -0.386719 6.019531 -0.324219 C 6.125 -0.265625 6.320312 -0.234375 6.609375 -0.234375 L 6.609375 0 L 3.660156 0 L 3.660156 -0.234375 L 3.78125 -0.234375 C 4.058594 -0.234375 4.253906 -0.277344 4.367188 -0.359375 C 4.476562 -0.445312 4.554688 -0.570312 4.597656 -0.734375 C 4.613281 -0.800781 4.621094 -1.003906 4.621094 -1.347656 L 4.621094 -3.789062 C 4.621094 -4.332031 4.550781 -4.726562 4.410156 -4.96875 C 4.269531 -5.214844 4.03125 -5.339844 3.699219 -5.339844 C 3.179688 -5.339844 2.667969 -5.054688 2.15625 -4.492188 L 2.15625 -1.347656 C 2.15625 -0.945312 2.179688 -0.695312 2.226562 -0.597656 C 2.289062 -0.472656 2.371094 -0.378906 2.476562 -0.320312 C 2.582031 -0.265625 2.800781 -0.234375 3.125 -0.234375 L 3.125 0 L 0.175781 0 L 0.175781 -0.234375 L 0.304688 -0.234375 C 0.609375 -0.234375 0.816406 -0.3125 0.921875 -0.464844 C 1.027344 -0.621094 1.082031 -0.914062 1.082031 -1.347656 L 1.082031 -3.5625 C 1.082031 -4.277344 1.0625 -4.714844 1.03125 -4.871094 C 1 -5.027344 0.949219 -5.132812 0.882812 -5.1875 C 0.816406 -5.246094 0.726562 -5.273438 0.613281 -5.273438 C 0.492188 -5.273438 0.34375 -5.242188 0.175781 -5.175781 L 0.078125 -5.410156 L 1.875 -6.140625 L 2.15625 -6.140625 Z "/>
</g>
<g id="glyph-0-10">
<path d="M 2.050781 -4.933594 C 2.628906 -5.738281 3.25 -6.140625 3.917969 -6.140625 C 4.53125 -6.140625 5.066406 -5.878906 5.519531 -5.355469 C 5.976562 -4.832031 6.203125 -4.117188 6.203125 -3.210938 C 6.203125 -2.152344 5.851562 -1.296875 5.148438 -0.652344 C 4.546875 -0.09375 3.875 0.183594 3.132812 0.183594 C 2.785156 0.183594 2.429688 0.121094 2.074219 -0.0078125 C 1.714844 -0.132812 1.351562 -0.320312 0.976562 -0.574219 L 0.976562 -6.75 C 0.976562 -7.429688 0.960938 -7.84375 0.925781 -8 C 0.894531 -8.15625 0.84375 -8.265625 0.773438 -8.320312 C 0.707031 -8.375 0.617188 -8.40625 0.515625 -8.40625 C 0.394531 -8.40625 0.242188 -8.371094 0.0585938 -8.300781 L -0.03125 -8.527344 L 1.757812 -9.257812 L 2.050781 -9.257812 L 2.050781 -4.933594 M 2.050781 -4.519531 L 2.050781 -0.949219 C 2.273438 -0.734375 2.5 -0.570312 2.738281 -0.457031 C 2.972656 -0.347656 3.214844 -0.292969 3.464844 -0.292969 C 3.859375 -0.292969 4.226562 -0.511719 4.566406 -0.945312 C 4.90625 -1.378906 5.078125 -2.007812 5.078125 -2.839844 C 5.078125 -3.601562 4.90625 -4.1875 4.566406 -4.601562 C 4.226562 -5.007812 3.839844 -5.214844 3.40625 -5.214844 C 3.175781 -5.214844 2.945312 -5.15625 2.714844 -5.039062 C 2.542969 -4.953125 2.320312 -4.777344 2.050781 -4.519531 Z "/>
</g>
<g id="glyph-0-11">
<path d="M 3.796875 -0.859375 C 3.183594 -0.386719 2.800781 -0.113281 2.644531 -0.0390625 C 2.410156 0.0703125 2.160156 0.125 1.894531 0.125 C 1.480469 0.125 1.140625 -0.015625 0.875 -0.300781 C 0.609375 -0.582031 0.476562 -0.953125 0.476562 -1.414062 C 0.476562 -1.703125 0.539062 -1.957031 0.671875 -2.167969 C 0.847656 -2.464844 1.15625 -2.742188 1.597656 -3 C 2.039062 -3.261719 2.769531 -3.578125 3.796875 -3.953125 L 3.796875 -4.1875 C 3.796875 -4.78125 3.699219 -5.1875 3.511719 -5.410156 C 3.324219 -5.632812 3.050781 -5.742188 2.6875 -5.742188 C 2.414062 -5.742188 2.199219 -5.667969 2.039062 -5.519531 C 1.871094 -5.375 1.789062 -5.203125 1.789062 -5.011719 L 1.804688 -4.636719 C 1.804688 -4.4375 1.753906 -4.28125 1.648438 -4.171875 C 1.546875 -4.066406 1.414062 -4.011719 1.25 -4.011719 C 1.089844 -4.011719 0.957031 -4.066406 0.855469 -4.179688 C 0.753906 -4.292969 0.703125 -4.445312 0.703125 -4.640625 C 0.703125 -5.015625 0.894531 -5.359375 1.277344 -5.671875 C 1.65625 -5.984375 2.195312 -6.140625 2.882812 -6.140625 C 3.414062 -6.140625 3.847656 -6.050781 4.1875 -5.871094 C 4.441406 -5.738281 4.632812 -5.527344 4.753906 -5.242188 C 4.832031 -5.054688 4.871094 -4.671875 4.871094 -4.09375 L 4.871094 -2.070312 C 4.871094 -1.5 4.878906 -1.152344 4.902344 -1.023438 C 4.925781 -0.898438 4.960938 -0.8125 5.007812 -0.769531 C 5.058594 -0.726562 5.117188 -0.703125 5.183594 -0.703125 C 5.25 -0.703125 5.3125 -0.71875 5.363281 -0.75 C 5.457031 -0.804688 5.632812 -0.964844 5.890625 -1.222656 L 5.890625 -0.859375 C 5.40625 -0.207031 4.941406 0.117188 4.5 0.117188 C 4.285156 0.117188 4.117188 0.0429688 3.992188 -0.105469 C 3.863281 -0.25 3.800781 -0.503906 3.796875 -0.859375 M 3.796875 -1.28125 L 3.796875 -3.554688 C 3.140625 -3.292969 2.71875 -3.109375 2.527344 -3 C 2.183594 -2.808594 1.9375 -2.609375 1.789062 -2.402344 C 1.644531 -2.195312 1.570312 -1.964844 1.570312 -1.71875 C 1.570312 -1.40625 1.664062 -1.148438 1.847656 -0.941406 C 2.035156 -0.734375 2.25 -0.632812 2.492188 -0.632812 C 2.824219 -0.632812 3.257812 -0.847656 3.796875 -1.28125 M 4.441406 -9.050781 L 2.519531 -6.804688 L 2.296875 -6.804688 L 2.980469 -9.050781 Z "/>
</g>
<g id="glyph-0-12">
<path d="M 0.175781 -5.964844 L 2.980469 -5.964844 L 2.980469 -5.722656 C 2.804688 -5.722656 2.679688 -5.691406 2.605469 -5.632812 C 2.535156 -5.570312 2.5 -5.492188 2.5 -5.390625 C 2.5 -5.285156 2.574219 -5.125 2.726562 -4.910156 C 2.777344 -4.839844 2.847656 -4.730469 2.941406 -4.582031 L 3.367188 -3.90625 L 3.855469 -4.582031 C 4.167969 -5.011719 4.324219 -5.285156 4.324219 -5.398438 C 4.324219 -5.488281 4.285156 -5.566406 4.210938 -5.628906 C 4.136719 -5.691406 4.019531 -5.722656 3.855469 -5.722656 L 3.855469 -5.964844 L 5.871094 -5.964844 L 5.871094 -5.722656 C 5.660156 -5.710938 5.476562 -5.652344 5.320312 -5.546875 C 5.105469 -5.398438 4.816406 -5.078125 4.445312 -4.582031 L 3.632812 -3.496094 L 5.117188 -1.359375 C 5.480469 -0.835938 5.742188 -0.519531 5.898438 -0.414062 C 6.054688 -0.308594 6.257812 -0.246094 6.503906 -0.234375 L 6.503906 0 L 3.691406 0 L 3.691406 -0.234375 C 3.886719 -0.234375 4.039062 -0.277344 4.148438 -0.363281 C 4.230469 -0.425781 4.269531 -0.503906 4.269531 -0.605469 C 4.269531 -0.707031 4.132812 -0.957031 3.855469 -1.359375 L 2.980469 -2.636719 L 2.023438 -1.359375 C 1.730469 -0.964844 1.582031 -0.730469 1.582031 -0.65625 C 1.582031 -0.554688 1.628906 -0.457031 1.726562 -0.375 C 1.824219 -0.289062 1.972656 -0.242188 2.167969 -0.234375 L 2.167969 0 L 0.222656 0 L 0.222656 -0.234375 C 0.378906 -0.257812 0.515625 -0.308594 0.632812 -0.398438 C 0.796875 -0.523438 1.074219 -0.84375 1.464844 -1.359375 L 2.714844 -3.019531 L 1.582031 -4.660156 C 1.261719 -5.128906 1.011719 -5.425781 0.835938 -5.542969 C 0.660156 -5.664062 0.441406 -5.722656 0.175781 -5.722656 Z "/>
</g>
<g id="glyph-0-13">
<path d="M 5.480469 -2.265625 C 5.320312 -1.480469 5.007812 -0.875 4.539062 -0.453125 C 4.070312 -0.03125 3.550781 0.183594 2.980469 0.183594 C 2.304688 0.183594 1.714844 -0.101562 1.210938 -0.671875 C 0.707031 -1.238281 0.457031 -2.007812 0.457031 -2.976562 C 0.457031 -3.914062 0.734375 -4.675781 1.292969 -5.261719 C 1.851562 -5.847656 2.519531 -6.140625 3.300781 -6.140625 C 3.886719 -6.140625 4.367188 -5.984375 4.746094 -5.671875 C 5.125 -5.363281 5.3125 -5.042969 5.3125 -4.707031 C 5.3125 -4.542969 5.257812 -4.410156 5.152344 -4.304688 C 5.046875 -4.203125 4.898438 -4.152344 4.707031 -4.152344 C 4.449219 -4.152344 4.257812 -4.234375 4.128906 -4.402344 C 4.054688 -4.492188 4.003906 -4.664062 3.980469 -4.921875 C 3.957031 -5.179688 3.871094 -5.375 3.71875 -5.507812 C 3.566406 -5.636719 3.355469 -5.703125 3.085938 -5.703125 C 2.652344 -5.703125 2.300781 -5.542969 2.039062 -5.222656 C 1.6875 -4.796875 1.511719 -4.234375 1.511719 -3.535156 C 1.511719 -2.824219 1.683594 -2.195312 2.035156 -1.648438 C 2.382812 -1.105469 2.855469 -0.832031 3.449219 -0.832031 C 3.875 -0.832031 4.257812 -0.980469 4.597656 -1.269531 C 4.835938 -1.46875 5.066406 -1.832031 5.292969 -2.355469 Z "/>
</g>
<g id="glyph-0-14">
<path d="M 4.433594 -6.953125 L 2.539062 -6.953125 L 2.539062 -7.488281 L 4.425781 -7.488281 C 4.410156 -7.902344 4.367188 -8.160156 4.292969 -8.257812 C 4.222656 -8.355469 4.113281 -8.40625 3.972656 -8.40625 C 3.859375 -8.40625 3.707031 -8.371094 3.523438 -8.300781 L 3.4375 -8.527344 L 5.214844 -9.257812 L 5.507812 -9.257812 L 5.507812 -7.488281 L 6.503906 -7.488281 L 6.503906 -6.953125 L 5.507812 -6.953125 L 5.507812 -2.363281 C 5.507812 -1.664062 5.523438 -1.238281 5.554688 -1.085938 C 5.589844 -0.929688 5.640625 -0.824219 5.710938 -0.761719 C 5.785156 -0.699219 5.867188 -0.671875 5.964844 -0.671875 C 6.082031 -0.671875 6.238281 -0.707031 6.433594 -0.78125 L 6.503906 -0.554688 L 4.734375 0.183594 L 4.433594 0.183594 L 4.433594 -0.671875 C 4.144531 -0.367188 3.859375 -0.148438 3.582031 -0.015625 C 3.304688 0.117188 3.003906 0.183594 2.683594 0.183594 C 2.03125 0.183594 1.460938 -0.0898438 0.976562 -0.632812 C 0.492188 -1.179688 0.246094 -1.878906 0.246094 -2.734375 C 0.246094 -3.589844 0.515625 -4.371094 1.054688 -5.082031 C 1.59375 -5.789062 2.285156 -6.144531 3.132812 -6.144531 C 3.65625 -6.144531 4.089844 -5.980469 4.433594 -5.644531 L 4.433594 -6.953125 M 4.433594 -1.125 L 4.433594 -4.199219 C 4.40625 -4.496094 4.328125 -4.761719 4.199219 -5.007812 C 4.070312 -5.25 3.894531 -5.433594 3.679688 -5.554688 C 3.464844 -5.679688 3.257812 -5.742188 3.054688 -5.742188 C 2.671875 -5.742188 2.332031 -5.570312 2.03125 -5.226562 C 1.636719 -4.777344 1.4375 -4.117188 1.4375 -3.25 C 1.4375 -2.371094 1.628906 -1.699219 2.011719 -1.234375 C 2.394531 -0.765625 2.820312 -0.535156 3.289062 -0.535156 C 3.683594 -0.535156 4.066406 -0.730469 4.433594 -1.125 Z "/>
</g>
<g id="glyph-0-15">
<path d="M 1.933594 -9.257812 C 2.117188 -9.257812 2.269531 -9.195312 2.398438 -9.066406 C 2.527344 -8.9375 2.589844 -8.78125 2.589844 -8.601562 C 2.589844 -8.417969 2.527344 -8.261719 2.398438 -8.132812 C 2.269531 -8 2.117188 -7.9375 1.933594 -7.9375 C 1.75 -7.9375 1.59375 -8 1.464844 -8.132812 C 1.335938 -8.261719 1.269531 -8.417969 1.269531 -8.601562 C 1.269531 -8.78125 1.332031 -8.9375 1.460938 -9.066406 C 1.589844 -9.195312 1.746094 -9.257812 1.933594 -9.257812 M 2.472656 -6.140625 L 2.472656 -1.347656 C 2.472656 -0.972656 2.5 -0.726562 2.554688 -0.601562 C 2.609375 -0.476562 2.691406 -0.386719 2.796875 -0.324219 C 2.902344 -0.265625 3.097656 -0.234375 3.378906 -0.234375 L 3.378906 0 L 0.480469 0 L 0.480469 -0.234375 C 0.773438 -0.234375 0.96875 -0.261719 1.066406 -0.320312 C 1.167969 -0.375 1.246094 -0.46875 1.304688 -0.597656 C 1.363281 -0.730469 1.394531 -0.980469 1.394531 -1.347656 L 1.394531 -3.644531 C 1.394531 -4.292969 1.375 -4.710938 1.335938 -4.902344 C 1.304688 -5.042969 1.257812 -5.136719 1.191406 -5.191406 C 1.125 -5.246094 1.039062 -5.273438 0.925781 -5.273438 C 0.804688 -5.273438 0.65625 -5.242188 0.480469 -5.175781 L 0.390625 -5.410156 L 2.1875 -6.140625 L 2.472656 -6.140625 M 1.933594 0.78125 C 2.136719 0.78125 2.308594 0.851562 2.449219 0.992188 C 2.585938 1.132812 2.65625 1.304688 2.65625 1.503906 C 2.65625 1.703125 2.585938 1.875 2.445312 2.015625 C 2.304688 2.15625 2.132812 2.226562 1.933594 2.226562 C 1.734375 2.226562 1.5625 2.15625 1.421875 2.015625 C 1.28125 1.875 1.210938 1.703125 1.210938 1.503906 C 1.210938 1.300781 1.28125 1.128906 1.421875 0.988281 C 1.5625 0.851562 1.734375 0.78125 1.933594 0.78125 Z "/>
</g>
<g id="glyph-0-16">
<path d="M 2.167969 -9.257812 L 2.167969 -4.894531 C 2.648438 -5.425781 3.03125 -5.765625 3.3125 -5.914062 C 3.597656 -6.0625 3.878906 -6.140625 4.160156 -6.140625 C 4.5 -6.140625 4.789062 -6.046875 5.03125 -5.859375 C 5.277344 -5.671875 5.457031 -5.378906 5.574219 -4.980469 C 5.65625 -4.703125 5.695312 -4.195312 5.695312 -3.457031 L 5.695312 -1.347656 C 5.695312 -0.96875 5.726562 -0.710938 5.789062 -0.574219 C 5.832031 -0.46875 5.90625 -0.386719 6.007812 -0.324219 C 6.113281 -0.265625 6.304688 -0.234375 6.582031 -0.234375 L 6.582031 0 L 3.652344 0 L 3.652344 -0.234375 L 3.789062 -0.234375 C 4.066406 -0.234375 4.261719 -0.277344 4.367188 -0.359375 C 4.476562 -0.445312 4.554688 -0.570312 4.597656 -0.734375 C 4.609375 -0.804688 4.617188 -1.007812 4.617188 -1.347656 L 4.617188 -3.457031 C 4.617188 -4.109375 4.582031 -4.535156 4.515625 -4.738281 C 4.449219 -4.945312 4.339844 -5.097656 4.191406 -5.199219 C 4.046875 -5.300781 3.867188 -5.351562 3.660156 -5.351562 C 3.445312 -5.351562 3.226562 -5.296875 2.996094 -5.183594 C 2.765625 -5.070312 2.488281 -4.839844 2.167969 -4.5 L 2.167969 -1.347656 C 2.167969 -0.941406 2.191406 -0.6875 2.234375 -0.585938 C 2.28125 -0.484375 2.367188 -0.402344 2.492188 -0.335938 C 2.613281 -0.269531 2.828125 -0.234375 3.132812 -0.234375 L 3.132812 0 L 0.175781 0 L 0.175781 -0.234375 C 0.441406 -0.234375 0.648438 -0.277344 0.800781 -0.359375 C 0.886719 -0.402344 0.957031 -0.484375 1.007812 -0.605469 C 1.0625 -0.726562 1.085938 -0.972656 1.085938 -1.347656 L 1.085938 -6.746094 C 1.085938 -7.425781 1.070312 -7.84375 1.039062 -8 C 1.007812 -8.15625 0.957031 -8.265625 0.886719 -8.320312 C 0.820312 -8.375 0.730469 -8.40625 0.617188 -8.40625 C 0.527344 -8.40625 0.378906 -8.371094 0.175781 -8.300781 L 0.0859375 -8.527344 L 1.867188 -9.257812 Z "/>
</g>
<g id="glyph-0-17">
<path d="M 4.628906 -0.671875 C 4.339844 -0.367188 4.054688 -0.148438 3.777344 -0.015625 C 3.5 0.117188 3.199219 0.183594 2.878906 0.183594 C 2.226562 0.183594 1.65625 -0.0898438 1.171875 -0.632812 C 0.6875 -1.179688 0.441406 -1.878906 0.441406 -2.734375 C 0.441406 -3.589844 0.710938 -4.371094 1.25 -5.082031 C 1.789062 -5.789062 2.480469 -6.144531 3.328125 -6.144531 C 3.851562 -6.144531 4.285156 -5.980469 4.628906 -5.644531 L 4.628906 -6.746094 C 4.628906 -7.425781 4.613281 -7.84375 4.578125 -8 C 4.546875 -8.15625 4.496094 -8.265625 4.425781 -8.320312 C 4.359375 -8.375 4.269531 -8.40625 4.167969 -8.40625 C 4.054688 -8.40625 3.902344 -8.371094 3.71875 -8.300781 L 3.632812 -8.527344 L 5.410156 -9.257812 L 5.703125 -9.257812 L 5.703125 -2.363281 C 5.703125 -1.664062 5.71875 -1.238281 5.75 -1.085938 C 5.785156 -0.929688 5.835938 -0.824219 5.90625 -0.761719 C 5.980469 -0.699219 6.0625 -0.671875 6.160156 -0.671875 C 6.277344 -0.671875 6.433594 -0.707031 6.628906 -0.78125 L 6.699219 -0.554688 L 4.929688 0.183594 L 4.628906 0.183594 L 4.628906 -0.671875 M 4.628906 -1.125 L 4.628906 -4.199219 C 4.601562 -4.496094 4.523438 -4.761719 4.394531 -5.007812 C 4.265625 -5.25 4.09375 -5.433594 3.875 -5.554688 C 3.660156 -5.679688 3.453125 -5.742188 3.25 -5.742188 C 2.867188 -5.742188 2.527344 -5.570312 2.226562 -5.226562 C 1.832031 -4.777344 1.632812 -4.117188 1.632812 -3.25 C 1.632812 -2.371094 1.824219 -1.699219 2.207031 -1.234375 C 2.589844 -0.765625 3.015625 -0.535156 3.484375 -0.535156 C 3.878906 -0.535156 4.261719 -0.730469 4.628906 -1.125 Z "/>
</g>
<g id="glyph-0-18">
<path d="M 6.238281 -4.953125 C 6.367188 -5.015625 6.410156 -5.085938 6.359375 -5.164062 C 6.359375 -5.167969 6.3125 -5.203125 6.214844 -5.265625 C 6.117188 -5.332031 6.046875 -5.402344 6.007812 -5.476562 C 5.921875 -5.621094 5.898438 -5.765625 5.9375 -5.90625 C 5.972656 -6.042969 6.066406 -6.15625 6.21875 -6.238281 C 6.371094 -6.324219 6.53125 -6.34375 6.699219 -6.296875 C 6.890625 -6.234375 7.03125 -6.109375 7.117188 -5.917969 C 7.207031 -5.726562 7.214844 -5.519531 7.140625 -5.292969 C 7.054688 -5.035156 6.871094 -4.851562 6.59375 -4.738281 C 6.359375 -4.644531 6.042969 -4.59375 5.644531 -4.589844 L 5.644531 -2.351562 C 5.644531 -1.710938 5.660156 -1.289062 5.691406 -1.082031 C 5.714844 -0.9375 5.769531 -0.832031 5.851562 -0.761719 C 5.921875 -0.699219 6.003906 -0.671875 6.101562 -0.671875 C 6.234375 -0.671875 6.386719 -0.707031 6.554688 -0.78125 L 6.648438 -0.554688 L 4.863281 0.183594 L 4.570312 0.183594 L 4.570312 -1.082031 C 4.085938 -0.554688 3.695312 -0.207031 3.398438 -0.03125 C 3.152344 0.109375 2.867188 0.183594 2.546875 0.183594 C 1.84375 0.183594 1.382812 -0.164062 1.164062 -0.851562 C 1.070312 -1.15625 1.023438 -1.585938 1.023438 -2.140625 L 1.023438 -4.804688 C 1.023438 -5.242188 0.902344 -5.523438 0.664062 -5.644531 C 0.542969 -5.699219 0.324219 -5.726562 0.0117188 -5.722656 L 0.0117188 -5.964844 L 2.101562 -5.964844 L 2.101562 -1.972656 C 2.101562 -1.070312 2.433594 -0.617188 3.09375 -0.617188 C 3.277344 -0.617188 3.492188 -0.675781 3.726562 -0.792969 C 3.964844 -0.910156 4.246094 -1.136719 4.570312 -1.464844 L 4.570312 -4.84375 C 4.570312 -5.1875 4.507812 -5.417969 4.382812 -5.535156 C 4.253906 -5.652344 4 -5.714844 3.613281 -5.722656 L 3.613281 -5.964844 L 5.644531 -5.964844 L 5.644531 -4.84375 C 5.777344 -4.851562 5.976562 -4.890625 6.238281 -4.953125 Z "/>
</g>
<g id="glyph-0-19">
<path d="M 3.132812 -5.714844 C 2.550781 -5.714844 2.132812 -5.40625 1.875 -4.792969 C 1.730469 -4.449219 1.660156 -4.007812 1.660156 -3.46875 C 1.660156 -2.582031 1.832031 -1.832031 2.175781 -1.222656 C 2.535156 -0.59375 2.992188 -0.28125 3.542969 -0.28125 C 4.507812 -0.28125 4.992188 -1.050781 4.992188 -2.589844 C 4.992188 -3.644531 4.765625 -4.480469 4.308594 -5.089844 C 3.996094 -5.507812 3.605469 -5.714844 3.132812 -5.714844 M 6.132812 -4.953125 C 6.261719 -5.015625 6.304688 -5.085938 6.257812 -5.164062 C 6.175781 -5.207031 6.058594 -5.308594 5.90625 -5.476562 C 5.816406 -5.621094 5.792969 -5.765625 5.832031 -5.90625 C 5.867188 -6.042969 5.960938 -6.15625 6.113281 -6.238281 C 6.265625 -6.324219 6.425781 -6.34375 6.59375 -6.296875 C 6.785156 -6.234375 6.925781 -6.109375 7.015625 -5.917969 C 7.105469 -5.726562 7.113281 -5.519531 7.039062 -5.292969 C 6.949219 -5.035156 6.769531 -4.851562 6.492188 -4.738281 C 6.347656 -4.683594 6.128906 -4.636719 5.839844 -4.601562 C 6.082031 -4.148438 6.203125 -3.644531 6.203125 -3.09375 C 6.203125 -2.542969 6.078125 -2 5.820312 -1.472656 C 5.550781 -0.914062 5.199219 -0.503906 4.765625 -0.234375 C 4.3125 0.0429688 3.8125 0.183594 3.261719 0.183594 C 2.363281 0.183594 1.648438 -0.175781 1.121094 -0.890625 C 0.671875 -1.496094 0.449219 -2.171875 0.449219 -2.921875 C 0.449219 -3.480469 0.585938 -4.027344 0.863281 -4.5625 C 1.136719 -5.101562 1.496094 -5.5 1.933594 -5.753906 C 2.371094 -6.011719 2.839844 -6.140625 3.332031 -6.140625 C 4.234375 -6.140625 4.960938 -5.796875 5.507812 -5.109375 C 5.578125 -5.023438 5.640625 -4.933594 5.695312 -4.84375 C 5.785156 -4.851562 5.929688 -4.890625 6.132812 -4.953125 Z "/>
</g>
<g id="glyph-0-20">
<path d="M 2.011719 -2.175781 C 1.648438 -2.351562 1.367188 -2.601562 1.171875 -2.917969 C 0.976562 -3.238281 0.878906 -3.589844 0.878906 -3.976562 C 0.878906 -4.566406 1.101562 -5.074219 1.546875 -5.5 C 1.992188 -5.925781 2.5625 -6.140625 3.253906 -6.140625 C 3.824219 -6.140625 4.316406 -6 4.734375 -5.722656 L 5.996094 -5.722656 C 6.183594 -5.722656 6.292969 -5.71875 6.320312 -5.707031 C 6.351562 -5.695312 6.375 -5.675781 6.386719 -5.652344 C 6.414062 -5.613281 6.425781 -5.542969 6.425781 -5.441406 C 6.425781 -5.328125 6.414062 -5.25 6.394531 -5.207031 C 6.378906 -5.1875 6.355469 -5.167969 6.324219 -5.15625 C 6.292969 -5.144531 6.183594 -5.136719 5.996094 -5.136719 L 5.222656 -5.136719 C 5.464844 -4.824219 5.585938 -4.425781 5.585938 -3.9375 C 5.585938 -3.382812 5.375 -2.90625 4.949219 -2.511719 C 4.523438 -2.117188 3.953125 -1.921875 3.234375 -1.921875 C 2.941406 -1.921875 2.640625 -1.964844 2.332031 -2.050781 C 2.140625 -1.886719 2.011719 -1.742188 1.941406 -1.617188 C 1.875 -1.492188 1.84375 -1.390625 1.84375 -1.300781 C 1.84375 -1.226562 1.878906 -1.15625 1.949219 -1.085938 C 2.023438 -1.019531 2.160156 -0.96875 2.371094 -0.9375 C 2.492188 -0.921875 2.796875 -0.90625 3.28125 -0.890625 C 4.175781 -0.871094 4.753906 -0.839844 5.019531 -0.800781 C 5.421875 -0.746094 5.746094 -0.59375 5.984375 -0.351562 C 6.226562 -0.109375 6.347656 0.191406 6.347656 0.546875 C 6.347656 1.039062 6.117188 1.496094 5.65625 1.925781 C 4.980469 2.5625 4.097656 2.878906 3.007812 2.878906 C 2.171875 2.878906 1.460938 2.6875 0.886719 2.3125 C 0.558594 2.09375 0.398438 1.867188 0.398438 1.632812 C 0.398438 1.53125 0.421875 1.425781 0.46875 1.320312 C 0.542969 1.160156 0.695312 0.9375 0.925781 0.652344 C 0.953125 0.613281 1.175781 0.378906 1.589844 -0.0507812 C 1.363281 -0.1875 1.203125 -0.308594 1.109375 -0.414062 C 1.015625 -0.519531 0.96875 -0.640625 0.96875 -0.773438 C 0.96875 -0.925781 1.03125 -1.105469 1.15625 -1.308594 C 1.277344 -1.511719 1.566406 -1.800781 2.011719 -2.175781 M 3.144531 -5.828125 C 2.824219 -5.828125 2.554688 -5.699219 2.335938 -5.441406 C 2.121094 -5.1875 2.011719 -4.792969 2.011719 -4.265625 C 2.011719 -3.578125 2.160156 -3.046875 2.453125 -2.667969 C 2.679688 -2.382812 2.964844 -2.238281 3.3125 -2.238281 C 3.644531 -2.238281 3.914062 -2.363281 4.128906 -2.609375 C 4.339844 -2.859375 4.445312 -3.246094 4.445312 -3.777344 C 4.445312 -4.464844 4.296875 -5.007812 3.996094 -5.398438 C 3.777344 -5.683594 3.492188 -5.828125 3.144531 -5.828125 M 1.945312 0 C 1.742188 0.222656 1.589844 0.425781 1.484375 0.617188 C 1.378906 0.808594 1.328125 0.984375 1.328125 1.144531 C 1.328125 1.355469 1.453125 1.535156 1.707031 1.691406 C 2.140625 1.960938 2.765625 2.097656 3.585938 2.097656 C 4.367188 2.097656 4.945312 1.957031 5.316406 1.683594 C 5.6875 1.40625 5.871094 1.113281 5.871094 0.800781 C 5.871094 0.574219 5.761719 0.414062 5.539062 0.320312 C 5.316406 0.222656 4.867188 0.167969 4.199219 0.148438 C 3.222656 0.125 2.472656 0.0742188 1.945312 0 Z "/>
</g>
</g>
</defs>
<g fill="rgb(100%, 100%, 100%)" fill-opacity="1">
<use xlink:href="#glyph-0-0" x="30" y="31.880859"/>
<use xlink:href="#glyph-0-1" x="37" y="31.880859"/>
<use xlink:href="#glyph-0-2" x="40" y="31.880859"/>
<use xlink:href="#glyph-0-3" x="43" y="31.880859"/>
<use xlink:href="#glyph-0-4" x="53" y="31.880859"/>
<use xlink:href="#glyph-0-5" x="59" y="31.880859"/>
<use xlink:href="#glyph-0-2" x="67" y="31.880859"/>
<use xlink:href="#glyph-0-3" x="70" y="31.880859"/>
<use xlink:href="#glyph-0-2" x="79" y="31.880859"/>
<use xlink:href="#glyph-0-6" x="82" y="31.880859"/>
<use xlink:href="#glyph-0-7" x="86" y="31.880859"/>
<use xlink:href="#glyph-0-8" x="93" y="31.880859"/>
<use xlink:href="#glyph-0-9" x="100" y="31.880859"/>
<use xlink:href="#glyph-0-2" x="107" y="31.880859"/>
<use xlink:href="#glyph-0-10" x="110" y="31.880859"/>
<use xlink:href="#glyph-0-11" x="117" y="31.880859"/>
<use xlink:href="#glyph-0-9" x="123" y="31.880859"/>
<use xlink:href="#glyph-0-2" x="130" y="31.880859"/>
<use xlink:href="#glyph-0-12" x="133" y="31.880859"/>
<use xlink:href="#glyph-0-11" x="140" y="31.880859"/>
<use xlink:href="#glyph-0-13" x="146" y="31.880859"/>
<use xlink:href="#glyph-0-2" x="152" y="31.880859"/>
<use xlink:href="#glyph-0-14" x="155" y="31.880859"/>
<use xlink:href="#glyph-0-15" x="162" y="31.880859"/>
<use xlink:href="#glyph-0-9" x="166" y="31.880859"/>
<use xlink:href="#glyph-0-16" x="173" y="31.880859"/>
<use xlink:href="#glyph-0-2" x="180" y="31.880859"/>
<use xlink:href="#glyph-0-17" x="183" y="31.880859"/>
<use xlink:href="#glyph-0-18" x="190" y="31.880859"/>
<use xlink:href="#glyph-0-19" x="197" y="31.880859"/>
<use xlink:href="#glyph-0-9" x="204" y="31.880859"/>
<use xlink:href="#glyph-0-20" x="211" y="31.880859"/>
</g>
</svg>
