<?xml version="1.0" encoding="UTF-8"?>
<svg xmlns="http://www.w3.org/2000/svg" xmlns:xlink="http://www.w3.org/1999/xlink" width="854" height="480" viewBox="0 0 854 480">
<defs>
<g>
<g id="glyph-0-0">
<path d="M 2.886719 -0.683594 C 2.976562 -0.851562 3.039062 -1.035156 3.078125 -1.226562 C 3.117188 -1.417969 3.136719 -1.640625 3.136719 -1.886719 C 3.136719 -2.082031 3.117188 -2.285156 3.082031 -2.496094 C 3.046875 -2.707031 2.988281 -2.882812 2.917969 -3.023438 C 2.832031 -3.175781 2.726562 -3.296875 2.601562 -3.386719 C 2.476562 -3.472656 2.308594 -3.515625 2.109375 -3.515625 C 1.902344 -3.515625 1.730469 -3.46875 1.597656 -3.371094 C 1.460938 -3.273438 1.351562 -3.148438 1.273438 -2.992188 C 1.195312 -2.851562 1.140625 -2.683594 1.105469 -2.496094 C 1.070312 -2.308594 1.050781 -2.113281 1.050781 -1.90625 C 1.050781 -1.683594 1.070312 -1.464844 1.109375 -1.253906 C 1.148438 -1.042969 1.210938 -0.855469 1.296875 -0.695312 C 1.386719 -0.53125 1.492188 -0.40625 1.625 -0.3125 C 1.753906 -0.222656 1.914062 -0.175781 2.109375 -0.175781 C 2.28125 -0.175781 2.433594 -0.222656 2.566406 -0.3125 C 2.699219 -0.40625 2.804688 -0.527344 2.886719 -0.683594 M 2.875 -3.742188 L 4.375 -3.742188 L 4.375 -3.277344 L 3.289062 -3.277344 L 3.289062 -3.257812 C 3.496094 -3.085938 3.652344 -2.882812 3.761719 -2.644531 C 3.867188 -2.410156 3.921875 -2.148438 3.921875 -1.859375 C 3.921875 -1.605469 3.882812 -1.355469 3.800781 -1.117188 C 3.71875 -0.875 3.597656 -0.664062 3.441406 -0.484375 C 3.277344 -0.300781 3.085938 -0.15625 2.859375 -0.046875 C 2.632812 0.0585938 2.367188 0.113281 2.058594 0.113281 C 1.820312 0.113281 1.59375 0.0703125 1.378906 -0.0195312 C 1.164062 -0.109375 0.972656 -0.242188 0.804688 -0.414062 C 0.640625 -0.582031 0.507812 -0.789062 0.410156 -1.035156 C 0.316406 -1.277344 0.265625 -1.554688 0.265625 -1.855469 C 0.265625 -2.160156 0.308594 -2.429688 0.394531 -2.667969 C 0.480469 -2.90625 0.605469 -3.113281 0.765625 -3.296875 C 0.925781 -3.46875 1.117188 -3.605469 1.351562 -3.703125 C 1.585938 -3.800781 1.839844 -3.851562 2.113281 -3.851562 C 2.257812 -3.851562 2.386719 -3.84375 2.5 -3.824219 C 2.613281 -3.804688 2.738281 -3.777344 2.875 -3.742188 Z "/>
</g>
<g id="glyph-0-1">
</g>
<g id="glyph-0-2">
<path d="M 4.417969 -2.59375 L 0.585938 -2.59375 L 0.585938 -3.070312 L 4.417969 -3.070312 L 4.417969 -2.59375 M 4.417969 -1.179688 L 0.585938 -1.179688 L 0.585938 -1.65625 L 4.417969 -1.65625 Z "/>
</g>
<g id="glyph-0-3">
<path d="M 5.429688 -6.472656 L 2.570312 0.476562 L 2.316406 0.476562 L 0.863281 -3.074219 L 0.164062 -3.074219 L 0.164062 -3.429688 L 1.53125 -3.429688 L 2.625 -0.683594 L 4.988281 -6.472656 Z "/>
</g>
<g id="glyph-0-4">
<path d="M 1.269531 -5.015625 C 1.191406 -5.023438 1.097656 -5.027344 0.992188 -5.027344 C 0.886719 -5.027344 0.8125 -5.027344 0.769531 -5.03125 C 0.644531 -5.035156 0.546875 -5.082031 0.476562 -5.171875 C 0.410156 -5.257812 0.375 -5.347656 0.375 -5.441406 C 0.375 -5.554688 0.421875 -5.660156 0.507812 -5.75 C 0.597656 -5.839844 0.722656 -5.886719 0.886719 -5.886719 C 1.09375 -5.886719 1.269531 -5.820312 1.414062 -5.691406 C 1.558594 -5.5625 1.679688 -5.347656 1.785156 -5.046875 C 1.902344 -4.710938 2.023438 -4.371094 2.148438 -4.027344 C 2.277344 -3.683594 2.398438 -3.339844 2.519531 -3 C 2.667969 -2.582031 2.808594 -2.1875 2.9375 -1.820312 C 3.066406 -1.453125 3.179688 -1.152344 3.277344 -0.914062 C 3.378906 -0.667969 3.464844 -0.503906 3.535156 -0.425781 C 3.601562 -0.351562 3.722656 -0.3125 3.894531 -0.3125 L 4.066406 -0.3125 L 4.066406 -0.0664062 C 3.941406 -0.03125 3.828125 0.00390625 3.726562 0.03125 C 3.628906 0.0625 3.519531 0.0742188 3.40625 0.0742188 C 3.300781 0.0742188 3.214844 0.0546875 3.148438 0.015625 C 3.078125 -0.0234375 3.019531 -0.0820312 2.96875 -0.160156 C 2.921875 -0.234375 2.878906 -0.324219 2.84375 -0.4375 C 2.808594 -0.546875 2.777344 -0.65625 2.746094 -0.753906 C 2.683594 -0.964844 2.605469 -1.257812 2.515625 -1.628906 C 2.421875 -2 2.300781 -2.429688 2.15625 -2.921875 C 1.984375 -2.585938 1.792969 -2.1875 1.578125 -1.726562 C 1.363281 -1.265625 1.191406 -0.898438 1.058594 -0.628906 C 0.996094 -0.5 0.945312 -0.386719 0.914062 -0.292969 C 0.882812 -0.199219 0.851562 -0.101562 0.820312 0 L -0.0507812 0 L 1.808594 -3.753906 C 1.722656 -4.046875 1.636719 -4.289062 1.550781 -4.484375 C 1.464844 -4.679688 1.371094 -4.855469 1.269531 -5.015625 Z "/>
</g>
</g>
</defs>
<g fill="rgb(100%, 100%, 100%)" fill-opacity="1">
<use xlink:href="#glyph-0-0" x="30" y="27.131836"/>
<use xlink:href="#glyph-0-1" x="34" y="27.131836"/>
<use xlink:href="#glyph-0-2" x="36" y="27.131836"/>
<use xlink:href="#glyph-0-1" x="41" y="27.131836"/>
<use xlink:href="#glyph-0-3" x="43" y="27.131836"/>
<use xlink:href="#glyph-0-4" x="48" y="27.131836"/>
</g>
</svg>
