<?xml version="1.0" encoding="UTF-8"?>
<svg xmlns="http://www.w3.org/2000/svg" xmlns:xlink="http://www.w3.org/1999/xlink" width="1920" height="1080" viewBox="0 0 1920 1080">
<defs>
<g>
<g id="glyph-0-0">
<path d="M 6.269531 -1.714844 C 6.078125 -1.109375 5.757812 -0.652344 5.304688 -0.339844 C 4.855469 -0.03125 4.285156 0.125 3.597656 0.125 C 3.175781 0.125 2.785156 0.0546875 2.421875 -0.0898438 C 2.058594 -0.234375 1.738281 -0.449219 1.457031 -0.730469 C 1.132812 -1.054688 0.894531 -1.421875 0.734375 -1.832031 C 0.578125 -2.246094 0.5 -2.710938 0.5 -3.234375 C 0.5 -4.242188 0.789062 -5.054688 1.371094 -5.671875 C 1.953125 -6.289062 2.71875 -6.597656 3.671875 -6.597656 C 4.023438 -6.597656 4.402344 -6.550781 4.800781 -6.457031 C 5.199219 -6.367188 5.628906 -6.226562 6.089844 -6.039062 L 6.089844 -4.542969 L 5.597656 -4.542969 C 5.492188 -5.089844 5.277344 -5.488281 4.953125 -5.746094 C 4.632812 -6.003906 4.179688 -6.132812 3.597656 -6.132812 C 2.90625 -6.132812 2.382812 -5.886719 2.027344 -5.398438 C 1.671875 -4.90625 1.492188 -4.1875 1.492188 -3.234375 C 1.492188 -2.285156 1.671875 -1.566406 2.027344 -1.074219 C 2.382812 -0.582031 2.90625 -0.339844 3.597656 -0.339844 C 4.082031 -0.339844 4.480469 -0.453125 4.792969 -0.683594 C 5.105469 -0.914062 5.332031 -1.257812 5.46875 -1.714844 Z "/>
</g>
<g id="glyph-0-1">
<path d="M 0.363281 0 L 0.363281 -0.460938 L 1.085938 -0.460938 L 1.085938 -6.292969 L 0.320312 -6.292969 L 0.320312 -6.753906 L 1.882812 -6.753906 L 1.882812 -3.792969 C 2.03125 -4.105469 2.222656 -4.34375 2.457031 -4.5 C 2.695312 -4.660156 2.96875 -4.738281 3.28125 -4.738281 C 3.789062 -4.738281 4.164062 -4.59375 4.40625 -4.300781 C 4.644531 -4.007812 4.765625 -3.554688 4.765625 -2.933594 L 4.765625 -0.460938 L 5.476562 -0.460938 L 5.476562 0 L 3.273438 0 L 3.273438 -0.460938 L 3.960938 -0.460938 L 3.960938 -2.683594 C 3.960938 -3.246094 3.894531 -3.632812 3.757812 -3.839844 C 3.621094 -4.046875 3.375 -4.148438 3.019531 -4.148438 C 2.652344 -4.148438 2.367188 -4.015625 2.175781 -3.746094 C 1.980469 -3.476562 1.882812 -3.085938 1.882812 -2.570312 L 1.882812 -0.460938 L 2.578125 -0.460938 L 2.578125 0 Z "/>
</g>
<g id="glyph-0-2">
<path d="M 4.816406 -2.222656 L 1.375 -2.222656 L 1.375 -2.1875 C 1.375 -1.566406 1.492188 -1.097656 1.726562 -0.777344 C 1.960938 -0.460938 2.308594 -0.304688 2.765625 -0.304688 C 3.113281 -0.304688 3.402344 -0.394531 3.625 -0.578125 C 3.851562 -0.761719 4.007812 -1.035156 4.097656 -1.398438 L 4.738281 -1.398438 C 4.613281 -0.890625 4.378906 -0.511719 4.035156 -0.257812 C 3.691406 0 3.242188 0.125 2.683594 0.125 C 2.007812 0.125 1.464844 -0.0976562 1.058594 -0.539062 C 0.648438 -0.984375 0.441406 -1.574219 0.441406 -2.308594 C 0.441406 -3.039062 0.644531 -3.625 1.046875 -4.070312 C 1.449219 -4.515625 1.976562 -4.738281 2.628906 -4.738281 C 3.328125 -4.738281 3.863281 -4.523438 4.234375 -4.09375 C 4.609375 -3.664062 4.804688 -3.042969 4.816406 -2.222656 M 3.875 -2.683594 C 3.859375 -3.21875 3.746094 -3.625 3.535156 -3.898438 C 3.324219 -4.171875 3.023438 -4.308594 2.628906 -4.308594 C 2.261719 -4.308594 1.972656 -4.171875 1.761719 -3.898438 C 1.550781 -3.621094 1.421875 -3.21875 1.375 -2.683594 L 3.875 -2.683594 M 3.234375 -7.109375 L 4.097656 -7.109375 L 2.621094 -5.476562 L 2.113281 -5.476562 Z "/>
</g>
<g id="glyph-0-3">
<path d="M 2.671875 -0.304688 C 3.101562 -0.304688 3.425781 -0.472656 3.644531 -0.8125 C 3.863281 -1.148438 3.972656 -1.648438 3.972656 -2.308594 C 3.972656 -2.96875 3.863281 -3.46875 3.644531 -3.804688 C 3.425781 -4.140625 3.101562 -4.308594 2.671875 -4.308594 C 2.246094 -4.308594 1.921875 -4.140625 1.703125 -3.804688 C 1.484375 -3.46875 1.375 -2.96875 1.375 -2.308594 C 1.375 -1.648438 1.484375 -1.148438 1.707031 -0.8125 C 1.925781 -0.472656 2.25 -0.304688 2.671875 -0.304688 M 2.671875 0.125 C 2.003906 0.125 1.460938 -0.0976562 1.054688 -0.539062 C 0.648438 -0.984375 0.441406 -1.574219 0.441406 -2.308594 C 0.441406 -3.042969 0.644531 -3.632812 1.050781 -4.074219 C 1.460938 -4.519531 2 -4.738281 2.671875 -4.738281 C 3.347656 -4.738281 3.886719 -4.519531 4.292969 -4.074219 C 4.703125 -3.632812 4.90625 -3.042969 4.90625 -2.308594 C 4.90625 -1.574219 4.703125 -0.984375 4.292969 -0.539062 C 3.886719 -0.0976562 3.347656 0.125 2.671875 0.125 Z "/>
</g>
<g id="glyph-0-4">
</g>
<g id="glyph-0-5">
<path d="M 3.539062 -1.449219 L 3.539062 -2.425781 L 2.507812 -2.425781 C 2.113281 -2.425781 1.816406 -2.339844 1.625 -2.171875 C 1.429688 -2 1.332031 -1.738281 1.332031 -1.382812 C 1.332031 -1.0625 1.429688 -0.808594 1.628906 -0.621094 C 1.824219 -0.433594 2.089844 -0.339844 2.425781 -0.339844 C 2.757812 -0.339844 3.027344 -0.441406 3.230469 -0.648438 C 3.433594 -0.851562 3.539062 -1.121094 3.539062 -1.449219 M 4.335938 -2.882812 L 4.335938 -0.460938 L 5.046875 -0.460938 L 5.046875 0 L 3.539062 0 L 3.539062 -0.5 C 3.359375 -0.285156 3.15625 -0.128906 2.925781 -0.0273438 C 2.695312 0.0742188 2.421875 0.125 2.113281 0.125 C 1.601562 0.125 1.195312 -0.0117188 0.894531 -0.28125 C 0.59375 -0.554688 0.441406 -0.921875 0.441406 -1.382812 C 0.441406 -1.863281 0.613281 -2.234375 0.960938 -2.496094 C 1.304688 -2.757812 1.789062 -2.890625 2.417969 -2.890625 L 3.539062 -2.890625 L 3.539062 -3.207031 C 3.539062 -3.558594 3.429688 -3.828125 3.21875 -4.019531 C 3.003906 -4.214844 2.707031 -4.308594 2.320312 -4.308594 C 2.003906 -4.308594 1.75 -4.238281 1.5625 -4.09375 C 1.375 -3.949219 1.257812 -3.734375 1.210938 -3.449219 L 0.796875 -3.449219 L 0.796875 -4.382812 C 1.078125 -4.503906 1.347656 -4.589844 1.609375 -4.652344 C 1.871094 -4.710938 2.125 -4.738281 2.375 -4.738281 C 3.015625 -4.738281 3.5 -4.582031 3.835938 -4.265625 C 4.167969 -3.949219 4.335938 -3.488281 4.335938 -2.882812 M 3.074219 -7.109375 L 3.9375 -7.109375 L 2.460938 -5.476562 L 1.953125 -5.476562 Z "/>
</g>
<g id="glyph-0-6">
<path d="M 4.605469 -3.714844 C 4.757812 -4.054688 4.953125 -4.308594 5.195312 -4.480469 C 5.433594 -4.652344 5.710938 -4.738281 6.027344 -4.738281 C 6.511719 -4.738281 6.871094 -4.589844 7.109375 -4.289062 C 7.347656 -3.992188 7.464844 -3.539062 7.464844 -2.933594 L 7.464844 -0.460938 L 8.1875 -0.460938 L 8.1875 0 L 5.972656 0 L 5.972656 -0.460938 L 6.667969 -0.460938 L 6.667969 -2.84375 C 6.667969 -3.316406 6.597656 -3.648438 6.457031 -3.851562 C 6.320312 -4.050781 6.089844 -4.148438 5.769531 -4.148438 C 5.414062 -4.148438 5.140625 -4.015625 4.953125 -3.746094 C 4.769531 -3.476562 4.675781 -3.085938 4.675781 -2.570312 L 4.675781 -0.460938 L 5.371094 -0.460938 L 5.371094 0 L 3.179688 0 L 3.179688 -0.460938 L 3.875 -0.460938 L 3.875 -2.875 C 3.875 -3.332031 3.804688 -3.660156 3.667969 -3.855469 C 3.527344 -4.050781 3.296875 -4.148438 2.976562 -4.148438 C 2.621094 -4.148438 2.351562 -4.015625 2.164062 -3.746094 C 1.976562 -3.476562 1.882812 -3.085938 1.882812 -2.570312 L 1.882812 -0.460938 L 2.578125 -0.460938 L 2.578125 0 L 0.363281 0 L 0.363281 -0.460938 L 1.085938 -0.460938 L 1.085938 -4.15625 L 0.320312 -4.15625 L 0.320312 -4.613281 L 1.882812 -4.613281 L 1.882812 -3.792969 C 2.03125 -4.101562 2.21875 -4.335938 2.449219 -4.496094 C 2.675781 -4.660156 2.9375 -4.738281 3.226562 -4.738281 C 3.582031 -4.738281 3.882812 -4.652344 4.125 -4.472656 C 4.363281 -4.292969 4.523438 -4.042969 4.605469 -3.714844 Z "/>
</g>
<g id="glyph-0-7">
<path d="M 3.539062 -1.449219 L 3.539062 -2.425781 L 2.507812 -2.425781 C 2.113281 -2.425781 1.816406 -2.339844 1.625 -2.171875 C 1.429688 -2 1.332031 -1.738281 1.332031 -1.382812 C 1.332031 -1.0625 1.429688 -0.808594 1.628906 -0.621094 C 1.824219 -0.433594 2.089844 -0.339844 2.425781 -0.339844 C 2.757812 -0.339844 3.027344 -0.441406 3.230469 -0.648438 C 3.433594 -0.851562 3.539062 -1.121094 3.539062 -1.449219 M 4.335938 -2.882812 L 4.335938 -0.460938 L 5.046875 -0.460938 L 5.046875 0 L 3.539062 0 L 3.539062 -0.5 C 3.359375 -0.285156 3.15625 -0.128906 2.925781 -0.0273438 C 2.695312 0.0742188 2.421875 0.125 2.113281 0.125 C 1.601562 0.125 1.195312 -0.0117188 0.894531 -0.28125 C 0.59375 -0.554688 0.441406 -0.921875 0.441406 -1.382812 C 0.441406 -1.863281 0.613281 -2.234375 0.960938 -2.496094 C 1.304688 -2.757812 1.789062 -2.890625 2.417969 -2.890625 L 3.539062 -2.890625 L 3.539062 -3.207031 C 3.539062 -3.558594 3.429688 -3.828125 3.21875 -4.019531 C 3.003906 -4.214844 2.707031 -4.308594 2.320312 -4.308594 C 2.003906 -4.308594 1.75 -4.238281 1.5625 -4.09375 C 1.375 -3.949219 1.257812 -3.734375 1.210938 -3.449219 L 0.796875 -3.449219 L 0.796875 -4.382812 C 1.078125 -4.503906 1.347656 -4.589844 1.609375 -4.652344 C 1.871094 -4.710938 2.125 -4.738281 2.375 -4.738281 C 3.015625 -4.738281 3.5 -4.582031 3.835938 -4.265625 C 4.167969 -3.949219 4.335938 -3.488281 4.335938 -2.882812 Z "/>
</g>
<g id="glyph-0-8">
<path d="M 0.960938 -4.148438 L 0.257812 -4.148438 L 0.257812 -4.613281 L 0.960938 -4.613281 L 0.960938 -6.046875 L 1.761719 -6.046875 L 1.761719 -4.613281 L 3.265625 -4.613281 L 3.265625 -4.148438 L 1.761719 -4.148438 L 1.761719 -1.21875 C 1.761719 -0.828125 1.800781 -0.578125 1.875 -0.46875 C 1.949219 -0.359375 2.089844 -0.304688 2.292969 -0.304688 C 2.5 -0.304688 2.652344 -0.367188 2.746094 -0.488281 C 2.84375 -0.609375 2.894531 -0.808594 2.898438 -1.085938 L 3.503906 -1.085938 C 3.480469 -0.664062 3.367188 -0.359375 3.160156 -0.164062 C 2.953125 0.0273438 2.640625 0.125 2.222656 0.125 C 1.761719 0.125 1.4375 0.0234375 1.246094 -0.179688 C 1.054688 -0.382812 0.960938 -0.730469 0.960938 -1.21875 Z "/>
</g>
<g id="glyph-0-9">
<path d="M 4.25 -4.621094 L 4.25 -3.46875 L 3.789062 -3.46875 C 3.773438 -3.695312 3.710938 -3.867188 3.597656 -3.980469 C 3.484375 -4.09375 3.320312 -4.148438 3.101562 -4.148438 C 2.710938 -4.148438 2.410156 -4.011719 2.199219 -3.742188 C 1.988281 -3.46875 1.882812 -3.078125 1.882812 -2.570312 L 1.882812 -0.460938 L 2.808594 -0.460938 L 2.808594 0 L 0.363281 0 L 0.363281 -0.460938 L 1.085938 -0.460938 L 1.085938 -4.15625 L 0.320312 -4.15625 L 0.320312 -4.613281 L 1.882812 -4.613281 L 1.882812 -3.792969 C 2.039062 -4.113281 2.242188 -4.351562 2.488281 -4.507812 C 2.734375 -4.664062 3.03125 -4.738281 3.386719 -4.738281 C 3.515625 -4.738281 3.652344 -4.730469 3.796875 -4.710938 C 3.9375 -4.6875 4.089844 -4.660156 4.25 -4.621094 Z "/>
</g>
<g id="glyph-0-10">
<path d="M 3.539062 -1.449219 L 3.539062 -2.425781 L 2.507812 -2.425781 C 2.113281 -2.425781 1.816406 -2.339844 1.625 -2.171875 C 1.429688 -2 1.332031 -1.738281 1.332031 -1.382812 C 1.332031 -1.0625 1.429688 -0.808594 1.628906 -0.621094 C 1.824219 -0.433594 2.089844 -0.339844 2.425781 -0.339844 C 2.757812 -0.339844 3.027344 -0.441406 3.230469 -0.648438 C 3.433594 -0.851562 3.539062 -1.121094 3.539062 -1.449219 M 4.335938 -2.882812 L 4.335938 -0.460938 L 5.046875 -0.460938 L 5.046875 0 L 3.539062 0 L 3.539062 -0.5 C 3.359375 -0.285156 3.15625 -0.128906 2.925781 -0.0273438 C 2.695312 0.0742188 2.421875 0.125 2.113281 0.125 C 1.601562 0.125 1.195312 -0.0117188 0.894531 -0.28125 C 0.59375 -0.554688 0.441406 -0.921875 0.441406 -1.382812 C 0.441406 -1.863281 0.613281 -2.234375 0.960938 -2.496094 C 1.304688 -2.757812 1.789062 -2.890625 2.417969 -2.890625 L 3.539062 -2.890625 L 3.539062 -3.207031 C 3.539062 -3.558594 3.429688 -3.828125 3.21875 -4.019531 C 3.003906 -4.214844 2.707031 -4.308594 2.320312 -4.308594 C 2.003906 -4.308594 1.75 -4.238281 1.5625 -4.09375 C 1.375 -3.949219 1.257812 -3.734375 1.210938 -3.449219 L 0.796875 -3.449219 L 0.796875 -4.382812 C 1.078125 -4.503906 1.347656 -4.589844 1.609375 -4.652344 C 1.871094 -4.710938 2.125 -4.738281 2.375 -4.738281 C 3.015625 -4.738281 3.5 -4.582031 3.835938 -4.265625 C 4.167969 -3.949219 4.335938 -3.488281 4.335938 -2.882812 M 2.46875 0.6875 C 2.609375 0.6875 2.726562 0.734375 2.828125 0.835938 C 2.925781 0.933594 2.976562 1.054688 2.976562 1.195312 C 2.976562 1.339844 2.929688 1.460938 2.835938 1.558594 C 2.738281 1.652344 2.617188 1.703125 2.46875 1.703125 C 2.320312 1.703125 2.199219 1.652344 2.105469 1.558594 C 2.007812 1.460938 1.960938 1.339844 1.960938 1.195312 C 1.960938 1.054688 2.011719 0.933594 2.113281 0.835938 C 2.210938 0.734375 2.332031 0.6875 2.46875 0.6875 M 2.105469 -7.109375 L 2.835938 -7.109375 L 3.855469 -5.476562 L 3.351562 -5.476562 L 2.46875 -6.605469 L 1.589844 -5.476562 L 1.085938 -5.476562 Z "/>
</g>
<g id="glyph-0-11">
<path d="M 0.363281 0 L 0.363281 -0.460938 L 1.085938 -0.460938 L 1.085938 -4.148438 L 0.320312 -4.148438 L 0.320312 -4.613281 L 1.882812 -4.613281 L 1.882812 -3.792969 C 2.03125 -4.105469 2.222656 -4.34375 2.457031 -4.5 C 2.695312 -4.660156 2.96875 -4.738281 3.28125 -4.738281 C 3.789062 -4.738281 4.164062 -4.59375 4.40625 -4.300781 C 4.644531 -4.007812 4.765625 -3.554688 4.765625 -2.933594 L 4.765625 -0.460938 L 5.476562 -0.460938 L 5.476562 0 L 3.273438 0 L 3.273438 -0.460938 L 3.960938 -0.460938 L 3.960938 -2.683594 C 3.960938 -3.246094 3.894531 -3.632812 3.753906 -3.84375 C 3.617188 -4.054688 3.371094 -4.15625 3.019531 -4.15625 C 2.652344 -4.15625 2.367188 -4.023438 2.175781 -3.753906 C 1.980469 -3.480469 1.882812 -3.085938 1.882812 -2.570312 L 1.882812 -0.460938 L 2.578125 -0.460938 L 2.578125 0 Z "/>
</g>
</g>
</defs>
<g fill="rgb(100%, 100%, 100%)" fill-opacity="1">
<use xlink:href="#glyph-0-0" x="30" y="28.250977"/>
<use xlink:href="#glyph-0-1" x="37" y="28.250977"/>
<use xlink:href="#glyph-0-2" x="43" y="28.250977"/>
<use xlink:href="#glyph-0-3" x="48" y="28.250977"/>
<use xlink:href="#glyph-0-4" x="53" y="28.250977"/>
<use xlink:href="#glyph-0-1" x="56" y="28.250977"/>
<use xlink:href="#glyph-0-3" x="62" y="28.250977"/>
<use xlink:href="#glyph-0-5" x="67" y="28.250977"/>
<use xlink:href="#glyph-0-4" x="72" y="28.250977"/>
<use xlink:href="#glyph-0-6" x="75" y="28.250977"/>
<use xlink:href="#glyph-0-7" x="83" y="28.250977"/>
<use xlink:href="#glyph-0-4" x="88" y="28.250977"/>
<use xlink:href="#glyph-0-8" x="91" y="28.250977"/>
<use xlink:href="#glyph-0-9" x="95" y="28.250977"/>
<use xlink:href="#glyph-0-10" x="99" y="28.250977"/>
<use xlink:href="#glyph-0-11" x="104" y="28.250977"/>
</g>
</svg>
