<?xml version="1.0" encoding="UTF-8"?>
<svg xmlns="http://www.w3.org/2000/svg" xmlns:xlink="http://www.w3.org/1999/xlink" width="1920" height="1080" viewBox="0 0 1920 1080">
<defs>
<g>
<g id="glyph-0-0">
<path d="M 4.683594 -5.265625 L 4.800781 -3.515625 L 4.683594 -3.515625 C 4.527344 -4.039062 4.300781 -4.417969 4.011719 -4.648438 C 3.71875 -4.878906 3.371094 -4.992188 2.960938 -4.992188 C 2.621094 -4.992188 2.3125 -4.90625 2.035156 -4.734375 C 1.757812 -4.558594 1.542969 -4.285156 1.382812 -3.902344 C 1.226562 -3.523438 1.148438 -3.050781 1.148438 -2.488281 C 1.148438 -2.023438 1.222656 -1.617188 1.371094 -1.277344 C 1.519531 -0.933594 1.746094 -0.671875 2.046875 -0.488281 C 2.34375 -0.308594 2.6875 -0.214844 3.070312 -0.214844 C 3.40625 -0.214844 3.703125 -0.289062 3.957031 -0.429688 C 4.210938 -0.574219 4.492188 -0.859375 4.800781 -1.285156 L 4.917969 -1.207031 C 4.660156 -0.75 4.359375 -0.414062 4.015625 -0.203125 C 3.667969 0.0117188 3.261719 0.117188 2.789062 0.117188 C 1.933594 0.117188 1.273438 -0.199219 0.804688 -0.832031 C 0.457031 -1.300781 0.28125 -1.855469 0.28125 -2.496094 C 0.28125 -3.007812 0.394531 -3.480469 0.625 -3.910156 C 0.855469 -4.34375 1.175781 -4.675781 1.578125 -4.910156 C 1.980469 -5.148438 2.421875 -5.265625 2.902344 -5.265625 C 3.273438 -5.265625 3.640625 -5.175781 4.003906 -4.992188 C 4.109375 -4.9375 4.183594 -4.910156 4.230469 -4.910156 C 4.296875 -4.910156 4.359375 -4.933594 4.410156 -4.980469 C 4.476562 -5.050781 4.523438 -5.144531 4.550781 -5.265625 Z "/>
</g>
<g id="glyph-0-1">
<path d="M 3.558594 -1.722656 L 1.566406 -1.722656 L 1.214844 -0.910156 C 1.128906 -0.710938 1.085938 -0.5625 1.085938 -0.464844 C 1.085938 -0.386719 1.125 -0.316406 1.199219 -0.257812 C 1.273438 -0.195312 1.433594 -0.160156 1.683594 -0.140625 L 1.683594 0 L 0.0625 0 L 0.0625 -0.140625 C 0.277344 -0.179688 0.414062 -0.226562 0.476562 -0.289062 C 0.609375 -0.410156 0.75 -0.65625 0.90625 -1.027344 L 2.71875 -5.265625 L 2.851562 -5.265625 L 4.644531 -0.984375 C 4.789062 -0.640625 4.917969 -0.414062 5.039062 -0.3125 C 5.15625 -0.210938 5.320312 -0.152344 5.527344 -0.140625 L 5.527344 0 L 3.496094 0 L 3.496094 -0.140625 C 3.703125 -0.152344 3.839844 -0.183594 3.914062 -0.242188 C 3.984375 -0.300781 4.023438 -0.371094 4.023438 -0.457031 C 4.023438 -0.566406 3.972656 -0.742188 3.871094 -0.984375 L 3.558594 -1.722656 M 3.453125 -2.003906 L 2.578125 -4.085938 L 1.683594 -2.003906 L 3.453125 -2.003906 M 3.640625 -6.824219 L 2.523438 -5.515625 L 2.390625 -5.515625 L 2.792969 -6.824219 Z "/>
</g>
<g id="glyph-0-2">
</g>
<g id="glyph-0-3">
<path d="M 2.324219 -2.855469 L 4.222656 -0.96875 C 4.535156 -0.65625 4.800781 -0.445312 5.019531 -0.332031 C 5.242188 -0.21875 5.460938 -0.15625 5.679688 -0.140625 L 5.679688 0 L 3.230469 0 L 3.230469 -0.140625 C 3.378906 -0.140625 3.484375 -0.164062 3.546875 -0.214844 C 3.613281 -0.265625 3.644531 -0.320312 3.644531 -0.378906 C 3.644531 -0.441406 3.632812 -0.496094 3.609375 -0.542969 C 3.585938 -0.589844 3.507812 -0.679688 3.371094 -0.8125 L 1.59375 -2.570312 L 1.59375 -0.910156 C 1.59375 -0.652344 1.613281 -0.476562 1.644531 -0.394531 C 1.667969 -0.332031 1.722656 -0.277344 1.804688 -0.230469 C 1.914062 -0.171875 2.027344 -0.140625 2.148438 -0.140625 L 2.324219 -0.140625 L 2.324219 0 L 0.128906 0 L 0.128906 -0.140625 L 0.3125 -0.140625 C 0.523438 -0.140625 0.679688 -0.203125 0.773438 -0.328125 C 0.835938 -0.40625 0.867188 -0.601562 0.867188 -0.910156 L 0.867188 -4.238281 C 0.867188 -4.5 0.847656 -4.671875 0.816406 -4.757812 C 0.792969 -4.820312 0.738281 -4.871094 0.660156 -4.917969 C 0.550781 -4.980469 0.433594 -5.007812 0.3125 -5.007812 L 0.128906 -5.007812 L 0.128906 -5.148438 L 2.324219 -5.148438 L 2.324219 -5.007812 L 2.148438 -5.007812 C 2.03125 -5.007812 1.914062 -4.980469 1.804688 -4.921875 C 1.726562 -4.882812 1.671875 -4.820312 1.640625 -4.738281 C 1.609375 -4.660156 1.59375 -4.492188 1.59375 -4.238281 L 1.59375 -2.660156 C 1.644531 -2.710938 1.820312 -2.871094 2.113281 -3.144531 C 2.867188 -3.832031 3.320312 -4.292969 3.480469 -4.523438 C 3.546875 -4.625 3.582031 -4.710938 3.582031 -4.789062 C 3.582031 -4.847656 3.554688 -4.898438 3.5 -4.941406 C 3.449219 -4.988281 3.359375 -5.007812 3.230469 -5.007812 L 3.113281 -5.007812 L 3.113281 -5.148438 L 5.003906 -5.148438 L 5.003906 -5.007812 C 4.894531 -5.007812 4.792969 -4.992188 4.703125 -4.964844 C 4.609375 -4.933594 4.5 -4.882812 4.367188 -4.800781 C 4.234375 -4.722656 4.074219 -4.59375 3.882812 -4.417969 C 3.824219 -4.367188 3.570312 -4.105469 3.109375 -3.636719 Z "/>
</g>
<g id="glyph-0-4">
<path d="M 2.398438 -0.140625 L 2.398438 0 L 0.195312 0 L 0.195312 -0.140625 L 0.375 -0.140625 C 0.589844 -0.140625 0.742188 -0.203125 0.839844 -0.328125 C 0.898438 -0.40625 0.929688 -0.601562 0.929688 -0.910156 L 0.929688 -4.238281 C 0.929688 -4.5 0.914062 -4.671875 0.882812 -4.753906 C 0.855469 -4.816406 0.804688 -4.871094 0.726562 -4.917969 C 0.613281 -4.980469 0.496094 -5.007812 0.375 -5.007812 L 0.195312 -5.007812 L 0.195312 -5.148438 L 2.398438 -5.148438 L 2.398438 -5.007812 L 2.214844 -5.007812 C 2.003906 -5.007812 1.851562 -4.945312 1.753906 -4.824219 C 1.691406 -4.742188 1.660156 -4.546875 1.660156 -4.238281 L 1.660156 -0.910156 C 1.660156 -0.652344 1.675781 -0.476562 1.707031 -0.394531 C 1.734375 -0.332031 1.789062 -0.277344 1.867188 -0.230469 C 1.976562 -0.171875 2.09375 -0.140625 2.214844 -0.140625 Z "/>
</g>
<g id="glyph-0-5">
<path d="M 1.625 -4.867188 L 1.625 -2.832031 L 2.757812 -2.832031 C 3.050781 -2.832031 3.246094 -2.878906 3.34375 -2.964844 C 3.476562 -3.082031 3.550781 -3.289062 3.566406 -3.582031 L 3.707031 -3.582031 L 3.707031 -1.789062 L 3.566406 -1.789062 C 3.53125 -2.039062 3.496094 -2.199219 3.460938 -2.269531 C 3.414062 -2.359375 3.339844 -2.429688 3.234375 -2.480469 C 3.132812 -2.53125 2.972656 -2.554688 2.757812 -2.554688 L 1.625 -2.554688 L 1.625 -0.859375 C 1.625 -0.628906 1.636719 -0.492188 1.65625 -0.441406 C 1.675781 -0.394531 1.710938 -0.355469 1.761719 -0.324219 C 1.8125 -0.296875 1.910156 -0.28125 2.050781 -0.28125 L 2.925781 -0.28125 C 3.214844 -0.28125 3.425781 -0.300781 3.558594 -0.339844 C 3.691406 -0.382812 3.816406 -0.460938 3.9375 -0.582031 C 4.09375 -0.738281 4.253906 -0.976562 4.421875 -1.292969 L 4.570312 -1.292969 L 4.128906 0 L 0.160156 0 L 0.160156 -0.140625 L 0.339844 -0.140625 C 0.464844 -0.140625 0.578125 -0.167969 0.6875 -0.226562 C 0.769531 -0.269531 0.824219 -0.328125 0.851562 -0.410156 C 0.882812 -0.492188 0.894531 -0.65625 0.894531 -0.90625 L 0.894531 -4.253906 C 0.894531 -4.578125 0.863281 -4.78125 0.796875 -4.855469 C 0.707031 -4.957031 0.554688 -5.007812 0.339844 -5.007812 L 0.160156 -5.007812 L 0.160156 -5.148438 L 4.128906 -5.148438 L 4.183594 -4.023438 L 4.035156 -4.023438 C 3.984375 -4.292969 3.925781 -4.480469 3.859375 -4.578125 C 3.796875 -4.679688 3.699219 -4.757812 3.574219 -4.8125 C 3.472656 -4.847656 3.292969 -4.867188 3.039062 -4.867188 L 1.625 -4.867188 M 2.277344 -6.214844 L 2.910156 -6.214844 L 3.558594 -5.664062 L 3.453125 -5.664062 L 2.578125 -5.957031 L 1.734375 -5.664062 L 1.632812 -5.664062 L 2.277344 -6.214844 M 2.523438 -6.359375 L 2.386719 -6.359375 L 2.578125 -6.929688 L 3.425781 -6.929688 Z "/>
</g>
<g id="glyph-0-6">
<path d="M -0.101562 -5.148438 L 1.296875 -5.148438 L 4.441406 -1.289062 L 4.441406 -4.257812 C 4.441406 -4.574219 4.40625 -4.769531 4.335938 -4.847656 C 4.242188 -4.957031 4.09375 -5.007812 3.890625 -5.007812 L 3.714844 -5.007812 L 3.714844 -5.148438 L 5.507812 -5.148438 L 5.507812 -5.007812 L 5.324219 -5.007812 C 5.105469 -5.007812 4.953125 -4.941406 4.859375 -4.8125 C 4.804688 -4.730469 4.777344 -4.546875 4.777344 -4.257812 L 4.777344 0.0820312 L 4.640625 0.0820312 L 1.246094 -4.0625 L 1.246094 -0.890625 C 1.246094 -0.574219 1.28125 -0.378906 1.347656 -0.300781 C 1.445312 -0.195312 1.59375 -0.140625 1.792969 -0.140625 L 1.976562 -0.140625 L 1.976562 0 L 0.183594 0 L 0.183594 -0.140625 L 0.359375 -0.140625 C 0.582031 -0.140625 0.738281 -0.207031 0.828125 -0.339844 C 0.882812 -0.417969 0.910156 -0.605469 0.910156 -0.890625 L 0.910156 -4.472656 C 0.761719 -4.648438 0.648438 -4.761719 0.570312 -4.820312 C 0.496094 -4.875 0.382812 -4.925781 0.230469 -4.976562 C 0.160156 -4.996094 0.046875 -5.007812 -0.101562 -5.007812 Z "/>
</g>
<g id="glyph-0-7">
<path d="M 4.5 -5.148438 L 4.558594 -3.941406 L 4.414062 -3.941406 C 4.386719 -4.15625 4.347656 -4.304688 4.296875 -4.398438 C 4.21875 -4.542969 4.117188 -4.652344 3.984375 -4.722656 C 3.855469 -4.792969 3.683594 -4.828125 3.472656 -4.828125 L 2.746094 -4.828125 L 2.746094 -0.890625 C 2.746094 -0.574219 2.78125 -0.378906 2.847656 -0.300781 C 2.945312 -0.195312 3.09375 -0.140625 3.292969 -0.140625 L 3.472656 -0.140625 L 3.472656 0 L 1.289062 0 L 1.289062 -0.140625 L 1.46875 -0.140625 C 1.6875 -0.140625 1.84375 -0.207031 1.933594 -0.339844 C 1.988281 -0.417969 2.015625 -0.605469 2.015625 -0.890625 L 2.015625 -4.828125 L 1.398438 -4.828125 C 1.15625 -4.828125 0.984375 -4.808594 0.886719 -4.773438 C 0.753906 -4.726562 0.640625 -4.632812 0.546875 -4.496094 C 0.453125 -4.359375 0.398438 -4.175781 0.378906 -3.941406 L 0.234375 -3.941406 L 0.296875 -5.148438 Z "/>
</g>
<g id="glyph-0-8">
<path d="M 1.597656 -2.761719 L 3.992188 -2.761719 L 3.992188 -4.234375 C 3.992188 -4.496094 3.976562 -4.671875 3.941406 -4.753906 C 3.917969 -4.816406 3.863281 -4.871094 3.78125 -4.917969 C 3.671875 -4.980469 3.558594 -5.007812 3.4375 -5.007812 L 3.253906 -5.007812 L 3.253906 -5.148438 L 5.457031 -5.148438 L 5.457031 -5.007812 L 5.273438 -5.007812 C 5.152344 -5.007812 5.039062 -4.980469 4.929688 -4.921875 C 4.847656 -4.882812 4.792969 -4.820312 4.765625 -4.738281 C 4.734375 -4.65625 4.71875 -4.488281 4.71875 -4.234375 L 4.71875 -0.910156 C 4.71875 -0.652344 4.738281 -0.476562 4.769531 -0.394531 C 4.796875 -0.332031 4.847656 -0.277344 4.925781 -0.230469 C 5.035156 -0.171875 5.152344 -0.140625 5.273438 -0.140625 L 5.457031 -0.140625 L 5.457031 0 L 3.253906 0 L 3.253906 -0.140625 L 3.4375 -0.140625 C 3.648438 -0.140625 3.800781 -0.203125 3.894531 -0.328125 C 3.960938 -0.40625 3.992188 -0.601562 3.992188 -0.910156 L 3.992188 -2.480469 L 1.597656 -2.480469 L 1.597656 -0.910156 C 1.597656 -0.652344 1.613281 -0.476562 1.648438 -0.394531 C 1.671875 -0.332031 1.726562 -0.277344 1.808594 -0.230469 C 1.917969 -0.171875 2.03125 -0.140625 2.152344 -0.140625 L 2.339844 -0.140625 L 2.339844 0 L 0.132812 0 L 0.132812 -0.140625 L 0.316406 -0.140625 C 0.527344 -0.140625 0.683594 -0.203125 0.777344 -0.328125 C 0.839844 -0.40625 0.871094 -0.601562 0.871094 -0.910156 L 0.871094 -4.234375 C 0.871094 -4.496094 0.851562 -4.671875 0.820312 -4.753906 C 0.796875 -4.816406 0.742188 -4.871094 0.664062 -4.917969 C 0.554688 -4.980469 0.4375 -5.007812 0.316406 -5.007812 L 0.132812 -5.007812 L 0.132812 -5.148438 L 2.339844 -5.148438 L 2.339844 -5.007812 L 2.152344 -5.007812 C 2.03125 -5.007812 1.917969 -4.980469 1.808594 -4.921875 C 1.730469 -4.882812 1.675781 -4.820312 1.644531 -4.738281 C 1.613281 -4.65625 1.597656 -4.488281 1.597656 -4.234375 Z "/>
</g>
<g id="glyph-0-9">
<path d="M 5.339844 -5.007812 C 5.140625 -5.007812 4.984375 -4.925781 4.871094 -4.753906 C 4.820312 -4.671875 4.792969 -4.492188 4.792969 -4.207031 L 4.792969 -2.117188 C 4.792969 -1.589844 4.742188 -1.1875 4.640625 -0.914062 C 4.527344 -0.625 4.328125 -0.382812 4.035156 -0.1875 C 3.734375 0.0195312 3.328125 0.121094 2.808594 0.121094 C 1.808594 0.121094 1.175781 -0.238281 0.910156 -0.957031 C 0.832031 -1.179688 0.789062 -1.601562 0.789062 -2.226562 L 0.789062 -4.238281 C 0.789062 -4.542969 0.746094 -4.75 0.65625 -4.859375 C 0.582031 -4.960938 0.441406 -5.007812 0.234375 -5.007812 L 0.0429688 -5.007812 L 0.0429688 -5.148438 L 2.265625 -5.148438 L 2.265625 -5.007812 L 2.070312 -5.007812 C 1.855469 -5.007812 1.707031 -4.941406 1.613281 -4.808594 C 1.550781 -4.714844 1.519531 -4.527344 1.519531 -4.238281 L 1.519531 -1.992188 C 1.519531 -1.386719 1.605469 -0.957031 1.773438 -0.703125 C 1.992188 -0.371094 2.355469 -0.203125 2.855469 -0.203125 C 3.191406 -0.203125 3.492188 -0.277344 3.757812 -0.421875 C 4.023438 -0.570312 4.207031 -0.757812 4.304688 -0.988281 C 4.402344 -1.21875 4.449219 -1.605469 4.449219 -2.152344 L 4.449219 -4.238281 C 4.449219 -4.558594 4.414062 -4.761719 4.34375 -4.84375 C 4.246094 -4.953125 4.097656 -5.007812 3.902344 -5.007812 L 3.710938 -5.007812 L 3.710938 -5.148438 L 5.457031 -5.148438 C 5.546875 -5.148438 5.644531 -5.171875 5.742188 -5.21875 C 5.816406 -5.253906 5.84375 -5.296875 5.8125 -5.34375 C 5.765625 -5.367188 5.699219 -5.425781 5.609375 -5.527344 C 5.558594 -5.613281 5.542969 -5.695312 5.566406 -5.773438 C 5.585938 -5.851562 5.644531 -5.917969 5.734375 -5.96875 C 5.789062 -6.003906 5.84375 -6.019531 5.902344 -6.019531 C 6.050781 -6.019531 6.164062 -5.949219 6.242188 -5.8125 C 6.28125 -5.746094 6.300781 -5.671875 6.300781 -5.59375 C 6.300781 -5.539062 6.289062 -5.480469 6.269531 -5.414062 C 6.222656 -5.269531 6.117188 -5.160156 5.949219 -5.09375 C 5.8125 -5.035156 5.648438 -5.007812 5.457031 -5.007812 L 5.339844 -5.007812 M 3.644531 -6.824219 L 2.523438 -5.515625 L 2.394531 -5.515625 L 2.796875 -6.824219 Z "/>
</g>
<g id="glyph-0-10">
<path d="M 3.558594 -1.722656 L 1.566406 -1.722656 L 1.214844 -0.910156 C 1.128906 -0.710938 1.085938 -0.5625 1.085938 -0.464844 C 1.085938 -0.386719 1.125 -0.316406 1.199219 -0.257812 C 1.273438 -0.195312 1.433594 -0.160156 1.683594 -0.140625 L 1.683594 0 L 0.0625 0 L 0.0625 -0.140625 C 0.277344 -0.179688 0.414062 -0.226562 0.476562 -0.289062 C 0.609375 -0.410156 0.75 -0.65625 0.90625 -1.027344 L 2.71875 -5.265625 L 2.851562 -5.265625 L 4.644531 -0.984375 C 4.789062 -0.640625 4.917969 -0.414062 5.039062 -0.3125 C 5.15625 -0.210938 5.320312 -0.152344 5.527344 -0.140625 L 5.527344 0 L 3.496094 0 L 3.496094 -0.140625 C 3.703125 -0.152344 3.839844 -0.183594 3.914062 -0.242188 C 3.984375 -0.300781 4.023438 -0.371094 4.023438 -0.457031 C 4.023438 -0.566406 3.972656 -0.742188 3.871094 -0.984375 L 3.558594 -1.722656 M 3.453125 -2.003906 L 2.578125 -4.085938 L 1.683594 -2.003906 L 3.453125 -2.003906 M 2.429688 -6.214844 L 3.0625 -6.214844 L 3.710938 -5.664062 L 3.605469 -5.664062 L 2.730469 -5.957031 L 1.886719 -5.664062 L 1.785156 -5.664062 L 2.429688 -6.214844 M 1.882812 -6.929688 L 2.730469 -6.929688 L 2.921875 -6.359375 L 2.789062 -6.359375 Z "/>
</g>
</g>
</defs>
<g fill="rgb(100%, 100%, 100%)" fill-opacity="1">
<use xlink:href="#glyph-0-0" x="30" y="26.930664"/>
<use xlink:href="#glyph-0-1" x="35" y="26.930664"/>
<use xlink:href="#glyph-0-0" x="41" y="26.930664"/>
<use xlink:href="#glyph-0-2" x="46" y="26.930664"/>
<use xlink:href="#glyph-0-3" x="48" y="26.930664"/>
<use xlink:href="#glyph-0-4" x="54" y="26.930664"/>
<use xlink:href="#glyph-0-5" x="57" y="26.930664"/>
<use xlink:href="#glyph-0-6" x="62" y="26.930664"/>
<use xlink:href="#glyph-0-2" x="68" y="26.930664"/>
<use xlink:href="#glyph-0-7" x="70" y="26.930664"/>
<use xlink:href="#glyph-0-8" x="75" y="26.930664"/>
<use xlink:href="#glyph-0-9" x="81" y="26.930664"/>
<use xlink:href="#glyph-0-0" x="87" y="26.930664"/>
<use xlink:href="#glyph-0-2" x="92" y="26.930664"/>
<use xlink:href="#glyph-0-0" x="94" y="26.930664"/>
<use xlink:href="#glyph-0-10" x="99" y="26.930664"/>
<use xlink:href="#glyph-0-6" x="105" y="26.930664"/>
<use xlink:href="#glyph-0-2" x="111" y="26.930664"/>
<use xlink:href="#glyph-0-7" x="113" y="26.930664"/>
<use xlink:href="#glyph-0-8" x="118" y="26.930664"/>
<use xlink:href="#glyph-0-4" x="124" y="26.930664"/>
<use xlink:href="#glyph-0-5" x="127" y="26.930664"/>
<use xlink:href="#glyph-0-7" x="132" y="26.930664"/>
</g>
</svg>
