<?xml version="1.0" encoding="UTF-8"?>
<svg xmlns="http://www.w3.org/2000/svg" xmlns:xlink="http://www.w3.org/1999/xlink" width="1920" height="1080" viewBox="0 0 1920 1080">
<defs>
<g>
<g id="glyph-0-0">
<path d="M 1.484375 0 L 1.484375 -0.402344 L 2.210938 -0.402344 L 2.210938 -5.21875 L 0.542969 -5.21875 L 0.542969 -4.332031 L 0.0742188 -4.332031 L 0.0742188 -5.667969 L 5.113281 -5.667969 L 5.113281 -4.332031 L 4.644531 -4.332031 L 4.644531 -5.21875 L 2.976562 -5.21875 L 2.976562 -0.402344 L 3.703125 -0.402344 L 3.703125 0 Z "/>
</g>
<g id="glyph-0-1">
<path d="M 0.320312 0 L 0.320312 -0.402344 L 0.949219 -0.402344 L 0.949219 -5.507812 L 0.28125 -5.507812 L 0.28125 -5.910156 L 1.648438 -5.910156 L 1.648438 -3.320312 C 1.777344 -3.59375 1.945312 -3.796875 2.152344 -3.9375 C 2.359375 -4.078125 2.597656 -4.148438 2.871094 -4.148438 C 3.316406 -4.148438 3.644531 -4.019531 3.855469 -3.761719 C 4.066406 -3.507812 4.167969 -3.109375 4.167969 -2.566406 L 4.167969 -0.402344 L 4.792969 -0.402344 L 4.792969 0 L 2.863281 0 L 2.863281 -0.402344 L 3.46875 -0.402344 L 3.46875 -2.347656 C 3.46875 -2.839844 3.40625 -3.179688 3.285156 -3.359375 C 3.167969 -3.539062 2.953125 -3.628906 2.644531 -3.628906 C 2.320312 -3.628906 2.070312 -3.511719 1.902344 -3.277344 C 1.734375 -3.042969 1.648438 -2.699219 1.648438 -2.25 L 1.648438 -0.402344 L 2.253906 -0.402344 L 2.253906 0 Z "/>
</g>
<g id="glyph-0-2">
<path d="M 2.453125 0.601562 C 2.574219 0.601562 2.679688 0.644531 2.765625 0.730469 C 2.855469 0.820312 2.898438 0.921875 2.898438 1.042969 C 2.898438 1.171875 2.855469 1.28125 2.773438 1.363281 C 2.6875 1.445312 2.582031 1.488281 2.453125 1.488281 C 2.324219 1.488281 2.21875 1.445312 2.132812 1.363281 C 2.050781 1.28125 2.007812 1.171875 2.007812 1.042969 C 2.007812 0.921875 2.050781 0.820312 2.140625 0.730469 C 2.226562 0.644531 2.332031 0.601562 2.453125 0.601562 M 2.710938 -4.035156 L 4.019531 -4.035156 L 4.019531 -0.402344 L 4.679688 -0.402344 L 4.679688 0 L 3.320312 0 L 3.320312 -0.714844 C 3.191406 -0.445312 3.023438 -0.242188 2.816406 -0.101562 C 2.613281 0.0390625 2.375 0.109375 2.105469 0.109375 C 1.65625 0.109375 1.324219 -0.015625 1.113281 -0.273438 C 0.902344 -0.527344 0.796875 -0.925781 0.796875 -1.46875 L 0.796875 -3.628906 L 0.167969 -3.628906 L 0.167969 -4.035156 L 1.5 -4.035156 L 1.5 -1.6875 C 1.5 -1.195312 1.558594 -0.859375 1.679688 -0.675781 C 1.800781 -0.492188 2.015625 -0.402344 2.324219 -0.402344 C 2.648438 -0.402344 2.894531 -0.523438 3.066406 -0.757812 C 3.234375 -0.996094 3.320312 -1.34375 3.320312 -1.796875 L 3.320312 -3.628906 L 2.710938 -3.628906 L 2.710938 -4.035156 M 3.855469 -3.207031 L 3.855469 -3.566406 L 3.863281 -3.5625 C 4.171875 -3.34375 4.386719 -3.230469 4.507812 -3.230469 C 4.625 -3.230469 4.71875 -3.273438 4.789062 -3.359375 C 4.859375 -3.445312 4.894531 -3.558594 4.894531 -3.699219 C 4.894531 -3.765625 4.886719 -3.839844 4.871094 -3.910156 C 4.855469 -3.984375 4.832031 -4.058594 4.796875 -4.136719 L 5.28125 -4.132812 C 5.304688 -4.039062 5.320312 -3.953125 5.332031 -3.867188 C 5.34375 -3.78125 5.351562 -3.699219 5.351562 -3.617188 C 5.351562 -3.332031 5.292969 -3.113281 5.179688 -2.953125 C 5.066406 -2.796875 4.90625 -2.71875 4.707031 -2.71875 C 4.582031 -2.71875 4.453125 -2.757812 4.316406 -2.832031 C 4.183594 -2.910156 4.027344 -3.035156 3.855469 -3.207031 Z "/>
</g>
<g id="glyph-0-3">
<path d="M 4 -1.210938 C 3.898438 -0.78125 3.710938 -0.453125 3.429688 -0.226562 C 3.148438 -0.00390625 2.785156 0.109375 2.339844 0.109375 C 1.75 0.109375 1.28125 -0.0859375 0.921875 -0.472656 C 0.566406 -0.863281 0.386719 -1.378906 0.386719 -2.019531 C 0.386719 -2.664062 0.566406 -3.183594 0.921875 -3.566406 C 1.28125 -3.953125 1.75 -4.148438 2.339844 -4.148438 C 2.59375 -4.148438 2.847656 -4.117188 3.101562 -4.058594 C 3.355469 -4 3.609375 -3.90625 3.867188 -3.785156 L 3.867188 -2.753906 L 3.460938 -2.753906 C 3.40625 -3.109375 3.289062 -3.367188 3.113281 -3.527344 C 2.933594 -3.691406 2.679688 -3.769531 2.347656 -3.769531 C 1.96875 -3.769531 1.683594 -3.625 1.492188 -3.332031 C 1.300781 -3.039062 1.203125 -2.601562 1.203125 -2.019531 C 1.203125 -1.4375 1.300781 -1 1.492188 -0.707031 C 1.683594 -0.414062 1.96875 -0.265625 2.347656 -0.265625 C 2.648438 -0.265625 2.886719 -0.34375 3.070312 -0.5 C 3.25 -0.660156 3.371094 -0.894531 3.4375 -1.210938 Z "/>
</g>
<g id="glyph-0-4">
</g>
<g id="glyph-0-5">
<path d="M 3.09375 -1.269531 L 3.09375 -2.121094 L 2.195312 -2.121094 C 1.847656 -2.121094 1.589844 -2.046875 1.421875 -1.898438 C 1.25 -1.75 1.164062 -1.519531 1.164062 -1.210938 C 1.164062 -0.929688 1.25 -0.707031 1.425781 -0.542969 C 1.597656 -0.378906 1.828125 -0.296875 2.121094 -0.296875 C 2.414062 -0.296875 2.648438 -0.386719 2.828125 -0.566406 C 3.003906 -0.746094 3.09375 -0.980469 3.09375 -1.269531 M 3.792969 -2.523438 L 3.792969 -0.402344 L 4.417969 -0.402344 L 4.417969 0 L 3.09375 0 L 3.09375 -0.4375 C 2.941406 -0.25 2.761719 -0.113281 2.558594 -0.0234375 C 2.355469 0.0664062 2.121094 0.109375 1.847656 0.109375 C 1.402344 0.109375 1.046875 -0.0078125 0.78125 -0.246094 C 0.519531 -0.484375 0.386719 -0.804688 0.386719 -1.210938 C 0.386719 -1.628906 0.539062 -1.953125 0.839844 -2.183594 C 1.140625 -2.414062 1.566406 -2.527344 2.113281 -2.527344 L 3.09375 -2.527344 L 3.09375 -2.804688 C 3.09375 -3.113281 3 -3.351562 2.816406 -3.519531 C 2.628906 -3.6875 2.367188 -3.769531 2.03125 -3.769531 C 1.753906 -3.769531 1.53125 -3.707031 1.367188 -3.582031 C 1.203125 -3.453125 1.101562 -3.265625 1.058594 -3.019531 L 0.699219 -3.019531 L 0.699219 -3.835938 C 0.941406 -3.9375 1.179688 -4.015625 1.40625 -4.070312 C 1.636719 -4.121094 1.859375 -4.148438 2.078125 -4.148438 C 2.636719 -4.148438 3.0625 -4.007812 3.355469 -3.730469 C 3.648438 -3.453125 3.792969 -3.050781 3.792969 -2.523438 M 1.609375 -6.210938 L 2.597656 -4.785156 L 2.152344 -4.785156 L 0.863281 -6.210938 Z "/>
</g>
<g id="glyph-0-6">
<path d="M 0.320312 0 L 0.320312 -0.402344 L 0.949219 -0.402344 L 0.949219 -3.628906 L 0.28125 -3.628906 L 0.28125 -4.035156 L 1.648438 -4.035156 L 1.648438 -3.320312 C 1.777344 -3.59375 1.945312 -3.796875 2.152344 -3.9375 C 2.359375 -4.078125 2.597656 -4.148438 2.871094 -4.148438 C 3.316406 -4.148438 3.644531 -4.019531 3.855469 -3.761719 C 4.066406 -3.507812 4.167969 -3.109375 4.167969 -2.566406 L 4.167969 -0.402344 L 4.792969 -0.402344 L 4.792969 0 L 2.863281 0 L 2.863281 -0.402344 L 3.46875 -0.402344 L 3.46875 -2.347656 C 3.46875 -2.839844 3.40625 -3.179688 3.285156 -3.363281 C 3.164062 -3.546875 2.949219 -3.636719 2.644531 -3.636719 C 2.320312 -3.636719 2.070312 -3.519531 1.902344 -3.28125 C 1.734375 -3.046875 1.648438 -2.703125 1.648438 -2.25 L 1.648438 -0.402344 L 2.253906 -0.402344 L 2.253906 0 Z "/>
</g>
<g id="glyph-0-7">
<path d="M 1.59375 -2.21875 L 1.59375 -1.820312 C 1.59375 -1.332031 1.6875 -0.960938 1.875 -0.707031 C 2.058594 -0.453125 2.332031 -0.328125 2.683594 -0.328125 C 3.042969 -0.328125 3.3125 -0.46875 3.496094 -0.753906 C 3.679688 -1.042969 3.769531 -1.464844 3.769531 -2.019531 C 3.769531 -2.578125 3.679688 -3 3.496094 -3.285156 C 3.3125 -3.570312 3.042969 -3.710938 2.683594 -3.710938 C 2.332031 -3.710938 2.058594 -3.582031 1.875 -3.328125 C 1.6875 -3.070312 1.59375 -2.703125 1.59375 -2.21875 M 0.894531 -3.628906 L 0.222656 -3.628906 L 0.222656 -4.035156 L 1.59375 -4.035156 L 1.59375 -3.40625 C 1.730469 -3.660156 1.90625 -3.847656 2.117188 -3.964844 C 2.328125 -4.085938 2.589844 -4.148438 2.902344 -4.148438 C 3.398438 -4.148438 3.800781 -3.949219 4.117188 -3.558594 C 4.429688 -3.164062 4.585938 -2.652344 4.585938 -2.019531 C 4.585938 -1.386719 4.429688 -0.875 4.117188 -0.480469 C 3.800781 -0.0859375 3.398438 0.109375 2.902344 0.109375 C 2.589844 0.109375 2.328125 0.0507812 2.117188 -0.0703125 C 1.90625 -0.191406 1.730469 -0.378906 1.59375 -0.628906 L 1.59375 1.210938 L 2.253906 1.210938 L 2.253906 1.617188 L 0.222656 1.617188 L 0.222656 1.210938 L 0.894531 1.210938 Z "/>
</g>
<g id="glyph-0-8">
<path d="M 3.09375 -1.269531 L 3.09375 -2.121094 L 2.195312 -2.121094 C 1.847656 -2.121094 1.589844 -2.046875 1.421875 -1.898438 C 1.25 -1.75 1.164062 -1.519531 1.164062 -1.210938 C 1.164062 -0.929688 1.25 -0.707031 1.425781 -0.542969 C 1.597656 -0.378906 1.828125 -0.296875 2.121094 -0.296875 C 2.414062 -0.296875 2.648438 -0.386719 2.828125 -0.566406 C 3.003906 -0.746094 3.09375 -0.980469 3.09375 -1.269531 M 3.792969 -2.523438 L 3.792969 -0.402344 L 4.417969 -0.402344 L 4.417969 0 L 3.09375 0 L 3.09375 -0.4375 C 2.941406 -0.25 2.761719 -0.113281 2.558594 -0.0234375 C 2.355469 0.0664062 2.121094 0.109375 1.847656 0.109375 C 1.402344 0.109375 1.046875 -0.0078125 0.78125 -0.246094 C 0.519531 -0.484375 0.386719 -0.804688 0.386719 -1.210938 C 0.386719 -1.628906 0.539062 -1.953125 0.839844 -2.183594 C 1.140625 -2.414062 1.566406 -2.527344 2.113281 -2.527344 L 3.09375 -2.527344 L 3.09375 -2.804688 C 3.09375 -3.113281 3 -3.351562 2.816406 -3.519531 C 2.628906 -3.6875 2.367188 -3.769531 2.03125 -3.769531 C 1.753906 -3.769531 1.53125 -3.707031 1.367188 -3.582031 C 1.203125 -3.453125 1.101562 -3.265625 1.058594 -3.019531 L 0.699219 -3.019531 L 0.699219 -3.835938 C 0.941406 -3.9375 1.179688 -4.015625 1.40625 -4.070312 C 1.636719 -4.121094 1.859375 -4.148438 2.078125 -4.148438 C 2.636719 -4.148438 3.0625 -4.007812 3.355469 -3.730469 C 3.648438 -3.453125 3.792969 -3.050781 3.792969 -2.523438 M 1.84375 -6.21875 L 2.480469 -6.21875 L 3.371094 -4.792969 L 2.933594 -4.792969 L 2.160156 -5.78125 L 1.390625 -4.792969 L 0.949219 -4.792969 Z "/>
</g>
<g id="glyph-0-9">
<path d="M 3.71875 -4.042969 L 3.71875 -3.035156 L 3.316406 -3.035156 C 3.300781 -3.234375 3.246094 -3.382812 3.148438 -3.480469 C 3.050781 -3.582031 2.90625 -3.628906 2.714844 -3.628906 C 2.371094 -3.628906 2.105469 -3.511719 1.921875 -3.273438 C 1.738281 -3.035156 1.648438 -2.695312 1.648438 -2.25 L 1.648438 -0.402344 L 2.457031 -0.402344 L 2.457031 0 L 0.320312 0 L 0.320312 -0.402344 L 0.949219 -0.402344 L 0.949219 -3.636719 L 0.28125 -3.636719 L 0.28125 -4.035156 L 1.648438 -4.035156 L 1.648438 -3.320312 C 1.785156 -3.601562 1.960938 -3.808594 2.175781 -3.945312 C 2.390625 -4.078125 2.652344 -4.148438 2.960938 -4.148438 C 3.074219 -4.148438 3.195312 -4.136719 3.320312 -4.121094 C 3.445312 -4.101562 3.578125 -4.078125 3.71875 -4.042969 Z "/>
</g>
<g id="glyph-0-10">
<path d="M 3.09375 -1.269531 L 3.09375 -2.121094 L 2.195312 -2.121094 C 1.847656 -2.121094 1.589844 -2.046875 1.421875 -1.898438 C 1.25 -1.75 1.164062 -1.519531 1.164062 -1.210938 C 1.164062 -0.929688 1.25 -0.707031 1.425781 -0.542969 C 1.597656 -0.378906 1.828125 -0.296875 2.121094 -0.296875 C 2.414062 -0.296875 2.648438 -0.386719 2.828125 -0.566406 C 3.003906 -0.746094 3.09375 -0.980469 3.09375 -1.269531 M 3.792969 -2.523438 L 3.792969 -0.402344 L 4.417969 -0.402344 L 4.417969 0 L 3.09375 0 L 3.09375 -0.4375 C 2.941406 -0.25 2.761719 -0.113281 2.558594 -0.0234375 C 2.355469 0.0664062 2.121094 0.109375 1.847656 0.109375 C 1.402344 0.109375 1.046875 -0.0078125 0.78125 -0.246094 C 0.519531 -0.484375 0.386719 -0.804688 0.386719 -1.210938 C 0.386719 -1.628906 0.539062 -1.953125 0.839844 -2.183594 C 1.140625 -2.414062 1.566406 -2.527344 2.113281 -2.527344 L 3.09375 -2.527344 L 3.09375 -2.804688 C 3.09375 -3.113281 3 -3.351562 2.816406 -3.519531 C 2.628906 -3.6875 2.367188 -3.769531 2.03125 -3.769531 C 1.753906 -3.769531 1.53125 -3.707031 1.367188 -3.582031 C 1.203125 -3.453125 1.101562 -3.265625 1.058594 -3.019531 L 0.699219 -3.019531 L 0.699219 -3.835938 C 0.941406 -3.9375 1.179688 -4.015625 1.40625 -4.070312 C 1.636719 -4.121094 1.859375 -4.148438 2.078125 -4.148438 C 2.636719 -4.148438 3.0625 -4.007812 3.355469 -3.730469 C 3.648438 -3.453125 3.792969 -3.050781 3.792969 -2.523438 M 2.144531 -5.203125 L 1.929688 -5.410156 C 1.863281 -5.472656 1.808594 -5.511719 1.769531 -5.53125 C 1.726562 -5.550781 1.679688 -5.558594 1.632812 -5.558594 C 1.527344 -5.558594 1.441406 -5.507812 1.382812 -5.410156 C 1.320312 -5.308594 1.285156 -5.164062 1.273438 -4.972656 L 0.90625 -4.972656 C 0.914062 -5.3125 0.980469 -5.578125 1.109375 -5.761719 C 1.238281 -5.949219 1.417969 -6.042969 1.648438 -6.042969 C 1.746094 -6.042969 1.832031 -6.023438 1.914062 -5.988281 C 1.996094 -5.953125 2.082031 -5.894531 2.175781 -5.808594 L 2.390625 -5.601562 C 2.449219 -5.542969 2.5 -5.503906 2.542969 -5.484375 C 2.585938 -5.464844 2.636719 -5.453125 2.6875 -5.453125 C 2.796875 -5.453125 2.882812 -5.503906 2.941406 -5.605469 C 3.003906 -5.707031 3.039062 -5.851562 3.050781 -6.042969 L 3.414062 -6.042969 C 3.410156 -5.699219 3.34375 -5.4375 3.210938 -5.25 C 3.082031 -5.0625 2.902344 -4.972656 2.671875 -4.972656 C 2.578125 -4.972656 2.488281 -4.988281 2.40625 -5.023438 C 2.328125 -5.058594 2.238281 -5.117188 2.144531 -5.203125 Z "/>
</g>
<g id="glyph-0-11">
<path d="M 0.722656 -0.273438 L 0.722656 -1.566406 L 1.160156 -1.5625 C 1.171875 -1.128906 1.296875 -0.8125 1.53125 -0.605469 C 1.769531 -0.398438 2.128906 -0.296875 2.613281 -0.296875 C 3.0625 -0.296875 3.40625 -0.386719 3.644531 -0.5625 C 3.878906 -0.742188 4 -1.003906 4 -1.34375 C 4 -1.617188 3.925781 -1.828125 3.785156 -1.976562 C 3.640625 -2.121094 3.339844 -2.265625 2.878906 -2.402344 L 2.128906 -2.628906 C 1.589844 -2.792969 1.207031 -2.996094 0.984375 -3.242188 C 0.765625 -3.488281 0.652344 -3.824219 0.652344 -4.253906 C 0.652344 -4.734375 0.824219 -5.109375 1.164062 -5.375 C 1.507812 -5.640625 1.988281 -5.773438 2.605469 -5.773438 C 2.867188 -5.773438 3.15625 -5.742188 3.472656 -5.6875 C 3.785156 -5.628906 4.117188 -5.546875 4.472656 -5.4375 L 4.472656 -4.230469 L 4.042969 -4.230469 C 4 -4.628906 3.867188 -4.917969 3.644531 -5.097656 C 3.417969 -5.277344 3.078125 -5.367188 2.621094 -5.367188 C 2.21875 -5.367188 1.914062 -5.285156 1.707031 -5.121094 C 1.5 -4.957031 1.394531 -4.71875 1.394531 -4.410156 C 1.394531 -4.136719 1.472656 -3.925781 1.628906 -3.769531 C 1.785156 -3.617188 2.117188 -3.464844 2.628906 -3.3125 L 3.332031 -3.101562 C 3.84375 -2.949219 4.210938 -2.75 4.429688 -2.511719 C 4.648438 -2.273438 4.757812 -1.953125 4.757812 -1.550781 C 4.757812 -1 4.582031 -0.585938 4.230469 -0.308594 C 3.878906 -0.0273438 3.355469 0.109375 2.660156 0.109375 C 2.347656 0.109375 2.03125 0.078125 1.707031 0.015625 C 1.382812 -0.046875 1.054688 -0.144531 0.722656 -0.273438 Z "/>
</g>
<g id="glyph-0-12">
<path d="M 1.359375 -5.261719 L 3.035156 -0.910156 L 4.707031 -5.261719 L 4.066406 -5.261719 L 4.066406 -5.667969 L 5.730469 -5.667969 L 5.730469 -5.261719 L 5.179688 -5.261719 L 3.15625 0 L 2.503906 0 L 0.488281 -5.261719 L -0.0742188 -5.261719 L -0.0742188 -5.667969 L 1.988281 -5.667969 L 1.988281 -5.261719 Z "/>
</g>
<g id="glyph-0-13">
<path d="M 1.921875 -0.402344 L 2.628906 -0.402344 C 3.363281 -0.402344 3.929688 -0.613281 4.324219 -1.03125 C 4.71875 -1.453125 4.914062 -2.054688 4.914062 -2.839844 C 4.914062 -3.625 4.71875 -4.226562 4.324219 -4.640625 C 3.933594 -5.054688 3.367188 -5.261719 2.628906 -5.261719 L 1.921875 -5.261719 L 1.921875 -0.402344 M 0.429688 0 L 0.429688 -0.402344 L 1.152344 -0.402344 L 1.152344 -5.261719 L 0.429688 -5.261719 L 0.429688 -5.667969 L 2.683594 -5.667969 C 3.660156 -5.667969 4.421875 -5.421875 4.96875 -4.921875 C 5.515625 -4.421875 5.789062 -3.730469 5.789062 -2.839844 C 5.789062 -1.949219 5.515625 -1.253906 4.96875 -0.75 C 4.421875 -0.25 3.660156 0 2.683594 0 Z "/>
</g>
</g>
</defs>
<g fill="rgb(53.333333%, 53.333333%, 53.333333%)" fill-opacity="1">
<use xlink:href="#glyph-0-0" x="30" y="27.21875"/>
<use xlink:href="#glyph-0-1" x="35" y="27.21875"/>
<use xlink:href="#glyph-0-2" x="40" y="27.21875"/>
<use xlink:href="#glyph-0-3" x="45" y="27.21875"/>
<use xlink:href="#glyph-0-4" x="49" y="27.21875"/>
<use xlink:href="#glyph-0-1" x="51" y="27.21875"/>
<use xlink:href="#glyph-0-5" x="56" y="27.21875"/>
<use xlink:href="#glyph-0-6" x="61" y="27.21875"/>
<use xlink:href="#glyph-0-1" x="66" y="27.21875"/>
<use xlink:href="#glyph-0-4" x="71" y="27.21875"/>
<use xlink:href="#glyph-0-7" x="73" y="27.21875"/>
<use xlink:href="#glyph-0-1" x="78" y="27.21875"/>
<use xlink:href="#glyph-0-8" x="83" y="27.21875"/>
<use xlink:href="#glyph-0-6" x="88" y="27.21875"/>
<use xlink:href="#glyph-0-4" x="93" y="27.21875"/>
<use xlink:href="#glyph-0-9" x="95" y="27.21875"/>
<use xlink:href="#glyph-0-10" x="99" y="27.21875"/>
<use xlink:href="#glyph-0-4" x="104" y="27.21875"/>
<use xlink:href="#glyph-0-11" x="106" y="27.21875"/>
<use xlink:href="#glyph-0-12" x="111" y="27.21875"/>
<use xlink:href="#glyph-0-13" x="117" y="27.21875"/>
</g>
</svg>
