<?xml version="1.0" encoding="UTF-8"?>
<svg xmlns="http://www.w3.org/2000/svg" xmlns:xlink="http://www.w3.org/1999/xlink" width="1920" height="1080" viewBox="0 0 1920 1080">
<defs>
<g>
<g id="glyph-0-0">
<path d="M 3.566406 -5.265625 L 3.566406 -3.484375 L 3.425781 -3.484375 C 3.378906 -3.828125 3.296875 -4.101562 3.179688 -4.300781 C 3.0625 -4.503906 2.894531 -4.664062 2.675781 -4.785156 C 2.460938 -4.902344 2.234375 -4.964844 2 -4.964844 C 1.738281 -4.964844 1.519531 -4.882812 1.347656 -4.722656 C 1.175781 -4.5625 1.089844 -4.378906 1.089844 -4.171875 C 1.089844 -4.015625 1.144531 -3.875 1.253906 -3.746094 C 1.410156 -3.554688 1.785156 -3.300781 2.375 -2.984375 C 2.855469 -2.726562 3.183594 -2.527344 3.359375 -2.390625 C 3.535156 -2.253906 3.671875 -2.089844 3.765625 -1.902344 C 3.859375 -1.714844 3.90625 -1.519531 3.90625 -1.3125 C 3.90625 -0.925781 3.757812 -0.589844 3.453125 -0.304688 C 3.152344 -0.0234375 2.761719 0.117188 2.285156 0.117188 C 2.136719 0.117188 1.996094 0.105469 1.863281 0.0820312 C 1.785156 0.0703125 1.625 0.0234375 1.375 -0.0546875 C 1.128906 -0.136719 0.972656 -0.175781 0.90625 -0.175781 C 0.84375 -0.175781 0.792969 -0.15625 0.757812 -0.117188 C 0.722656 -0.078125 0.695312 0 0.675781 0.117188 L 0.535156 0.117188 L 0.535156 -1.648438 L 0.675781 -1.648438 C 0.742188 -1.277344 0.832031 -1 0.941406 -0.820312 C 1.054688 -0.636719 1.222656 -0.480469 1.453125 -0.359375 C 1.683594 -0.238281 1.933594 -0.179688 2.207031 -0.179688 C 2.523438 -0.179688 2.773438 -0.261719 2.957031 -0.429688 C 3.140625 -0.597656 3.230469 -0.792969 3.230469 -1.023438 C 3.230469 -1.148438 3.195312 -1.277344 3.128906 -1.40625 C 3.058594 -1.535156 2.949219 -1.65625 2.800781 -1.765625 C 2.703125 -1.84375 2.433594 -2.003906 1.992188 -2.25 C 1.554688 -2.496094 1.238281 -2.695312 1.054688 -2.839844 C 0.867188 -2.988281 0.726562 -3.148438 0.628906 -3.328125 C 0.535156 -3.503906 0.484375 -3.699219 0.484375 -3.910156 C 0.484375 -4.28125 0.628906 -4.597656 0.910156 -4.867188 C 1.195312 -5.132812 1.554688 -5.265625 1.992188 -5.265625 C 2.265625 -5.265625 2.558594 -5.199219 2.863281 -5.066406 C 3.003906 -5.003906 3.105469 -4.972656 3.164062 -4.972656 C 3.230469 -4.972656 3.28125 -4.992188 3.324219 -5.03125 C 3.367188 -5.070312 3.398438 -5.148438 3.425781 -5.265625 Z "/>
</g>
<g id="glyph-0-1">
<path d="M 5.523438 -5.148438 L 5.523438 -5.007812 C 5.339844 -4.976562 5.203125 -4.917969 5.109375 -4.835938 C 4.972656 -4.710938 4.855469 -4.519531 4.75 -4.265625 L 2.953125 0.117188 L 2.8125 0.117188 L 0.886719 -4.320312 C 0.785156 -4.550781 0.714844 -4.6875 0.675781 -4.738281 C 0.613281 -4.816406 0.535156 -4.878906 0.441406 -4.921875 C 0.351562 -4.96875 0.226562 -4.996094 0.0664062 -5.007812 L 0.0664062 -5.148438 L 2.171875 -5.148438 L 2.171875 -5.007812 C 1.933594 -4.984375 1.78125 -4.945312 1.707031 -4.886719 C 1.636719 -4.828125 1.601562 -4.753906 1.601562 -4.664062 C 1.601562 -4.535156 1.660156 -4.339844 1.777344 -4.070312 L 3.085938 -1.050781 L 4.300781 -4.03125 C 4.421875 -4.328125 4.480469 -4.53125 4.480469 -4.644531 C 4.480469 -4.71875 4.445312 -4.789062 4.371094 -4.855469 C 4.296875 -4.921875 4.171875 -4.96875 4 -4.996094 C 3.984375 -5 3.964844 -5.003906 3.933594 -5.007812 L 3.933594 -5.148438 Z "/>
</g>
<g id="glyph-0-2">
<path d="M 0.132812 0 L 0.132812 -0.140625 L 0.328125 -0.140625 C 0.542969 -0.140625 0.699219 -0.210938 0.789062 -0.347656 C 0.84375 -0.433594 0.875 -0.621094 0.875 -0.910156 L 0.875 -4.238281 C 0.875 -4.558594 0.839844 -4.761719 0.765625 -4.84375 C 0.667969 -4.953125 0.523438 -5.007812 0.328125 -5.007812 L 0.132812 -5.007812 L 0.132812 -5.148438 L 2.230469 -5.148438 C 3 -5.148438 3.585938 -5.0625 3.984375 -4.886719 C 4.386719 -4.710938 4.710938 -4.421875 4.953125 -4.015625 C 5.199219 -3.605469 5.320312 -3.136719 5.320312 -2.601562 C 5.320312 -1.886719 5.101562 -1.285156 4.667969 -0.804688 C 4.179688 -0.269531 3.433594 0 2.433594 0 L 0.132812 0 M 1.601562 -0.371094 C 1.925781 -0.300781 2.195312 -0.265625 2.410156 -0.265625 C 3 -0.265625 3.484375 -0.472656 3.875 -0.886719 C 4.261719 -1.296875 4.453125 -1.855469 4.453125 -2.5625 C 4.453125 -3.273438 4.261719 -3.835938 3.875 -4.246094 C 3.484375 -4.65625 2.988281 -4.859375 2.382812 -4.859375 C 2.152344 -4.859375 1.894531 -4.824219 1.601562 -4.75 Z "/>
</g>
<g id="glyph-0-3">
</g>
<g id="glyph-0-4">
<path d="M 0.140625 -3.351562 L 4.238281 -3.351562 L 4.238281 -3.042969 L 0.140625 -3.042969 L 0.140625 -3.351562 M 0.140625 -2.113281 L 4.238281 -2.113281 L 4.238281 -1.804688 L 0.140625 -1.804688 Z "/>
</g>
<g id="glyph-0-5">
<path d="M 3.175781 -2.851562 L 4.28125 -1.203125 C 4.585938 -0.75 4.8125 -0.460938 4.960938 -0.339844 C 5.109375 -0.21875 5.296875 -0.152344 5.527344 -0.140625 L 5.527344 0 L 3.316406 0 L 3.316406 -0.140625 C 3.460938 -0.144531 3.570312 -0.160156 3.640625 -0.1875 C 3.695312 -0.207031 3.738281 -0.242188 3.773438 -0.289062 C 3.808594 -0.335938 3.824219 -0.386719 3.824219 -0.433594 C 3.824219 -0.492188 3.8125 -0.550781 3.789062 -0.609375 C 3.773438 -0.652344 3.703125 -0.761719 3.582031 -0.941406 L 2.707031 -2.261719 L 1.628906 -0.882812 C 1.515625 -0.734375 1.445312 -0.636719 1.425781 -0.585938 C 1.402344 -0.539062 1.390625 -0.484375 1.390625 -0.433594 C 1.390625 -0.351562 1.425781 -0.285156 1.492188 -0.230469 C 1.5625 -0.179688 1.691406 -0.148438 1.882812 -0.140625 L 1.882812 0 L 0.0585938 0 L 0.0585938 -0.140625 C 0.1875 -0.152344 0.296875 -0.179688 0.390625 -0.21875 C 0.546875 -0.285156 0.699219 -0.375 0.839844 -0.484375 C 0.980469 -0.597656 1.144531 -0.769531 1.324219 -1 L 2.539062 -2.53125 L 1.527344 -4.019531 C 1.25 -4.421875 1.015625 -4.683594 0.824219 -4.808594 C 0.632812 -4.933594 0.410156 -5 0.160156 -5.007812 L 0.160156 -5.148438 L 2.539062 -5.148438 L 2.539062 -5.007812 C 2.339844 -5 2.199219 -4.96875 2.125 -4.910156 C 2.050781 -4.851562 2.011719 -4.789062 2.011719 -4.714844 C 2.011719 -4.621094 2.074219 -4.484375 2.195312 -4.304688 L 2.984375 -3.125 L 3.898438 -4.285156 C 4.007812 -4.421875 4.070312 -4.515625 4.09375 -4.566406 C 4.121094 -4.617188 4.132812 -4.667969 4.132812 -4.71875 C 4.132812 -4.773438 4.117188 -4.820312 4.085938 -4.859375 C 4.046875 -4.914062 4 -4.953125 3.941406 -4.972656 C 3.882812 -4.996094 3.761719 -5.007812 3.582031 -5.007812 L 3.582031 -5.148438 L 5.40625 -5.148438 L 5.40625 -5.007812 C 5.261719 -5 5.144531 -4.980469 5.054688 -4.941406 C 4.917969 -4.882812 4.792969 -4.804688 4.679688 -4.707031 C 4.566406 -4.605469 4.402344 -4.425781 4.195312 -4.160156 Z "/>
</g>
<g id="glyph-0-6">
<path d="M 1.945312 -3.582031 C 2.472656 -3.582031 2.894531 -3.382812 3.210938 -2.980469 C 3.484375 -2.640625 3.617188 -2.246094 3.617188 -1.804688 C 3.617188 -1.492188 3.542969 -1.175781 3.394531 -0.859375 C 3.246094 -0.539062 3.039062 -0.296875 2.777344 -0.136719 C 2.515625 0.0234375 2.222656 0.105469 1.902344 0.105469 C 1.378906 0.105469 0.960938 -0.101562 0.652344 -0.519531 C 0.390625 -0.871094 0.261719 -1.265625 0.261719 -1.707031 C 0.261719 -2.023438 0.339844 -2.339844 0.5 -2.65625 C 0.65625 -2.972656 0.867188 -3.203125 1.125 -3.355469 C 1.382812 -3.503906 1.65625 -3.582031 1.945312 -3.582031 M 1.828125 -3.335938 C 1.691406 -3.335938 1.558594 -3.292969 1.421875 -3.214844 C 1.285156 -3.136719 1.175781 -2.996094 1.09375 -2.796875 C 1.011719 -2.59375 0.96875 -2.339844 0.96875 -2.023438 C 0.96875 -1.519531 1.070312 -1.082031 1.269531 -0.714844 C 1.472656 -0.347656 1.738281 -0.164062 2.066406 -0.164062 C 2.3125 -0.164062 2.515625 -0.265625 2.671875 -0.46875 C 2.832031 -0.667969 2.914062 -1.019531 2.914062 -1.511719 C 2.914062 -2.128906 2.78125 -2.613281 2.515625 -2.96875 C 2.335938 -3.210938 2.105469 -3.335938 1.828125 -3.335938 Z "/>
</g>
<g id="glyph-0-7">
<path d="M 2.214844 -0.5 C 1.855469 -0.226562 1.632812 -0.0664062 1.542969 -0.0234375 C 1.40625 0.0390625 1.257812 0.0703125 1.105469 0.0703125 C 0.863281 0.0703125 0.667969 -0.0117188 0.511719 -0.175781 C 0.355469 -0.339844 0.277344 -0.554688 0.277344 -0.824219 C 0.277344 -0.992188 0.316406 -1.140625 0.390625 -1.265625 C 0.496094 -1.4375 0.675781 -1.597656 0.933594 -1.75 C 1.1875 -1.902344 1.617188 -2.085938 2.214844 -2.304688 L 2.214844 -2.441406 C 2.214844 -2.789062 2.160156 -3.027344 2.046875 -3.15625 C 1.9375 -3.285156 1.777344 -3.347656 1.570312 -3.347656 C 1.410156 -3.347656 1.28125 -3.304688 1.1875 -3.21875 C 1.09375 -3.132812 1.042969 -3.035156 1.042969 -2.925781 L 1.050781 -2.703125 C 1.050781 -2.585938 1.023438 -2.496094 0.960938 -2.433594 C 0.902344 -2.371094 0.824219 -2.339844 0.730469 -2.339844 C 0.636719 -2.339844 0.558594 -2.371094 0.5 -2.4375 C 0.441406 -2.503906 0.410156 -2.59375 0.410156 -2.707031 C 0.410156 -2.925781 0.523438 -3.125 0.746094 -3.308594 C 0.96875 -3.488281 1.28125 -3.582031 1.683594 -3.582031 C 1.992188 -3.582031 2.246094 -3.527344 2.441406 -3.425781 C 2.589844 -3.347656 2.703125 -3.222656 2.773438 -3.058594 C 2.816406 -2.949219 2.839844 -2.726562 2.839844 -2.386719 L 2.839844 -1.207031 C 2.839844 -0.875 2.847656 -0.671875 2.859375 -0.597656 C 2.871094 -0.523438 2.894531 -0.472656 2.921875 -0.449219 C 2.953125 -0.421875 2.984375 -0.410156 3.023438 -0.410156 C 3.0625 -0.410156 3.097656 -0.417969 3.128906 -0.4375 C 3.183594 -0.46875 3.285156 -0.5625 3.4375 -0.714844 L 3.4375 -0.5 C 3.152344 -0.121094 2.882812 0.0664062 2.625 0.0664062 C 2.5 0.0664062 2.402344 0.0234375 2.328125 -0.0625 C 2.253906 -0.148438 2.214844 -0.292969 2.214844 -0.5 M 2.214844 -0.75 L 2.214844 -2.074219 C 1.832031 -1.921875 1.585938 -1.8125 1.472656 -1.75 C 1.273438 -1.640625 1.128906 -1.523438 1.042969 -1.402344 C 0.957031 -1.28125 0.914062 -1.148438 0.914062 -1.003906 C 0.914062 -0.820312 0.96875 -0.667969 1.078125 -0.546875 C 1.1875 -0.429688 1.3125 -0.367188 1.453125 -0.367188 C 1.648438 -0.367188 1.898438 -0.496094 2.214844 -0.75 Z "/>
</g>
<g id="glyph-0-8">
<path d="M 0.046875 -3.480469 L 1.667969 -3.480469 L 1.667969 -3.339844 L 1.585938 -3.339844 C 1.472656 -3.339844 1.386719 -3.3125 1.332031 -3.265625 C 1.273438 -3.214844 1.246094 -3.152344 1.246094 -3.078125 C 1.246094 -2.980469 1.289062 -2.84375 1.371094 -2.667969 L 2.21875 -0.914062 L 2.996094 -2.835938 C 3.039062 -2.941406 3.0625 -3.042969 3.0625 -3.144531 C 3.0625 -3.191406 3.050781 -3.222656 3.035156 -3.246094 C 3.015625 -3.273438 2.980469 -3.296875 2.9375 -3.3125 C 2.894531 -3.328125 2.820312 -3.339844 2.710938 -3.339844 L 2.710938 -3.480469 L 3.84375 -3.480469 L 3.84375 -3.339844 C 3.75 -3.328125 3.675781 -3.308594 3.625 -3.277344 C 3.574219 -3.246094 3.519531 -3.191406 3.460938 -3.105469 C 3.4375 -3.070312 3.394531 -2.972656 3.332031 -2.8125 L 1.914062 0.65625 C 1.777344 0.992188 1.597656 1.25 1.375 1.421875 C 1.15625 1.59375 0.941406 1.679688 0.738281 1.679688 C 0.585938 1.679688 0.464844 1.636719 0.367188 1.550781 C 0.273438 1.464844 0.222656 1.363281 0.222656 1.253906 C 0.222656 1.148438 0.257812 1.0625 0.328125 0.996094 C 0.398438 0.933594 0.492188 0.898438 0.613281 0.898438 C 0.699219 0.898438 0.8125 0.929688 0.957031 0.984375 C 1.058594 1.023438 1.121094 1.039062 1.148438 1.039062 C 1.222656 1.039062 1.304688 1 1.394531 0.921875 C 1.484375 0.84375 1.574219 0.691406 1.667969 0.46875 L 1.914062 -0.136719 L 0.664062 -2.761719 C 0.625 -2.839844 0.566406 -2.9375 0.480469 -3.054688 C 0.417969 -3.140625 0.367188 -3.203125 0.328125 -3.230469 C 0.269531 -3.273438 0.175781 -3.308594 0.046875 -3.339844 Z "/>
</g>
<g id="glyph-0-9">
<path d="M 5.90625 -3.328125 C 6.242188 -2.960938 6.53125 -2.679688 6.777344 -2.488281 C 7.023438 -2.296875 7.253906 -2.15625 7.472656 -2.0625 L 7.472656 -1.890625 C 7.222656 -1.769531 6.980469 -1.613281 6.746094 -1.425781 C 6.507812 -1.238281 6.226562 -0.960938 5.902344 -0.597656 L 5.609375 -0.597656 C 5.847656 -1.105469 6.097656 -1.496094 6.355469 -1.769531 L 0.300781 -1.769531 L 0.300781 -2.152344 L 6.355469 -2.152344 C 6.164062 -2.398438 6.03125 -2.582031 5.953125 -2.699219 C 5.878906 -2.820312 5.765625 -3.027344 5.617188 -3.328125 Z "/>
</g>
<g id="glyph-0-10">
<path d="M 4.683594 -5.265625 L 4.800781 -3.515625 L 4.683594 -3.515625 C 4.527344 -4.039062 4.300781 -4.417969 4.011719 -4.648438 C 3.71875 -4.878906 3.371094 -4.992188 2.960938 -4.992188 C 2.621094 -4.992188 2.3125 -4.90625 2.035156 -4.734375 C 1.757812 -4.558594 1.542969 -4.285156 1.382812 -3.902344 C 1.226562 -3.523438 1.148438 -3.050781 1.148438 -2.488281 C 1.148438 -2.023438 1.222656 -1.617188 1.371094 -1.277344 C 1.519531 -0.933594 1.746094 -0.671875 2.046875 -0.488281 C 2.34375 -0.308594 2.6875 -0.214844 3.070312 -0.214844 C 3.40625 -0.214844 3.703125 -0.289062 3.957031 -0.429688 C 4.210938 -0.574219 4.492188 -0.859375 4.800781 -1.285156 L 4.917969 -1.207031 C 4.660156 -0.75 4.359375 -0.414062 4.015625 -0.203125 C 3.667969 0.0117188 3.261719 0.117188 2.789062 0.117188 C 1.933594 0.117188 1.273438 -0.199219 0.804688 -0.832031 C 0.457031 -1.300781 0.28125 -1.855469 0.28125 -2.496094 C 0.28125 -3.007812 0.394531 -3.480469 0.625 -3.910156 C 0.855469 -4.34375 1.175781 -4.675781 1.578125 -4.910156 C 1.980469 -5.148438 2.421875 -5.265625 2.902344 -5.265625 C 3.273438 -5.265625 3.640625 -5.175781 4.003906 -4.992188 C 4.109375 -4.9375 4.183594 -4.910156 4.230469 -4.910156 C 4.296875 -4.910156 4.359375 -4.933594 4.410156 -4.980469 C 4.476562 -5.050781 4.523438 -5.144531 4.550781 -5.265625 Z "/>
</g>
<g id="glyph-0-11">
<path d="M 1.171875 -1.269531 C 0.960938 -1.371094 0.796875 -1.515625 0.683594 -1.703125 C 0.570312 -1.890625 0.511719 -2.09375 0.511719 -2.320312 C 0.511719 -2.664062 0.640625 -2.960938 0.902344 -3.207031 C 1.160156 -3.457031 1.492188 -3.582031 1.898438 -3.582031 C 2.230469 -3.582031 2.519531 -3.5 2.761719 -3.339844 L 3.496094 -3.339844 C 3.605469 -3.339844 3.667969 -3.335938 3.6875 -3.328125 C 3.707031 -3.320312 3.71875 -3.3125 3.726562 -3.296875 C 3.742188 -3.273438 3.75 -3.234375 3.75 -3.175781 C 3.75 -3.109375 3.742188 -3.0625 3.730469 -3.039062 C 3.722656 -3.023438 3.707031 -3.015625 3.6875 -3.007812 C 3.671875 -3 3.605469 -2.996094 3.496094 -2.996094 L 3.046875 -2.996094 C 3.1875 -2.8125 3.257812 -2.582031 3.257812 -2.296875 C 3.257812 -1.972656 3.132812 -1.695312 2.886719 -1.464844 C 2.636719 -1.234375 2.304688 -1.121094 1.886719 -1.121094 C 1.714844 -1.121094 1.539062 -1.144531 1.359375 -1.195312 C 1.25 -1.101562 1.171875 -1.015625 1.132812 -0.945312 C 1.09375 -0.871094 1.074219 -0.808594 1.074219 -0.757812 C 1.074219 -0.714844 1.09375 -0.675781 1.136719 -0.632812 C 1.179688 -0.59375 1.261719 -0.566406 1.382812 -0.546875 C 1.453125 -0.535156 1.628906 -0.527344 1.914062 -0.519531 C 2.433594 -0.507812 2.773438 -0.488281 2.929688 -0.46875 C 3.164062 -0.433594 3.351562 -0.347656 3.492188 -0.203125 C 3.632812 -0.0625 3.703125 0.113281 3.703125 0.320312 C 3.703125 0.605469 3.570312 0.875 3.300781 1.125 C 2.90625 1.492188 2.390625 1.679688 1.753906 1.679688 C 1.265625 1.679688 0.851562 1.570312 0.515625 1.347656 C 0.328125 1.222656 0.230469 1.089844 0.230469 0.953125 C 0.230469 0.890625 0.246094 0.832031 0.273438 0.769531 C 0.316406 0.675781 0.40625 0.546875 0.539062 0.378906 C 0.558594 0.355469 0.6875 0.21875 0.925781 -0.03125 C 0.796875 -0.109375 0.703125 -0.179688 0.648438 -0.242188 C 0.59375 -0.304688 0.566406 -0.375 0.566406 -0.453125 C 0.566406 -0.539062 0.601562 -0.644531 0.675781 -0.761719 C 0.746094 -0.882812 0.914062 -1.050781 1.171875 -1.269531 M 1.835938 -3.398438 C 1.648438 -3.398438 1.488281 -3.324219 1.363281 -3.175781 C 1.238281 -3.023438 1.171875 -2.796875 1.171875 -2.488281 C 1.171875 -2.085938 1.257812 -1.777344 1.433594 -1.558594 C 1.5625 -1.390625 1.730469 -1.304688 1.933594 -1.304688 C 2.125 -1.304688 2.285156 -1.378906 2.40625 -1.523438 C 2.53125 -1.667969 2.59375 -1.894531 2.59375 -2.203125 C 2.59375 -2.605469 2.507812 -2.921875 2.332031 -3.148438 C 2.203125 -3.316406 2.035156 -3.398438 1.835938 -3.398438 M 1.136719 0 C 1.015625 0.128906 0.925781 0.25 0.867188 0.359375 C 0.804688 0.472656 0.773438 0.574219 0.773438 0.667969 C 0.773438 0.789062 0.847656 0.894531 0.996094 0.988281 C 1.25 1.144531 1.613281 1.222656 2.09375 1.222656 C 2.546875 1.222656 2.882812 1.140625 3.101562 0.980469 C 3.316406 0.820312 3.425781 0.648438 3.425781 0.46875 C 3.425781 0.335938 3.359375 0.242188 3.230469 0.1875 C 3.101562 0.128906 2.839844 0.0976562 2.449219 0.0859375 C 1.878906 0.0703125 1.441406 0.0429688 1.136719 0 Z "/>
</g>
<g id="glyph-0-12">
<path d="M 1.128906 -5.398438 C 1.234375 -5.398438 1.324219 -5.363281 1.398438 -5.289062 C 1.472656 -5.214844 1.511719 -5.121094 1.511719 -5.015625 C 1.511719 -4.910156 1.472656 -4.820312 1.398438 -4.742188 C 1.324219 -4.667969 1.234375 -4.628906 1.128906 -4.628906 C 1.023438 -4.628906 0.929688 -4.667969 0.855469 -4.742188 C 0.777344 -4.820312 0.742188 -4.910156 0.742188 -5.015625 C 0.742188 -5.121094 0.777344 -5.214844 0.851562 -5.289062 C 0.925781 -5.363281 1.019531 -5.398438 1.128906 -5.398438 M 1.441406 -3.582031 L 1.441406 -0.785156 C 1.441406 -0.570312 1.457031 -0.421875 1.492188 -0.351562 C 1.523438 -0.277344 1.570312 -0.226562 1.632812 -0.191406 C 1.691406 -0.15625 1.804688 -0.136719 1.972656 -0.136719 L 1.972656 0 L 0.28125 0 L 0.28125 -0.136719 C 0.449219 -0.136719 0.566406 -0.152344 0.621094 -0.1875 C 0.679688 -0.21875 0.726562 -0.273438 0.761719 -0.347656 C 0.796875 -0.425781 0.8125 -0.570312 0.8125 -0.785156 L 0.8125 -2.125 C 0.8125 -2.503906 0.800781 -2.75 0.777344 -2.859375 C 0.761719 -2.941406 0.734375 -2.996094 0.695312 -3.027344 C 0.65625 -3.058594 0.605469 -3.074219 0.539062 -3.074219 C 0.46875 -3.074219 0.382812 -3.058594 0.28125 -3.019531 L 0.226562 -3.15625 L 1.277344 -3.582031 Z "/>
</g>
<g id="glyph-0-13">
<path d="M 2.214844 -0.5 C 1.855469 -0.226562 1.632812 -0.0664062 1.542969 -0.0234375 C 1.40625 0.0390625 1.257812 0.0703125 1.105469 0.0703125 C 0.863281 0.0703125 0.667969 -0.0117188 0.511719 -0.175781 C 0.355469 -0.339844 0.277344 -0.554688 0.277344 -0.824219 C 0.277344 -0.992188 0.316406 -1.140625 0.390625 -1.265625 C 0.496094 -1.4375 0.675781 -1.597656 0.933594 -1.75 C 1.1875 -1.902344 1.617188 -2.085938 2.214844 -2.304688 L 2.214844 -2.441406 C 2.214844 -2.789062 2.160156 -3.027344 2.046875 -3.15625 C 1.9375 -3.285156 1.777344 -3.347656 1.570312 -3.347656 C 1.410156 -3.347656 1.28125 -3.304688 1.1875 -3.21875 C 1.09375 -3.132812 1.042969 -3.035156 1.042969 -2.925781 L 1.050781 -2.703125 C 1.050781 -2.585938 1.023438 -2.496094 0.960938 -2.433594 C 0.902344 -2.371094 0.824219 -2.339844 0.730469 -2.339844 C 0.636719 -2.339844 0.558594 -2.371094 0.5 -2.4375 C 0.441406 -2.503906 0.410156 -2.59375 0.410156 -2.707031 C 0.410156 -2.925781 0.523438 -3.125 0.746094 -3.308594 C 0.96875 -3.488281 1.28125 -3.582031 1.683594 -3.582031 C 1.992188 -3.582031 2.246094 -3.527344 2.441406 -3.425781 C 2.589844 -3.347656 2.703125 -3.222656 2.773438 -3.058594 C 2.816406 -2.949219 2.839844 -2.726562 2.839844 -2.386719 L 2.839844 -1.207031 C 2.839844 -0.875 2.847656 -0.671875 2.859375 -0.597656 C 2.871094 -0.523438 2.894531 -0.472656 2.921875 -0.449219 C 2.953125 -0.421875 2.984375 -0.410156 3.023438 -0.410156 C 3.0625 -0.410156 3.097656 -0.417969 3.128906 -0.4375 C 3.183594 -0.46875 3.285156 -0.5625 3.4375 -0.714844 L 3.4375 -0.5 C 3.152344 -0.121094 2.882812 0.0664062 2.625 0.0664062 C 2.5 0.0664062 2.402344 0.0234375 2.328125 -0.0625 C 2.253906 -0.148438 2.214844 -0.292969 2.214844 -0.5 M 2.214844 -0.75 L 2.214844 -2.074219 C 1.832031 -1.921875 1.585938 -1.8125 1.472656 -1.75 C 1.273438 -1.640625 1.128906 -1.523438 1.042969 -1.402344 C 0.957031 -1.28125 0.914062 -1.148438 0.914062 -1.003906 C 0.914062 -0.820312 0.96875 -0.667969 1.078125 -0.546875 C 1.1875 -0.429688 1.3125 -0.367188 1.453125 -0.367188 C 1.648438 -0.367188 1.898438 -0.496094 2.214844 -0.75 M 0.648438 -4.164062 L 0.527344 -4.164062 C 0.539062 -4.511719 0.609375 -4.761719 0.746094 -4.917969 C 0.878906 -5.070312 1.042969 -5.148438 1.242188 -5.148438 C 1.34375 -5.148438 1.441406 -5.132812 1.527344 -5.101562 C 1.640625 -5.058594 1.800781 -4.964844 2.011719 -4.828125 C 2.21875 -4.691406 2.375 -4.621094 2.476562 -4.621094 C 2.558594 -4.621094 2.628906 -4.65625 2.691406 -4.722656 C 2.753906 -4.792969 2.800781 -4.933594 2.835938 -5.148438 L 2.953125 -5.148438 C 2.957031 -4.914062 2.925781 -4.726562 2.863281 -4.589844 C 2.796875 -4.453125 2.707031 -4.34375 2.589844 -4.265625 C 2.46875 -4.1875 2.351562 -4.152344 2.234375 -4.152344 C 2.03125 -4.152344 1.785156 -4.253906 1.488281 -4.453125 C 1.328125 -4.5625 1.222656 -4.628906 1.164062 -4.652344 C 1.109375 -4.675781 1.054688 -4.6875 1.003906 -4.6875 C 0.898438 -4.6875 0.816406 -4.640625 0.753906 -4.550781 C 0.726562 -4.507812 0.691406 -4.378906 0.648438 -4.164062 Z "/>
</g>
<g id="glyph-0-14">
<path d="M 1.257812 -2.84375 C 1.664062 -3.335938 2.054688 -3.582031 2.421875 -3.582031 C 2.613281 -3.582031 2.777344 -3.535156 2.914062 -3.4375 C 3.050781 -3.34375 3.160156 -3.1875 3.238281 -2.96875 C 3.296875 -2.816406 3.324219 -2.585938 3.324219 -2.269531 L 3.324219 -0.785156 C 3.324219 -0.566406 3.339844 -0.417969 3.375 -0.339844 C 3.402344 -0.273438 3.449219 -0.226562 3.511719 -0.191406 C 3.574219 -0.15625 3.6875 -0.136719 3.855469 -0.136719 L 3.855469 0 L 2.132812 0 L 2.132812 -0.136719 L 2.207031 -0.136719 C 2.367188 -0.136719 2.480469 -0.160156 2.546875 -0.210938 C 2.609375 -0.261719 2.65625 -0.332031 2.679688 -0.429688 C 2.691406 -0.46875 2.695312 -0.585938 2.695312 -0.785156 L 2.695312 -2.210938 C 2.695312 -2.527344 2.65625 -2.757812 2.574219 -2.898438 C 2.492188 -3.042969 2.351562 -3.113281 2.15625 -3.113281 C 1.855469 -3.113281 1.554688 -2.949219 1.257812 -2.621094 L 1.257812 -0.785156 C 1.257812 -0.550781 1.269531 -0.40625 1.296875 -0.347656 C 1.335938 -0.277344 1.382812 -0.222656 1.445312 -0.1875 C 1.507812 -0.152344 1.632812 -0.136719 1.824219 -0.136719 L 1.824219 0 L 0.101562 0 L 0.101562 -0.136719 L 0.179688 -0.136719 C 0.355469 -0.136719 0.476562 -0.183594 0.539062 -0.273438 C 0.597656 -0.363281 0.628906 -0.53125 0.628906 -0.785156 L 0.628906 -2.078125 C 0.628906 -2.496094 0.621094 -2.75 0.601562 -2.839844 C 0.582031 -2.933594 0.554688 -2.992188 0.515625 -3.027344 C 0.476562 -3.058594 0.421875 -3.074219 0.355469 -3.074219 C 0.285156 -3.074219 0.203125 -3.058594 0.101562 -3.019531 L 0.046875 -3.15625 L 1.09375 -3.582031 L 1.257812 -3.582031 Z "/>
</g>
</g>
</defs>
<g fill="rgb(96.862745%, 85.098039%, 43.529412%)" fill-opacity="1">
<use xlink:href="#glyph-0-0" x="30" y="26.930664"/>
<use xlink:href="#glyph-0-1" x="34" y="26.930664"/>
<use xlink:href="#glyph-0-2" x="40" y="26.930664"/>
<use xlink:href="#glyph-0-3" x="46" y="26.930664"/>
<use xlink:href="#glyph-0-4" x="48" y="26.930664"/>
<use xlink:href="#glyph-0-3" x="52" y="26.930664"/>
<use xlink:href="#glyph-0-5" x="54" y="26.930664"/>
<use xlink:href="#glyph-0-6" x="60" y="26.930664"/>
<use xlink:href="#glyph-0-7" x="64" y="26.930664"/>
<use xlink:href="#glyph-0-8" x="67" y="26.930664"/>
<use xlink:href="#glyph-0-3" x="71" y="26.930664"/>
<use xlink:href="#glyph-0-9" x="73" y="26.930664"/>
<use xlink:href="#glyph-0-3" x="81" y="26.930664"/>
<use xlink:href="#glyph-0-10" x="83" y="26.930664"/>
<use xlink:href="#glyph-0-6" x="88" y="26.930664"/>
<use xlink:href="#glyph-0-3" x="92" y="26.930664"/>
<use xlink:href="#glyph-0-11" x="94" y="26.930664"/>
<use xlink:href="#glyph-0-12" x="98" y="26.930664"/>
<use xlink:href="#glyph-0-13" x="100" y="26.930664"/>
<use xlink:href="#glyph-0-14" x="103" y="26.930664"/>
<use xlink:href="#glyph-0-3" x="107" y="26.930664"/>
<use xlink:href="#glyph-0-9" x="109" y="26.930664"/>
<use xlink:href="#glyph-0-3" x="117" y="26.930664"/>
<use xlink:href="#glyph-0-5" x="119" y="26.930664"/>
<use xlink:href="#glyph-0-6" x="125" y="26.930664"/>
<use xlink:href="#glyph-0-7" x="129" y="26.930664"/>
<use xlink:href="#glyph-0-8" x="132" y="26.930664"/>
</g>
</svg>
