<?xml version="1.0" encoding="UTF-8"?>
<svg xmlns="http://www.w3.org/2000/svg" xmlns:xlink="http://www.w3.org/1999/xlink" width="854" height="480" viewBox="0 0 854 480">
<defs>
<g>
<g id="glyph-0-0">
<path d="M 5.144531 -5.886719 L 5.207031 -4.503906 L 5.042969 -4.503906 C 5.011719 -4.75 4.96875 -4.921875 4.914062 -5.027344 C 4.824219 -5.195312 4.703125 -5.316406 4.554688 -5.398438 C 4.40625 -5.476562 4.210938 -5.515625 3.96875 -5.515625 L 3.136719 -5.515625 L 3.136719 -1.019531 C 3.136719 -0.660156 3.175781 -0.433594 3.253906 -0.34375 C 3.367188 -0.222656 3.535156 -0.160156 3.761719 -0.160156 L 3.96875 -0.160156 L 3.96875 0 L 1.472656 0 L 1.472656 -0.160156 L 1.679688 -0.160156 C 1.929688 -0.160156 2.105469 -0.234375 2.210938 -0.386719 C 2.273438 -0.480469 2.304688 -0.691406 2.304688 -1.019531 L 2.304688 -5.515625 L 1.597656 -5.515625 C 1.324219 -5.515625 1.128906 -5.496094 1.011719 -5.457031 C 0.859375 -5.402344 0.730469 -5.296875 0.625 -5.140625 C 0.519531 -4.984375 0.453125 -4.773438 0.433594 -4.503906 L 0.269531 -4.503906 L 0.339844 -5.886719 Z "/>
</g>
<g id="glyph-0-1">
<path d="M 1.644531 -4.09375 L 1.644531 -0.898438 C 1.644531 -0.648438 1.664062 -0.484375 1.703125 -0.402344 C 1.738281 -0.320312 1.792969 -0.257812 1.863281 -0.21875 C 1.933594 -0.175781 2.066406 -0.15625 2.253906 -0.15625 L 2.253906 0 L 0.320312 0 L 0.320312 -0.15625 C 0.515625 -0.15625 0.644531 -0.175781 0.710938 -0.210938 C 0.777344 -0.25 0.832031 -0.3125 0.871094 -0.398438 C 0.910156 -0.484375 0.929688 -0.652344 0.929688 -0.898438 L 0.929688 -2.429688 C 0.929688 -2.863281 0.914062 -3.140625 0.890625 -3.269531 C 0.871094 -3.359375 0.835938 -3.425781 0.792969 -3.460938 C 0.75 -3.496094 0.691406 -3.515625 0.617188 -3.515625 C 0.535156 -3.515625 0.4375 -3.492188 0.320312 -3.449219 L 0.261719 -3.605469 L 1.457031 -4.09375 L 1.644531 -4.09375 M 0.335938 -6.035156 L 1.300781 -6.035156 L 1.761719 -4.535156 L 1.609375 -4.535156 Z "/>
</g>
<g id="glyph-0-2">
<path d="M 1.457031 -3.246094 C 1.746094 -3.535156 1.917969 -3.703125 1.96875 -3.746094 C 2.101562 -3.855469 2.242188 -3.941406 2.390625 -4 C 2.542969 -4.0625 2.691406 -4.09375 2.839844 -4.09375 C 3.085938 -4.09375 3.300781 -4.019531 3.480469 -3.875 C 3.660156 -3.730469 3.78125 -3.523438 3.839844 -3.246094 C 4.140625 -3.59375 4.390625 -3.820312 4.597656 -3.929688 C 4.800781 -4.039062 5.011719 -4.09375 5.230469 -4.09375 C 5.441406 -4.09375 5.628906 -4.039062 5.792969 -3.929688 C 5.957031 -3.820312 6.085938 -3.644531 6.179688 -3.398438 C 6.246094 -3.230469 6.277344 -2.96875 6.277344 -2.609375 L 6.277344 -0.898438 C 6.277344 -0.648438 6.296875 -0.480469 6.332031 -0.386719 C 6.363281 -0.324219 6.414062 -0.269531 6.492188 -0.222656 C 6.570312 -0.179688 6.699219 -0.15625 6.875 -0.15625 L 6.875 0 L 4.914062 0 L 4.914062 -0.15625 L 4.996094 -0.15625 C 5.167969 -0.15625 5.300781 -0.191406 5.394531 -0.257812 C 5.460938 -0.300781 5.507812 -0.375 5.539062 -0.476562 C 5.550781 -0.527344 5.554688 -0.667969 5.554688 -0.898438 L 5.554688 -2.609375 C 5.554688 -2.933594 5.515625 -3.160156 5.4375 -3.292969 C 5.324219 -3.480469 5.144531 -3.570312 4.894531 -3.570312 C 4.742188 -3.570312 4.589844 -3.535156 4.433594 -3.457031 C 4.277344 -3.378906 4.089844 -3.238281 3.871094 -3.03125 L 3.863281 -2.980469 L 3.871094 -2.796875 L 3.871094 -0.898438 C 3.871094 -0.625 3.886719 -0.457031 3.917969 -0.390625 C 3.949219 -0.324219 4.003906 -0.269531 4.089844 -0.222656 C 4.171875 -0.179688 4.316406 -0.15625 4.519531 -0.15625 L 4.519531 0 L 2.507812 0 L 2.507812 -0.15625 C 2.730469 -0.15625 2.878906 -0.183594 2.960938 -0.234375 C 3.042969 -0.285156 3.101562 -0.363281 3.132812 -0.46875 C 3.148438 -0.519531 3.15625 -0.660156 3.15625 -0.898438 L 3.15625 -2.609375 C 3.15625 -2.933594 3.109375 -3.164062 3.011719 -3.308594 C 2.886719 -3.492188 2.707031 -3.585938 2.476562 -3.585938 C 2.320312 -3.585938 2.167969 -3.542969 2.015625 -3.460938 C 1.773438 -3.332031 1.589844 -3.1875 1.457031 -3.03125 L 1.457031 -0.898438 C 1.457031 -0.636719 1.476562 -0.46875 1.511719 -0.390625 C 1.550781 -0.3125 1.601562 -0.253906 1.671875 -0.214844 C 1.746094 -0.175781 1.886719 -0.15625 2.105469 -0.15625 L 2.105469 0 L 0.140625 0 L 0.140625 -0.15625 C 0.320312 -0.15625 0.449219 -0.175781 0.519531 -0.214844 C 0.59375 -0.253906 0.648438 -0.316406 0.6875 -0.402344 C 0.722656 -0.488281 0.742188 -0.652344 0.742188 -0.898438 L 0.742188 -2.417969 C 0.742188 -2.855469 0.730469 -3.136719 0.703125 -3.265625 C 0.683594 -3.359375 0.652344 -3.425781 0.609375 -3.460938 C 0.5625 -3.496094 0.503906 -3.515625 0.429688 -3.515625 C 0.347656 -3.515625 0.25 -3.492188 0.140625 -3.449219 L 0.0742188 -3.605469 L 1.273438 -4.09375 L 1.457031 -4.09375 Z "/>
</g>
<g id="glyph-0-3">
</g>
<g id="glyph-0-4">
<path d="M 4.242188 -5.726562 L 4.242188 -5.886719 L 6.324219 -5.886719 L 6.324219 -5.726562 L 6.101562 -5.726562 C 5.871094 -5.726562 5.691406 -5.628906 5.570312 -5.433594 C 5.507812 -5.34375 5.476562 -5.136719 5.476562 -4.808594 L 5.476562 -2.421875 C 5.476562 -1.832031 5.417969 -1.375 5.300781 -1.046875 C 5.183594 -0.722656 4.953125 -0.445312 4.613281 -0.210938 C 4.269531 0.0234375 3.800781 0.140625 3.210938 0.140625 C 2.570312 0.140625 2.082031 0.0273438 1.75 -0.195312 C 1.417969 -0.417969 1.179688 -0.71875 1.042969 -1.09375 C 0.949219 -1.351562 0.902344 -1.835938 0.902344 -2.542969 L 0.902344 -4.84375 C 0.902344 -5.207031 0.851562 -5.441406 0.753906 -5.554688 C 0.652344 -5.667969 0.492188 -5.726562 0.269531 -5.726562 L 0.046875 -5.726562 L 0.046875 -5.886719 L 2.589844 -5.886719 L 2.589844 -5.726562 L 2.367188 -5.726562 C 2.121094 -5.726562 1.949219 -5.648438 1.84375 -5.496094 C 1.773438 -5.390625 1.734375 -5.175781 1.734375 -4.84375 L 1.734375 -2.277344 C 1.734375 -2.050781 1.757812 -1.789062 1.800781 -1.492188 C 1.839844 -1.199219 1.917969 -0.96875 2.027344 -0.804688 C 2.136719 -0.636719 2.296875 -0.503906 2.503906 -0.394531 C 2.710938 -0.289062 2.964844 -0.234375 3.265625 -0.234375 C 3.648438 -0.234375 3.992188 -0.316406 4.296875 -0.484375 C 4.601562 -0.652344 4.808594 -0.867188 4.921875 -1.128906 C 5.03125 -1.390625 5.085938 -1.835938 5.085938 -2.460938 L 5.085938 -4.84375 C 5.085938 -5.210938 5.046875 -5.441406 4.964844 -5.535156 C 4.851562 -5.660156 4.683594 -5.726562 4.460938 -5.726562 Z "/>
</g>
</g>
</defs>
<g fill="rgb(34.509804%, 76.862745%, 86.666667%)" fill-opacity="1">
<use xlink:href="#glyph-0-0" x="30" y="27.920898"/>
<use xlink:href="#glyph-0-1" x="35" y="27.920898"/>
<use xlink:href="#glyph-0-2" x="37" y="27.920898"/>
<use xlink:href="#glyph-0-3" x="44" y="27.920898"/>
<use xlink:href="#glyph-0-4" x="46" y="27.920898"/>
</g>
</svg>
